<svg width="500" height="500" viewBox="0 0 500 500" fill="none" xmlns="http://www.w3.org/2000/svg">
<path d="M449.901 398.494H416.779V398.744H449.901V398.494Z" fill="#EBEBEB"/>
<path d="M331.22 401.208H322.527V401.458H331.22V401.208Z" fill="#EBEBEB"/>
<path d="M415.778 389.208H396.586V389.458H415.778V389.208Z" fill="#EBEBEB"/>
<path d="M95.652 390.888H52.459V391.138H95.652V390.888Z" fill="#EBEBEB"/>
<path d="M110.889 390.888H104.556V391.138H110.889V390.888Z" fill="#EBEBEB"/>
<path d="M225.147 395.111H131.471V395.361H225.147V395.111Z" fill="#EBEBEB"/>
<path d="M238.401 337.8H45.3022C42.1552 337.8 39.5942 335.239 39.5942 332.092V60.66C39.5942 57.513 42.1552 54.952 45.3022 54.952H238.401C241.547 54.952 244.108 57.513 244.108 60.66V332.092C244.108 335.239 241.547 337.8 238.401 337.8ZM45.3022 55.203C42.2922 55.203 39.8442 57.651 39.8442 60.661V332.093C39.8442 335.103 42.2922 337.551 45.3022 337.551H238.401C241.41 337.551 243.858 335.103 243.858 332.093V60.66C243.858 57.651 241.41 55.202 238.401 55.202L45.3022 55.203Z" fill="#EBEBEB"/>
<path d="M454.698 337.8H261.599C258.453 337.8 255.892 335.239 255.892 332.092V60.66C255.892 57.513 258.453 54.952 261.599 54.952H454.698C457.846 54.952 460.406 57.513 460.406 60.66V332.092C460.406 335.239 457.845 337.8 454.698 337.8ZM261.599 55.203C258.59 55.203 256.142 57.651 256.142 60.661V332.093C256.142 335.103 258.59 337.551 261.599 337.551H454.698C457.708 337.551 460.156 335.103 460.156 332.093V60.66C460.156 57.651 457.708 55.202 454.698 55.202L261.599 55.203Z" fill="#EBEBEB"/>
<path d="M500 382.398H0V382.648H500V382.398Z" fill="#EBEBEB"/>
<path d="M374.986 375.471L346.906 369.589V224.236H337.949V369.588L309.869 375.47C306.586 376.158 304.235 379.052 304.235 382.407H380.619C380.62 379.053 378.269 376.159 374.986 375.471Z" fill="#E0E0E0"/>
<path d="M357.806 228.156H341.765V137.353H357.806C372.683 137.353 384.744 149.414 384.744 164.291V201.219C384.743 216.096 372.683 228.156 357.806 228.156Z" fill="#E6E6E6"/>
<path d="M357.806 217.186H341.764V228.156H357.806C372.683 228.156 384.744 216.096 384.744 201.218V190.248C384.743 205.125 372.683 217.186 357.806 217.186Z" fill="#E0E0E0"/>
<path d="M343.666 228.156H319.575C311.302 228.156 304.595 221.449 304.595 213.176V152.333C304.595 144.06 311.302 137.353 319.575 137.353H343.666C351.939 137.353 358.646 144.06 358.646 152.333V213.176C358.646 221.449 351.939 228.156 343.666 228.156Z" fill="#F0F0F0"/>
<path d="M331.62 178.622C341.513 178.622 349.533 170.602 349.533 160.709C349.533 150.816 341.513 142.796 331.62 142.796C321.727 142.796 313.707 150.816 313.707 160.709C313.707 170.602 321.727 178.622 331.62 178.622Z" fill="#E0E0E0"/>
<path d="M331.62 221.461C341.513 221.461 349.533 213.441 349.533 203.548C349.533 193.655 341.513 185.635 331.62 185.635C321.727 185.635 313.707 193.655 313.707 203.548C313.707 213.441 321.727 221.461 331.62 221.461Z" fill="#E0E0E0"/>
<path d="M331.62 175.636C339.864 175.636 346.547 168.953 346.547 160.709C346.547 152.465 339.864 145.782 331.62 145.782C323.376 145.782 316.693 152.465 316.693 160.709C316.693 168.953 323.376 175.636 331.62 175.636Z" fill="#EBEBEB"/>
<path d="M337.591 160.709C337.591 164.007 334.918 166.68 331.62 166.68C328.322 166.68 325.649 164.007 325.649 160.709C325.649 157.411 328.322 154.738 331.62 154.738C334.918 154.738 337.591 157.411 337.591 160.709Z" fill="#E0E0E0"/>
<path d="M331.62 218.475C339.864 218.475 346.547 211.792 346.547 203.548C346.547 195.304 339.864 188.621 331.62 188.621C323.376 188.621 316.693 195.304 316.693 203.548C316.693 211.792 323.376 218.475 331.62 218.475Z" fill="#EBEBEB"/>
<path d="M337.591 203.548C337.591 206.846 334.918 209.519 331.62 209.519C328.322 209.519 325.649 206.846 325.649 203.548C325.649 200.25 328.322 197.577 331.62 197.577C334.918 197.577 337.591 200.25 337.591 203.548Z" fill="#E0E0E0"/>
<path d="M430.563 82.554H68.777C67.243 82.554 66 81.311 66 79.777C66 78.243 67.243 77 68.777 77H430.563C432.097 77 433.34 78.243 433.34 79.777C433.34 81.311 432.097 82.554 430.563 82.554Z" fill="#E6E6E6"/>
<path d="M129.171 116.103C125.363 119.911 119.19 119.911 115.382 116.103L111.774 112.495C107.966 108.687 107.966 102.514 111.774 98.706C115.582 94.898 121.755 94.898 125.563 98.706L129.171 102.314C132.979 106.122 132.979 112.295 129.171 116.103Z" fill="#E0E0E0"/>
<path d="M119.146 112.194C117.146 114.194 117.036 117.365 118.811 119.496C120.943 121.271 124.113 121.161 126.113 119.161L132.229 113.045C134.229 111.045 134.339 107.874 132.564 105.743C130.432 103.968 127.262 104.078 125.262 106.078L119.146 112.194Z" fill="#F5F5F5"/>
<path d="M119.91 99.978C119.91 102.222 118.091 104.041 115.847 104.041C113.603 104.041 111.784 102.222 111.784 99.978V81.853H119.909V99.978H119.91Z" fill="#F0F0F0"/>
<path d="M118.075 99.978C118.075 101.208 117.078 102.206 115.847 102.206C114.617 102.206 113.619 101.209 113.619 99.978C113.619 98.748 114.616 97.75 115.847 97.75C117.078 97.75 118.075 98.748 118.075 99.978Z" fill="#E0E0E0"/>
<path d="M217.851 116.103C214.043 119.911 207.87 119.911 204.062 116.103L200.454 112.495C196.646 108.687 196.646 102.514 200.454 98.706C204.262 94.898 210.435 94.898 214.242 98.706L217.85 102.314C221.659 106.122 221.659 112.295 217.851 116.103Z" fill="#E0E0E0"/>
<path d="M207.826 112.194C205.826 114.194 205.716 117.365 207.491 119.496C209.623 121.271 212.793 121.161 214.793 119.161L220.909 113.045C222.909 111.045 223.019 107.874 221.244 105.743C219.112 103.968 215.942 104.078 213.942 106.078L207.826 112.194Z" fill="#F5F5F5"/>
<path d="M208.59 99.978C208.59 102.222 206.771 104.041 204.527 104.041C202.283 104.041 200.464 102.222 200.464 99.978V81.853H208.589L208.59 99.978Z" fill="#F0F0F0"/>
<path d="M206.755 99.978C206.755 101.208 205.758 102.206 204.527 102.206C203.297 102.206 202.3 101.209 202.3 99.978C202.3 98.748 203.297 97.75 204.527 97.75C205.758 97.75 206.755 98.748 206.755 99.978Z" fill="#E0E0E0"/>
<path d="M379.107 116.103C382.915 119.911 389.088 119.911 392.896 116.103L396.504 112.495C400.312 108.687 400.312 102.514 396.504 98.706C392.696 94.898 386.523 94.898 382.715 98.706L379.107 102.314C375.299 106.122 375.299 112.295 379.107 116.103Z" fill="#E0E0E0"/>
<path d="M389.132 112.194C391.132 114.194 391.242 117.365 389.467 119.496C387.335 121.271 384.165 121.161 382.165 119.161L376.049 113.045C374.049 111.045 373.939 107.874 375.714 105.743C377.846 103.968 381.016 104.078 383.016 106.078L389.132 112.194Z" fill="#F5F5F5"/>
<path d="M388.368 99.978C388.368 102.222 390.187 104.041 392.431 104.041C394.675 104.041 396.494 102.222 396.494 99.978V81.853H388.369L388.368 99.978Z" fill="#F0F0F0"/>
<path d="M390.203 99.978C390.203 101.208 391.2 102.206 392.431 102.206C393.662 102.206 394.659 101.209 394.659 99.978C394.659 98.748 393.662 97.75 392.431 97.75C391.2 97.75 390.203 98.748 390.203 99.978Z" fill="#E0E0E0"/>
<path d="M290.427 116.103C294.235 119.911 300.408 119.911 304.216 116.103L307.824 112.495C311.632 108.687 311.632 102.514 307.824 98.706C304.016 94.898 297.843 94.898 294.036 98.706L290.428 102.314C286.62 106.122 286.62 112.295 290.427 116.103Z" fill="#E0E0E0"/>
<path d="M300.452 112.194C302.452 114.194 302.562 117.365 300.787 119.496C298.655 121.271 295.485 121.161 293.485 119.161L287.369 113.045C285.369 111.045 285.259 107.874 287.034 105.743C289.166 103.968 292.336 104.078 294.336 106.078L300.452 112.194Z" fill="#F5F5F5"/>
<path d="M299.688 99.978C299.688 102.222 301.507 104.041 303.751 104.041C305.995 104.041 307.814 102.222 307.814 99.978V81.853H299.689V99.978H299.688Z" fill="#F0F0F0"/>
<path d="M301.523 99.978C301.523 101.208 302.52 102.206 303.751 102.206C304.981 102.206 305.979 101.209 305.979 99.978C305.979 98.748 304.982 97.75 303.751 97.75C302.52 97.75 301.523 98.748 301.523 99.978Z" fill="#E0E0E0"/>
<path d="M250.815 427.016C370.561 427.016 467.635 421.947 467.635 415.693C467.635 409.439 370.561 404.37 250.815 404.37C131.069 404.37 33.9951 409.439 33.9951 415.693C33.9951 421.947 131.069 427.016 250.815 427.016Z" fill="#F5F5F5"/>
<path opacity="0.3" d="M425.446 300.275C438.239 300.275 447.345 309.81 446.676 322.507L445.213 350.27C444.987 354.554 441.448 357.912 437.158 357.912H385.755L396.375 322.507C400.184 309.811 412.653 300.275 425.446 300.275Z" fill="white"/>
<path d="M162.184 403.967H43.8838V415.48H162.184V403.967Z" fill="#407BFF"/>
<path opacity="0.3" d="M162.184 403.967H43.8838V415.48H162.184V403.967Z" fill="white"/>
<path d="M344.005 403.967H152.204V415.48H344.005V403.967Z" fill="#407BFF"/>
<path opacity="0.7" d="M344.005 403.967H152.204V415.48H344.005V403.967Z" fill="white"/>
<path d="M87.1636 403.721C86.6136 403.675 86.2036 403.192 86.2496 402.641L106.37 161.567H108.372V163.567H108.21L88.2426 402.807C88.1976 403.358 87.7136 403.767 87.1636 403.721Z" fill="#263238"/>
<path d="M176.572 403.721C177.123 403.675 177.532 403.192 177.486 402.641L157.366 161.567H155.365V163.567H155.527L168.393 317.73H103.668L90.6328 161.567H88.6318V163.567H88.7928L108.76 402.807C108.806 403.357 109.289 403.766 109.84 403.72C110.39 403.674 110.799 403.191 110.753 402.64L103.833 319.729H168.558L175.491 402.807C175.539 403.358 176.022 403.767 176.572 403.721Z" fill="#263238"/>
<path d="M181.202 285.887H85.6066L73.5366 141.268H169.133L181.202 285.887Z" fill="#407BFF"/>
<path opacity="0.8" d="M181.202 285.887H85.6066L73.5366 141.268H169.133L181.202 285.887Z" fill="white"/>
<path d="M169.048 144.674H73.3878C71.6368 144.674 70.2178 143.255 70.2178 141.504C70.2178 139.753 71.6368 138.334 73.3878 138.334H169.048C170.799 138.334 172.218 139.753 172.218 141.504C172.218 143.254 170.798 144.674 169.048 144.674Z" fill="#407BFF"/>
<path opacity="0.5" d="M169.048 144.674H73.3878C71.6368 144.674 70.2178 143.255 70.2178 141.504C70.2178 139.753 71.6368 138.334 73.3878 138.334H169.048C170.799 138.334 172.218 139.753 172.218 141.504C172.218 143.254 170.798 144.674 169.048 144.674Z" fill="white"/>
<path d="M129.707 231.42L128.294 214.487C128.248 213.936 128.657 213.453 129.207 213.407C129.757 213.361 130.241 213.77 130.287 214.32L131.7 231.253C131.746 231.803 131.337 232.287 130.787 232.333C130.236 232.379 129.753 231.97 129.707 231.42Z" fill="#407BFF"/>
<path d="M113.675 214.897C101.245 214.897 90.2469 204.785 89.1599 192.355C88.0719 179.925 97.2999 169.812 109.731 169.812C122.161 169.812 133.159 179.925 134.246 192.355C135.333 204.785 126.105 214.897 113.675 214.897ZM109.818 170.811C97.9389 170.811 89.1199 180.475 90.1599 192.354C91.1989 204.232 101.709 213.896 113.588 213.896C125.467 213.896 134.285 204.232 133.246 192.354C132.207 180.475 121.697 170.811 109.818 170.811Z" fill="#407BFF"/>
<path d="M145.009 214.897C132.579 214.897 121.581 204.785 120.494 192.355C119.407 179.925 128.635 169.812 141.065 169.812C153.495 169.812 164.493 179.925 165.58 192.355C166.667 204.785 157.439 214.897 145.009 214.897ZM141.152 170.811C129.273 170.811 120.454 180.475 121.494 192.354C122.533 204.232 133.043 213.896 144.922 213.896C156.801 213.896 165.62 204.232 164.58 192.354C163.54 180.475 153.031 170.811 141.152 170.811Z" fill="#407BFF"/>
<path d="M121.041 192.773L130.501 182.406C130.316 182.095 130.125 181.788 129.926 181.486L120.931 191.343C120.945 191.678 120.964 192.014 120.994 192.353C121.006 192.495 121.026 192.634 121.041 192.773Z" fill="#407BFF"/>
<path d="M131.686 184.657C131.529 184.317 131.365 183.981 131.192 183.648L121.286 194.503C121.364 194.926 121.453 195.344 121.554 195.759L131.686 184.657Z" fill="#407BFF"/>
<path d="M132.663 187.137C132.539 186.762 132.407 186.391 132.265 186.024L121.987 197.288C122.107 197.667 122.236 198.042 122.374 198.413L132.663 187.137Z" fill="#407BFF"/>
<path d="M129.135 180.351C128.925 180.066 128.709 179.787 128.487 179.512L121.095 187.613C121.02 188.179 120.968 188.752 120.939 189.333L129.135 180.351Z" fill="#407BFF"/>
<path d="M127.609 178.475C127.375 178.215 127.136 177.961 126.892 177.711L122.407 182.626C122.087 183.414 121.816 184.227 121.596 185.064L127.609 178.475Z" fill="#407BFF"/>
<path d="M132.584 201.423C132.857 200.676 133.089 199.907 133.274 199.118L126.959 206.038C127.19 206.3 127.427 206.558 127.669 206.81L132.584 201.423Z" fill="#407BFF"/>
<path d="M130.09 206.157L128.626 207.761C128.659 207.792 128.691 207.826 128.725 207.857C129.212 207.318 129.665 206.749 130.09 206.157Z" fill="#407BFF"/>
<path d="M133.39 189.891C133.307 189.474 133.212 189.062 133.106 188.652L122.936 199.797C123.089 200.141 123.251 200.481 123.42 200.817L133.39 189.891Z" fill="#407BFF"/>
<path d="M133.701 196.651C133.762 196.1 133.797 195.541 133.815 194.976L125.449 204.144C125.657 204.431 125.87 204.714 126.089 204.992L133.701 196.651Z" fill="#407BFF"/>
<path d="M133.787 193.006C133.774 192.789 133.765 192.573 133.746 192.355C133.724 192.1 133.691 191.848 133.661 191.595L124.102 202.071C124.284 202.385 124.473 202.695 124.668 203L133.787 193.006Z" fill="#407BFF"/>
<path d="M163.241 241.5H100.321C98.5118 241.5 96.9168 240.033 96.7588 238.224C96.6008 236.415 97.9388 234.948 99.7478 234.948H162.668C164.477 234.948 166.072 236.415 166.23 238.224C166.388 240.033 165.05 241.5 163.241 241.5Z" fill="#407BFF"/>
<path d="M156.58 254.768H112.66C110.851 254.768 109.256 253.301 109.098 251.492C108.94 249.683 110.278 248.216 112.087 248.216H156.007C157.816 248.216 159.411 249.682 159.569 251.492C159.727 253.301 158.389 254.768 156.58 254.768Z" fill="#407BFF"/>
<path d="M163.241 241.5H100.321C98.5118 241.5 96.9168 240.033 96.7588 238.224C96.6008 236.415 97.9388 234.948 99.7478 234.948H162.668C164.477 234.948 166.072 236.415 166.23 238.224C166.388 240.033 165.05 241.5 163.241 241.5Z" fill="#407BFF"/>
<path d="M156.58 254.768H112.66C110.851 254.768 109.256 253.301 109.098 251.492C108.94 249.683 110.278 248.216 112.087 248.216H156.007C157.816 248.216 159.411 249.682 159.569 251.492C159.727 253.301 158.389 254.768 156.58 254.768Z" fill="#407BFF"/>
<path d="M234.615 394.328L240.864 392.356L238.34 378.028L232.092 380L234.615 394.328Z" fill="#CE7A63"/>
<path d="M241.025 391.549L234.004 393.764C233.749 393.845 233.597 394.078 233.639 394.325L234.579 399.834C234.677 400.405 235.343 400.765 235.929 400.569C238.363 399.757 239.498 399.249 242.585 398.274C244.484 397.675 252.605 395.318 255.228 394.491C257.793 393.681 257.178 391.165 256.013 391.287C250.786 391.836 244.273 392.373 242.19 391.582C241.814 391.441 241.399 391.431 241.025 391.549Z" fill="#263238"/>
<path opacity="0.2" d="M232.091 380.005L238.342 378.032L239.64 385.418L233.389 387.391L232.091 380.005Z" fill="black"/>
<path d="M229.971 234.949C229.971 234.949 234.052 286.952 235.021 305.092C236.083 324.957 241.999 383.055 241.999 383.055L230.448 386.171C230.448 386.171 219.263 329.871 216.388 310.56C213.267 289.601 207.14 234.949 207.14 234.949H229.971Z" fill="#263238"/>
<path d="M230.144 386.393L242.515 383.065L242.712 378.145L228.699 382.847L230.144 386.393Z" fill="#263238"/>
<path d="M243.491 391.909C242.914 392.091 242.248 392.177 241.774 392.217C241.715 392.222 241.661 392.192 241.638 392.141C241.614 392.089 241.624 392.026 241.664 391.979C241.832 391.781 243.322 390.047 244.154 390.098C244.347 390.109 244.497 390.211 244.588 390.392C244.738 390.69 244.738 390.968 244.588 391.218C244.396 391.536 243.975 391.756 243.491 391.909ZM242.126 391.886C243.295 391.75 244.11 391.456 244.335 391.082C244.428 390.927 244.423 390.751 244.318 390.544C244.27 390.448 244.204 390.401 244.11 390.396C243.663 390.368 242.745 391.208 242.126 391.886Z" fill="#407BFF"/>
<path d="M241.808 392.211C241.785 392.218 241.761 392.22 241.738 392.216C241.688 392.208 241.649 392.174 241.633 392.127C241.609 392.055 241.055 390.352 241.545 389.562C241.677 389.349 241.869 389.217 242.115 389.169C242.411 389.112 242.635 389.205 242.745 389.431C243.046 390.048 242.415 391.611 241.878 392.168C241.858 392.188 241.834 392.202 241.808 392.211ZM242.078 389.478C241.957 389.516 241.864 389.59 241.795 389.701C241.502 390.172 241.688 391.189 241.842 391.761C242.28 391.143 242.671 389.984 242.474 389.579C242.437 389.502 242.365 389.418 242.147 389.461C242.123 389.465 242.1 389.471 242.078 389.478Z" fill="#407BFF"/>
<path opacity="0.6" d="M215.632 251.084C213.25 241.798 210.822 244.017 209.089 248.038C209.272 250.89 209.465 253.891 209.667 256.987C211.087 269.175 212.886 284.272 214.464 296.475C217.397 284.338 218.962 264.042 215.632 251.084Z" fill="black"/>
<path d="M187.532 397.124H193.921L196.045 382.329H189.656L187.532 397.124Z" fill="#CE7A63"/>
<path d="M194.32 396.384H187.143C186.882 396.384 186.669 396.565 186.631 396.82L185.786 402.499C185.698 403.088 186.202 403.645 186.805 403.635C189.308 403.592 190.514 403.445 193.67 403.445C195.612 403.445 203.849 403.647 206.531 403.647C209.154 403.647 209.368 400.996 208.252 400.755C203.251 399.678 197.065 398.193 195.385 396.777C195.083 396.521 194.702 396.384 194.32 396.384Z" fill="#263238"/>
<path opacity="0.2" d="M189.654 382.333H196.045L194.947 389.959H188.556L189.654 382.333Z" fill="black"/>
<path d="M218.522 234.622C218.522 234.622 214.859 283.444 212.223 301.734C209.336 321.763 197.849 388.118 197.849 388.118H186.148C186.148 388.118 192.161 323.38 193.191 303.55C194.309 282.027 196.474 234.622 196.474 234.622H218.522Z" fill="#263238"/>
<path d="M185.676 388.118H198.32L199.41 383.678L185.394 384.372L185.676 388.118Z" fill="#263238"/>
<path d="M196.487 397.497C195.897 397.497 195.255 397.375 194.805 397.268C194.749 397.255 194.709 397.209 194.703 397.151C194.697 397.093 194.726 397.035 194.777 397.001C194.993 396.859 196.91 395.623 197.663 395.929C197.838 396 197.945 396.145 197.973 396.35C198.019 396.688 197.933 396.96 197.716 397.158C197.44 397.411 196.982 397.497 196.487 397.497ZM195.233 397.053C196.356 397.281 197.2 397.245 197.525 396.949C197.66 396.826 197.709 396.652 197.677 396.417C197.662 396.308 197.616 396.242 197.531 396.208C197.125 396.043 196.016 396.581 195.233 397.053Z" fill="#407BFF"/>
<path d="M194.838 397.272C194.815 397.272 194.792 397.267 194.771 397.255C194.728 397.232 194.701 397.186 194.701 397.135C194.702 397.057 194.719 395.22 195.418 394.599C195.606 394.431 195.825 394.362 196.067 394.391C196.358 394.426 196.536 394.587 196.567 394.842C196.653 395.539 195.584 396.872 194.915 397.251C194.891 397.266 194.865 397.272 194.838 397.272ZM195.938 394.683C195.814 394.683 195.705 394.726 195.607 394.814C195.19 395.184 195.045 396.237 195.01 396.843C195.606 396.374 196.329 395.361 196.272 394.904C196.262 394.817 196.221 394.713 196.007 394.687C195.983 394.684 195.96 394.683 195.938 394.683Z" fill="#407BFF"/>
<path d="M232.643 182.65C234.205 186.257 235.97 190.018 237.842 193.501C238.771 195.258 239.769 196.954 240.806 198.533C241.828 200.096 242.987 201.573 244.018 202.503C244.269 202.732 244.507 202.918 244.689 203.039C244.872 203.165 244.993 203.216 244.989 203.231C244.97 203.241 244.874 203.282 244.957 203.292C245.021 203.301 245.188 203.288 245.422 203.202C245.89 203.037 246.539 202.636 247.175 202.121C247.816 201.603 248.488 200.993 249.13 200.315C251.71 197.592 254.155 194.191 256.403 190.865L260.445 192.744C259.017 196.962 257.25 200.897 254.583 204.744C253.903 205.697 253.166 206.652 252.276 207.572C251.379 208.486 250.362 209.402 248.957 210.195C248.257 210.588 247.428 210.94 246.462 211.151C245.516 211.37 244.348 211.407 243.302 211.197C241.231 210.766 239.887 209.849 238.755 209.007C236.533 207.263 235.069 205.401 233.665 203.547C232.293 201.684 231.114 199.781 229.999 197.869C228.907 195.945 227.876 194.014 226.946 192.042C226.006 190.056 225.119 188.136 224.294 186.012L232.643 182.65Z" fill="#CE7A63"/>
<path d="M243.213 197.967L233.117 205.502C233.117 205.502 232.729 205.076 232.088 204.338C231.622 203.793 231.02 203.075 230.322 202.231C226.4 197.452 220.664 188.729 220.618 184.456C220.548 178.088 227.161 177.149 234.582 183.664C237.783 186.474 239.455 191.139 241.084 194.031C241.623 194.984 242.076 195.818 242.425 196.466C242.928 197.406 243.213 197.967 243.213 197.967Z" fill="#407BFF"/>
<path opacity="0.6" d="M243.213 197.967L233.117 205.502C233.117 205.502 232.729 205.076 232.088 204.338C231.622 203.793 231.02 203.075 230.322 202.231C226.4 197.452 220.664 188.729 220.618 184.456C220.548 178.088 227.161 177.149 234.582 183.664C237.783 186.474 239.455 191.139 241.084 194.031C241.623 194.984 242.076 195.818 242.425 196.466C242.928 197.406 243.213 197.967 243.213 197.967Z" fill="white"/>
<path opacity="0.3" d="M220.551 185.191C222.833 183.683 224.499 187.586 229.006 190.884C231.017 192.355 235.421 201.943 235.059 204.053L233.114 205.504C233.114 205.504 220.501 191.538 220.551 185.191Z" fill="black"/>
<path d="M255.931 191.13L258.129 184.104L263.834 188.285C263.834 188.285 260.719 194.546 258.606 193.978L255.931 191.13Z" fill="#CE7A63"/>
<path d="M243.213 196.987L232.178 205.237L233.553 206.674L244.053 198.924L243.213 196.987Z" fill="#407BFF"/>
<path opacity="0.8" d="M243.213 196.987L232.178 205.237L233.553 206.674L244.053 198.924L243.213 196.987Z" fill="white"/>
<path d="M230.606 234.949H196.439C196.198 231.899 196.904 221.971 196.379 209.33C196.025 200.842 195.112 191.13 192.984 181.462C192.829 180.772 192.674 180.092 192.51 179.402C192.51 179.402 194.242 179.048 196.724 178.687C198.784 178.385 201.369 178.075 203.902 177.954C208.262 177.747 214.579 177.61 218.422 177.954C220.654 178.161 222.834 178.532 224.575 178.867C226.798 179.315 228.108 179.698 228.108 179.698C228.108 179.698 236.525 199.023 230.606 234.949Z" fill="#407BFF"/>
<path opacity="0.6" d="M230.606 234.949H196.439C196.198 231.899 196.904 221.971 196.379 209.33C196.025 200.842 195.112 191.13 192.984 181.462C192.829 180.772 192.674 180.092 192.51 179.402C192.51 179.402 194.242 179.048 196.724 178.687C198.784 178.385 201.369 178.075 203.902 177.954C208.262 177.747 214.579 177.61 218.422 177.954C220.654 178.161 222.834 178.532 224.575 178.867C226.798 179.315 228.108 179.698 228.108 179.698C228.108 179.698 236.525 199.023 230.606 234.949Z" fill="white"/>
<path d="M264.14 181.414L267.351 185.351L263.833 188.285L258.128 184.104L264.14 181.414Z" fill="#CE7A63"/>
<path d="M197.585 186.071C197.246 188.243 196.812 190.228 196.338 192.29C195.871 194.335 195.308 196.364 194.683 198.398C194.042 200.428 193.325 202.455 192.451 204.492C191.548 206.525 190.557 208.564 189.007 210.655C188.197 211.689 187.268 212.771 185.788 213.752C185.047 214.232 184.133 214.681 183.063 214.917C181.998 215.161 180.796 215.133 179.755 214.874C177.645 214.312 176.358 213.147 175.399 212.136C174.434 211.094 173.767 210.041 173.19 209.002C172.046 206.929 171.294 204.871 170.676 202.808C170.365 201.778 170.107 200.743 169.888 199.703C169.663 198.655 169.465 197.649 169.322 196.537L173.621 195.36C175.261 198.812 177.099 202.443 179.177 205.138C179.696 205.793 180.242 206.37 180.715 206.75C181.184 207.147 181.596 207.222 181.473 207.111C181.418 207.061 181.252 207.044 181.167 207.037C181.078 207.033 181.087 207.035 181.18 206.948C181.372 206.786 181.787 206.317 182.165 205.725C182.962 204.521 183.706 202.879 184.338 201.182C184.988 199.477 185.556 197.67 186.071 195.83C187.105 192.172 187.992 188.278 188.713 184.577L197.585 186.071Z" fill="#CE7A63"/>
<path d="M174.133 195.77L171.935 188.744L166.23 192.925C166.23 192.925 169.345 199.186 171.458 198.618L174.133 195.77Z" fill="#CE7A63"/>
<path d="M165.923 186.054L162.712 189.991L166.23 192.925L171.935 188.744L165.923 186.054Z" fill="#CE7A63"/>
<path opacity="0.3" d="M196.378 209.332C196.024 200.844 195.111 191.132 192.983 181.464C195.267 181.266 199.17 181.49 199.817 185.178C200.514 189.142 199.635 198.466 196.378 209.332Z" fill="black"/>
<path d="M200.661 190.372C199.409 194.564 197.291 199.605 195.723 203.13C195.312 204.064 194.931 204.897 194.619 205.569C194.074 206.751 193.731 207.465 193.731 207.465L180.943 200.947C180.943 200.947 181.084 200.415 181.337 199.52C181.531 198.844 181.785 197.957 182.101 196.934C183.984 190.905 187.887 180.131 192.051 179.377C198.277 178.251 202.941 182.774 200.661 190.372Z" fill="#407BFF"/>
<path opacity="0.6" d="M200.661 190.372C199.409 194.564 197.291 199.605 195.723 203.13C195.312 204.064 194.931 204.897 194.619 205.569C194.074 206.751 193.731 207.465 193.731 207.465L180.943 200.947C180.943 200.947 181.084 200.415 181.337 199.52C181.531 198.844 181.785 197.957 182.101 196.934C183.984 190.905 187.887 180.131 192.051 179.377C198.277 178.251 202.941 182.774 200.661 190.372Z" fill="white"/>
<path d="M212.267 182.754C203.831 182.521 202.564 178.402 202.512 178.221L202.46 178.04C202.942 178.005 203.416 177.979 203.899 177.954C208.259 177.747 214.576 177.609 218.419 177.954C218.695 177.98 218.962 178.006 219.237 178.04C219.84 178.66 220.426 179.539 220.185 180.487C219.815 181.926 217.841 182.409 216.109 182.607L212.267 182.754Z" fill="white"/>
<path d="M181.242 198.654L195.22 205.799L193.637 207.737L180.644 200.987L181.242 198.654Z" fill="#407BFF"/>
<path opacity="0.8" d="M181.242 198.654L195.22 205.799L193.637 207.737L180.644 200.987L181.242 198.654Z" fill="white"/>
<path d="M211.557 183.383L217.22 182.754L215.97 186.549C215.97 186.549 219.857 206.805 220.618 213.632C221.073 217.716 221.47 230.049 221.47 230.049L218.522 233.299L214.137 231.216C214.137 231.216 214.239 217.341 214.22 212.716C214.193 206.174 213.887 186.549 213.887 186.549L211.352 184.103L211.557 183.383Z" fill="#263238"/>
<path d="M210.178 187.112L214.303 183.362L219.381 186.862C219.381 186.862 224.637 181.881 220.734 178.229C219.978 178.124 219.206 178.027 218.42 177.954C214.577 177.609 208.26 177.747 203.9 177.954C202.906 178.001 201.911 178.083 200.936 178.177C201.226 179.588 202.72 184.223 210.178 187.112Z" fill="#407BFF"/>
<path opacity="0.8" d="M210.178 187.112L214.303 183.362L219.381 186.862C219.381 186.862 224.637 181.881 220.734 178.229C219.978 178.124 219.206 178.027 218.42 177.954C214.577 177.609 208.26 177.747 203.9 177.954C202.906 178.001 201.911 178.083 200.936 178.177C201.226 179.588 202.72 184.223 210.178 187.112Z" fill="white"/>
<path d="M212.542 181.9C204.414 181.755 203.341 177.989 203.341 177.989C206.504 174.87 205.288 166.347 204.211 161.668L208.097 164.891L213.388 169.285C213.233 170 213.112 170.724 213.052 171.422C212.768 174.291 213.509 176.902 217.731 177.902C217.731 177.902 222.74 181.219 215.306 181.82L212.542 181.9Z" fill="#CE7A63"/>
<path opacity="0.2" d="M213.388 169.285C213.233 170 213.112 170.724 213.052 171.423C211.079 171.026 208.442 168.924 208.166 166.907C208.063 166.149 208.045 165.416 208.097 164.891L213.388 169.285Z" fill="black"/>
<path d="M202.609 154.938C203.96 161.15 204.435 164.844 208.104 167.679C213.623 171.943 220.938 168.155 221.474 161.73C221.956 155.947 219.666 146.759 213.131 145C206.692 143.266 201.258 148.726 202.609 154.938Z" fill="#CE7A63"/>
<path d="M212.41 155.554C212.488 156.064 212.823 156.444 213.158 156.405C213.492 156.365 213.7 155.92 213.621 155.41C213.542 154.9 213.208 154.52 212.873 154.559C212.539 154.599 212.331 155.044 212.41 155.554Z" fill="#263238"/>
<path d="M218.194 154.866C218.273 155.376 218.607 155.756 218.942 155.717C219.277 155.677 219.484 155.232 219.405 154.722C219.326 154.212 218.992 153.832 218.657 153.871C218.323 153.911 218.115 154.357 218.194 154.866Z" fill="#263238"/>
<path d="M216.394 155.339C216.394 155.339 218.011 158.14 219.511 159.406C218.736 160.355 217.137 160.153 217.137 160.153L216.394 155.339Z" fill="#BA4D3C"/>
<path d="M210.334 153.907C210.284 153.907 210.234 153.895 210.188 153.869C210.042 153.788 209.989 153.604 210.07 153.458C210.873 152.012 212.274 151.928 212.333 151.926C212.489 151.903 212.642 152.046 212.65 152.213C212.658 152.38 212.53 152.521 212.363 152.53C212.305 152.534 211.23 152.616 210.599 153.752C210.544 153.851 210.441 153.907 210.334 153.907Z" fill="#263238"/>
<path d="M220.375 152.59C220.278 152.59 220.183 152.544 220.125 152.458C219.35 151.321 218.224 151.3 218.213 151.3C218.046 151.299 217.911 151.163 217.912 150.996C217.913 150.829 218.048 150.695 218.215 150.695H218.217C218.276 150.695 219.674 150.72 220.625 152.117C220.719 152.255 220.684 152.444 220.546 152.537C220.492 152.573 220.433 152.59 220.375 152.59Z" fill="#263238"/>
<path d="M204.866 159.987C204.866 159.987 207.616 161.8 207.366 159.612C207.116 157.424 206.124 150.049 206.124 150.049L209.179 147.549C209.179 147.549 222.214 147.639 221.384 141.032C220.554 134.424 214.491 139.647 214.491 139.647C214.491 139.647 215.731 135.924 211.361 135.987C206.991 136.05 206.491 140.175 206.491 140.175C206.491 140.175 202.373 137.737 200.338 139.925C198.303 142.113 198.803 145.363 198.803 145.363C198.803 145.363 188.803 146.767 195.303 156.409C201.803 166.051 206.616 167.112 204.866 159.987Z" fill="#263238"/>
<path d="M201.177 161.421C202.288 162.756 203.817 163.543 205.119 163.766C207.078 164.1 207.519 162.285 206.524 160.532C205.628 158.954 203.529 156.879 201.779 157.342C200.056 157.797 199.907 159.895 201.177 161.421Z" fill="#CE7A63"/>
<path d="M210.303 168.157C209.412 165.901 208.178 161.925 209.49 158.487C210.802 155.049 215.615 160.986 217.303 160.987C218.991 160.987 220.414 158.356 221.421 160.172C222.428 161.988 218.118 172.394 217.206 169.662C217.206 169.662 215.99 171.53 214.865 169.821C214.865 169.821 214.111 171.259 212.927 169.821C212.927 169.821 211.253 170.561 210.303 168.157Z" fill="#263238"/>
<path opacity="0.3" d="M210.303 168.157C209.412 165.901 208.178 161.925 209.49 158.487C210.802 155.049 215.615 160.986 217.303 160.987C218.991 160.987 220.414 158.356 221.421 160.172C222.428 161.988 218.118 172.394 217.206 169.662C217.206 169.662 215.99 171.53 214.865 169.821C214.865 169.821 214.111 171.259 212.927 169.821C212.927 169.821 211.253 170.561 210.303 168.157Z" fill="white"/>
<path d="M218.865 161.841C218.865 161.841 216.973 161.351 211.626 161.206C212.209 162.83 213.342 164.173 216.081 164.222C218.821 164.271 218.865 161.841 218.865 161.841Z" fill="#263238"/>
<path d="M214.846 162.924C216.168 162.947 217.114 163.275 217.808 163.782C217.411 164.054 216.85 164.233 216.084 164.219C214.762 164.196 213.821 163.876 213.129 163.361C213.526 163.09 214.081 162.911 214.846 162.924Z" fill="#A02724"/>
<path d="M218.624 161.789C218.463 162.128 218.303 162.467 217.765 162.564C216.649 162.61 213.806 162.215 213.044 162.035C212.556 161.941 212.142 161.763 211.858 161.214C215.975 161.334 217.978 161.661 218.624 161.789Z" fill="white"/>
<path d="M407.955 237.589C407.581 237.498 407.115 237.836 406.914 238.411C406.713 238.987 406.85 239.571 407.234 239.663C407.618 239.754 408.084 239.407 408.285 238.841C408.513 238.265 408.33 237.68 407.955 237.589Z" fill="#2E353A"/>
<path d="M405.909 243.774C405.043 243.682 404.264 243.21 403.78 242.486C405.245 241.596 406.584 240.515 407.763 239.27L405.909 243.774Z" fill="#A02724"/>
<path d="M410.495 236.712C410.359 235.831 409.804 235.071 409.006 234.675C408.855 234.596 408.781 234.422 408.829 234.259C408.884 234.07 409.082 233.962 409.271 234.017C410.298 234.5 411.017 235.462 411.189 236.584C411.19 236.588 411.19 236.592 411.191 236.596C411.222 236.785 411.095 236.964 410.906 236.996C410.846 237.01 410.783 237.01 410.723 236.996C410.603 236.948 410.516 236.84 410.495 236.712Z" fill="#2E353A"/>
<path d="M424.632 264.476C425.02 266.212 425.284 267.034 423.732 267.783C420.458 269.472 416.853 270.069 413.311 269.51C409.617 268.88 408.958 267.564 409.113 266.504C409.26 265.645 410.036 265.124 410.812 264.732C412.389 264.154 413.482 262.464 413.536 260.52C413.629 259.652 413.714 257.916 413.482 257.661L420.086 253.294L425.068 247.739C423.864 252.225 423.639 260.045 424.632 264.476Z" fill="#B55B52"/>
<path d="M403.872 268.34C403.872 268.34 406.311 261.607 410.267 260.054C414.223 258.501 426.099 259.369 426.099 259.369C426.662 261.799 427.404 264.184 428.319 266.504L403.872 268.34Z" fill="#407BFF"/>
<path d="M428.102 240.3C427.932 234.752 423.296 230.394 417.749 230.564C410.111 230.838 405.644 240.65 404.959 247.337C404.201 254.764 411.509 260.986 418.516 257.605C423.175 255.358 424.473 251.301 427.277 244.605C427.866 243.248 428.147 241.778 428.102 240.3Z" fill="#B55B52"/>
<path opacity="0.2" d="M426.879 262.299C427.3 263.72 427.775 265.124 428.318 266.504L405.726 268.201C406.205 267.08 406.905 265.668 407.816 264.406C413.277 262.198 422.82 262.189 426.879 262.299Z" fill="black"/>
<path d="M422.742 254.708C421.913 254.522 420.706 254.431 419.094 254.74C417.88 254.972 416.656 254.401 416.12 253.287L412.551 245.866C412.551 245.866 407.434 244.166 413.702 233.939C413.702 233.939 401.766 229.993 410.583 221.885C419.4 213.777 413.702 224.74 413.702 224.74C413.702 224.74 424.845 218.738 419.273 226.339C419.273 226.339 436.3 227.198 432.075 236.418C432.075 236.418 439.122 236.559 425.372 253.759C424.744 254.545 423.724 254.928 422.742 254.708Z" fill="#263238"/>
<path d="M415.2 241.061C413.281 240.778 411.217 242.715 410.541 244.432C409.792 246.387 410.769 248.625 412.788 248.086C414.348 247.642 415.69 246.64 416.561 245.272C417.639 243.564 417.118 241.344 415.2 241.061Z" fill="#B55B52"/>
<path d="M425.366 273.211C426.243 274.954 427.212 276.856 428.083 278.703C428.953 280.571 429.831 282.43 430.626 284.3C431.436 286.162 432.188 288.029 432.827 289.868C433.473 291.689 434.015 293.531 434.266 295.101C434.403 295.867 434.443 296.579 434.427 296.929C434.424 297.011 434.422 297.072 434.426 297.092C434.427 297.096 434.435 297.116 434.442 297.097L434.459 297.084L434.514 296.993C434.675 296.767 433.711 297.891 433.019 298.369C432.312 298.855 431.509 299.352 430.669 299.832C427.274 301.74 423.35 303.452 419.572 305.191L420.841 310.471C423.133 310.296 425.305 309.986 427.521 309.542C429.729 309.101 431.933 308.554 434.169 307.777C435.291 307.391 436.423 306.955 437.582 306.38C438.746 305.79 439.943 305.16 441.269 304.01C441.919 303.42 442.638 302.693 443.295 301.513C443.374 301.365 443.46 301.2 443.525 301.06L443.69 300.673C443.804 300.407 443.881 300.167 443.965 299.917C444.123 299.423 444.231 298.958 444.315 298.511C444.628 296.736 444.577 295.284 444.475 293.922C444.218 291.226 443.64 288.904 443.003 286.635C442.339 284.385 441.574 282.234 440.751 280.128C439.91 278.031 439.034 275.972 438.064 273.964C437.091 271.936 436.144 269.997 434.991 267.96L425.366 273.211Z" fill="#B55B52"/>
<path d="M422.04 305.41L413.91 303.32L413.241 310.628C413.241 310.628 418.719 312.888 422.095 309.353L422.04 305.41Z" fill="#B55B52"/>
<path d="M410.636 304.393L408.909 310.289L413.242 310.628L413.911 303.32L410.636 304.393Z" fill="#B55B52"/>
<path d="M442.635 281.815L428.776 288.685C428.776 288.685 428.054 288.502 422.573 279.741C416.224 269.546 419.704 263.817 427.36 263.543C435.189 263.251 437.975 272.944 442.635 281.815Z" fill="#407BFF"/>
<path opacity="0.2" d="M438.318 283.955L431.688 287.242L428.319 283.264L432.06 273.273L433.103 272.131L435.704 271.755L438.318 283.955Z" fill="black"/>
<path d="M352.342 390.185L345.449 387.204L340.154 403.796L347.048 406.786L352.342 390.185Z" fill="#B55B52"/>
<path opacity="0.2" d="M352.342 390.185L345.449 387.204L342.806 395.495L349.774 398.229L352.342 390.185Z" fill="black"/>
<path d="M339.385 400.881C337.322 402.609 333.117 403.861 329.894 404.046C327.409 404.174 327.198 407.024 330.311 407.548C333.423 408.072 338.844 407.825 341.123 407.92C344.821 408.062 346.077 408.667 349.002 408.622C349.731 408.584 350.295 407.971 350.274 407.242L349.653 400.602C349.628 400.307 349.373 400.085 349.078 400.101L340.657 400.373C340.187 400.398 339.74 400.576 339.385 400.881Z" fill="#263238"/>
<path d="M415.286 321.696C415.286 321.696 421.073 328.557 416.407 339.416C411.138 351.725 383.192 346.315 367.929 350.241C365.754 371.975 353.067 394.279 353.067 394.279L342.462 390.12C342.462 390.12 347.059 372.811 350.507 342.147C352.201 327.057 390.494 325.402 390.494 325.402L415.286 321.696Z" fill="#263238"/>
<path d="M355.18 392.317L341.669 387.594L340.847 392.538L353.156 397.008L355.18 392.317Z" fill="#263238"/>
<path d="M384.97 397.3L377.533 396.944L378.748 414.503L386.185 414.859L384.97 397.3Z" fill="#B55B52"/>
<path d="M376.72 412.658C374.655 414.375 371.184 416.769 367.986 417.226C365.94 417.518 364.396 420.624 368.233 420.624C372.07 420.624 376.19 420.259 378.465 420.185C382.165 420.066 383.398 420.395 386.331 420.395H386.333C387.064 420.364 387.631 419.747 387.601 419.016L386.989 412.374C386.96 412.082 386.706 411.865 386.413 411.881L377.999 412.146C377.527 412.166 377.076 412.347 376.72 412.658Z" fill="#263238"/>
<path opacity="0.2" d="M385.646 406.984L378.237 406.993L377.533 396.953L384.97 397.31L385.646 406.984Z" fill="black"/>
<path d="M433.883 322.89C433.883 322.89 439.977 335.324 434.047 343.235C428.684 350.407 401.268 350.891 387.336 350.891C388.716 367.884 387.19 402.791 387.19 402.791L376.035 402.636C376.035 402.636 368.16 369.071 366.543 345.583C365.638 332.537 412.085 323.886 412.085 323.886L433.883 322.89Z" fill="#263238"/>
<path d="M388.716 400.48L373.386 400.032L374.053 404.609L388.131 404.81L388.716 400.48Z" fill="#263238"/>
<path d="M435.233 323.538L389.398 325.447L393.711 274.033C394.199 268.21 399.068 263.733 404.911 263.733H427.755C432.173 263.733 435.744 267.336 435.704 271.755L435.233 323.538Z" fill="#407BFF"/>
<path d="M396.203 271.433L394.947 274.145C394.511 275.073 394.059 275.998 393.595 276.917C392.654 278.747 391.719 280.577 390.709 282.35C389.719 284.132 388.676 285.873 387.583 287.541C386.502 289.218 385.35 290.817 384.143 292.284C383.546 293.027 382.928 293.723 382.297 294.374C382.297 294.374 381.936 294.705 381.224 294.518C380.501 294.335 379.656 294.061 378.803 293.7C375.353 292.248 371.675 289.972 368.164 287.815L364.473 291.798C365.941 293.636 367.456 295.261 369.14 296.847C370.819 298.422 372.605 299.926 374.691 301.274C375.738 301.946 376.852 302.605 378.168 303.148C379.489 303.677 380.985 304.208 383.102 304.215C384.157 304.201 385.414 303.993 386.66 303.389C387.27 303.108 387.896 302.673 388.374 302.275L389.095 301.66C390.044 300.833 390.937 299.979 391.773 299.101C395.115 295.575 397.77 291.77 400.158 287.866C401.326 285.901 402.45 283.923 403.458 281.891C403.967 280.877 404.462 279.857 404.943 278.826C405.439 277.779 405.859 276.79 406.335 275.613L396.203 271.433Z" fill="#B55B52"/>
<path d="M369.354 289.657L365.734 282.084L359.704 286.266C359.704 286.266 361.491 291.916 366.368 292.233L369.354 289.657Z" fill="#B55B52"/>
<path d="M362.807 280.263L357.179 282.727L359.703 286.266L365.733 282.084L362.807 280.263Z" fill="#B55B52"/>
<path d="M401.113 291.024L388.168 282.555C388.168 282.555 387.958 281.815 392.736 272.679C398.3 262.036 405.005 262.127 409.125 268.577C413.345 275.183 406.411 282.51 401.113 291.024Z" fill="#407BFF"/>
<path d="M456.974 420.351C457.417 420.11 457.581 419.555 457.34 419.112L421.995 354.072C421.754 353.629 421.199 353.465 420.756 353.705C420.313 353.946 420.149 354.501 420.39 354.944L455.735 419.984C455.976 420.427 456.531 420.592 456.974 420.351Z" fill="#407BFF"/>
<g opacity="0.2">
<path d="M456.974 420.351C457.417 420.11 457.581 419.555 457.34 419.112L421.995 354.072C421.754 353.629 421.199 353.465 420.756 353.705C420.313 353.946 420.149 354.501 420.39 354.944L455.735 419.984C455.976 420.427 456.531 420.592 456.974 420.351Z" fill="black"/>
</g>
<path opacity="0.2" d="M439.905 390.855L436.786 385.115L437.826 383.202L440.945 388.941L439.905 390.855Z" fill="black"/>
<path d="M406.465 420.351C406.908 420.11 407.072 419.555 406.831 419.112L371.486 354.072C371.245 353.629 370.69 353.465 370.247 353.705C369.804 353.946 369.64 354.501 369.881 354.944L405.226 419.984C405.467 420.427 406.022 420.592 406.465 420.351Z" fill="#407BFF"/>
<g opacity="0.2">
<path d="M406.465 420.351C406.908 420.11 407.072 419.555 406.831 419.112L371.486 354.072C371.245 353.629 370.69 353.465 370.247 353.705C369.804 353.946 369.64 354.501 369.881 354.944L405.226 419.984C405.467 420.427 406.022 420.592 406.465 420.351Z" fill="black"/>
</g>
<path opacity="0.2" d="M389.396 390.855L386.276 385.115L387.316 383.201L390.435 388.941L389.396 390.855Z" fill="black"/>
<path d="M371.486 419.984L406.831 354.944C407.072 354.501 406.908 353.946 406.465 353.705C406.022 353.464 405.467 353.628 405.226 354.072L369.881 419.112C369.64 419.555 369.804 420.11 370.247 420.351C370.69 420.592 371.245 420.427 371.486 419.984Z" fill="#407BFF"/>
<g opacity="0.2">
<path d="M371.486 419.984L406.831 354.944C407.072 354.501 406.908 353.946 406.465 353.705C406.022 353.464 405.467 353.628 405.226 354.072L369.881 419.112C369.64 419.555 369.804 420.11 370.247 420.351C370.69 420.592 371.245 420.427 371.486 419.984Z" fill="black"/>
</g>
<path d="M421.996 419.984L457.341 354.944C457.582 354.501 457.418 353.946 456.975 353.705C456.532 353.464 455.977 353.628 455.736 354.072L420.391 419.112C420.15 419.555 420.314 420.11 420.757 420.351C421.2 420.592 421.755 420.427 421.996 419.984Z" fill="#407BFF"/>
<g opacity="0.2">
<path d="M421.996 419.984L457.341 354.944C457.582 354.501 457.418 353.946 456.975 353.705C456.532 353.464 455.977 353.628 455.736 354.072L420.391 419.112C420.15 419.555 420.314 420.11 420.757 420.351C421.2 420.592 421.755 420.427 421.996 419.984Z" fill="black"/>
</g>
<path d="M414.521 350.819H373.472C370.869 350.819 368.758 352.93 368.758 355.533H414.521V350.819Z" fill="#407BFF"/>
<path d="M443.651 290.526C458.081 290.526 468.35 301.281 467.596 315.601L465.946 346.914C465.691 351.746 461.699 355.533 456.861 355.533H398.885L410.863 315.601C415.158 301.28 429.221 290.526 443.651 290.526Z" fill="#407BFF"/>
<path opacity="0.3" d="M443.651 290.526C458.081 290.526 468.35 301.281 467.596 315.601L465.946 346.914C465.691 351.746 461.699 355.533 456.861 355.533H398.885L410.863 315.601C415.158 301.28 429.221 290.526 443.651 290.526Z" fill="white"/>
<path d="M320.346 266.312C321.341 269.846 321.587 273.636 316.509 275.01C316.509 275.01 311.772 281.69 317.456 286.162C321.056 281.423 325.598 277.481 330.796 274.584C327.499 271.628 328.143 263.196 328.901 258.582L320.346 266.312Z" fill="#CE7A63"/>
<path d="M314.045 247.969C313.657 247.874 313.183 248.234 312.993 248.822C312.804 249.409 312.965 250.025 313.353 250.12C313.741 250.215 314.215 249.864 314.405 249.267C314.614 248.68 314.434 248.064 314.045 247.969Z" fill="#2E353A"/>
<path d="M312.918 247.182L314.206 248.054C313.287 248.537 312.918 247.182 312.918 247.182Z" fill="#2E353A"/>
<path d="M312.662 254.355C311.872 254.306 311.144 253.911 310.672 253.275C311.922 252.399 313.044 251.353 314.007 250.167L312.662 254.355Z" fill="#BA4D3C"/>
<path d="M315.448 244.084C316.223 244.608 316.691 245.479 316.699 246.415C316.699 246.418 316.699 246.422 316.699 246.425C316.694 246.624 316.851 246.789 317.05 246.794C317.057 246.795 317.063 246.795 317.07 246.795C317.264 246.8 317.424 246.647 317.429 246.453C317.429 245.272 316.853 244.165 315.885 243.488C315.722 243.37 315.495 243.403 315.373 243.564C315.309 243.675 315.309 243.813 315.373 243.924C315.381 243.983 315.407 244.039 315.448 244.084Z" fill="#2E353A"/>
<path d="M336.143 248.344C335.649 242.609 330.6 238.361 324.865 238.854C316.793 239.46 312.311 249.958 311.771 257.007C311.165 264.843 319.322 269.845 326.675 265.998C331.602 263.44 332.549 260.361 335.392 253.217C336.028 251.677 336.286 250.005 336.143 248.344Z" fill="#CE7A63"/>
<path d="M340.081 257.614C350.664 244.245 337.675 240.408 337.675 240.408C333.601 234.761 326.883 233.615 320.725 235.974C314.566 238.333 316.395 242.455 318.641 242.862C314.444 248.414 316.85 251.171 318.234 251.569C316.063 265.535 329.498 270.983 340.081 257.614Z" fill="#263238"/>
<path d="M321.66 251.99C321.835 250.509 320.776 249.167 319.294 248.992C317.248 248.784 315.665 251.219 315.22 252.962C314.718 254.895 315.798 256.676 317.807 256.041C319.323 255.546 320.581 254.469 321.303 253.047C321.494 252.724 321.616 252.363 321.66 251.99Z" fill="#CE7A63"/>
<path d="M332.759 275.602C332.759 275.602 330.611 274.217 330.797 271.73C330.797 271.73 315.988 269.574 312.915 272.914C312.915 272.914 317.363 272.677 315.587 276.348L332.759 275.602Z" fill="#407BFF"/>
<path opacity="0.6" d="M332.759 275.602C332.759 275.602 330.611 274.217 330.797 271.73C330.797 271.73 315.988 269.574 312.915 272.914C312.915 272.914 317.363 272.677 315.587 276.348L332.759 275.602Z" fill="white"/>
<path d="M317.428 319.224L317.342 323.045C321.972 323.601 326.636 323.828 331.299 323.724C333.767 323.688 336.227 323.422 338.647 322.931C339.362 322.772 340.064 322.559 340.748 322.294C341.169 322.134 341.578 321.94 341.967 321.714C342.516 321.406 343.015 321.017 343.447 320.56C343.755 320.219 344.018 319.841 344.232 319.434C344.351 319.188 344.453 318.935 344.54 318.676C344.598 318.407 344.64 318.135 344.665 317.861L344.8 316.98L345.068 315.229C345.588 310.574 345.859 305.986 346.063 301.397C346.267 296.808 346.382 292.235 346.358 287.63L338.552 287.653L338.326 301.219C338.219 305.736 338.132 310.257 337.896 314.677L337.799 316.152C337.513 316.279 337.227 316.404 336.927 316.494C334.913 317.071 332.858 317.497 330.78 317.767C326.426 318.425 321.901 318.806 317.428 319.224Z" fill="#CE7A63"/>
<path d="M331.876 285.156C331.876 289.884 334.718 298.724 334.718 298.724L346.438 291.514C346.959 285.46 345.709 277.681 339.9 275.786C335.96 274.507 331.924 280.125 331.876 285.156Z" fill="#263238"/>
<path opacity="0.6" d="M340.299 281.757L342.99 284.42L343.508 293.317L334.719 298.724C334.719 298.724 331.877 289.884 331.877 285.156C331.888 283.957 332.132 282.726 332.541 281.562L336.589 280.335L340.299 281.757Z" fill="black"/>
<path d="M306.662 321.352C306.335 320.587 306.691 319.702 307.456 319.375L310.777 317.966C311.492 317.67 312.285 317.616 313.034 317.813L320.279 319.765L321.17 322.211C320.041 325.019 315.253 324.488 315.253 324.488L311.804 325.542C310.916 325.817 309.95 325.521 309.369 324.796L306.863 321.691C306.781 321.587 306.714 321.473 306.662 321.352Z" fill="#CE7A63"/>
<path d="M311.942 275.673C313.449 275.417 315.021 275.18 316.556 274.991C321.277 274.514 326.027 274.371 330.768 274.565C333.099 274.612 335.392 274.783 337.4 274.991C337.454 274.997 337.508 275.003 337.562 275.011C341.193 275.493 343.746 278.826 343.265 282.458C340.422 302.734 339.181 311.365 340.006 322.952L308.626 323.9C304.969 304.998 303.481 293.733 302.998 287.101C302.582 281.552 306.458 276.601 311.942 275.673Z" fill="#263238"/>
<path d="M275.522 392.011L268.113 391.31L263.12 409.558L270.529 410.259L275.522 392.011Z" fill="#CE7A63"/>
<path d="M252.622 375.61L246.34 369.66L237.936 382.422L242.958 386.781L252.622 375.61Z" fill="#CE7A63"/>
<path d="M337.04 323.188C338.57 323.175 339.911 324.207 340.29 325.689C344.525 342.232 339.741 352.218 328.03 352.218C317.058 352.218 287.109 342.421 277.701 339.371C269.818 362.138 247.079 382.518 247.079 382.518L241.11 377.042C241.11 377.042 254.355 351.517 263.508 328.864C268.766 315.837 319.569 323.359 319.569 323.359C319.569 323.359 329.669 323.188 337.04 323.188Z" fill="#407BFF"/>
<path opacity="0.6" d="M337.04 323.188C338.57 323.175 339.911 324.207 340.29 325.689C344.525 342.232 339.741 352.218 328.03 352.218C317.058 352.218 287.109 342.421 277.701 339.371C269.818 362.138 247.079 382.518 247.079 382.518L241.11 377.042C241.11 377.042 254.355 351.517 263.508 328.864C268.766 315.837 319.569 323.359 319.569 323.359C319.569 323.359 329.669 323.188 337.04 323.188Z" fill="white"/>
<path d="M329.366 322.932C341.294 338.679 340.347 352.18 328.03 352.18C317.058 352.18 303.368 352.824 288.512 351.877C285.243 375.781 272.794 403.627 272.794 403.627L264.58 402.859C264.58 402.859 272.074 367.917 272.652 343.482C273.012 328.711 314.7 329.971 314.7 329.971C314.7 329.971 322.051 322.97 329.366 322.932Z" fill="#407BFF"/>
<path opacity="0.6" d="M329.366 322.932C341.294 338.679 340.347 352.18 328.03 352.18C317.058 352.18 303.368 352.824 288.512 351.877C285.243 375.781 272.794 403.627 272.794 403.627L264.58 402.859C264.58 402.859 272.074 367.917 272.652 343.482C273.012 328.711 314.7 329.971 314.7 329.971C314.7 329.971 322.051 322.97 329.366 322.932Z" fill="white"/>
<path d="M339.901 320.838L308.123 321.786C307.81 321.795 307.602 321.975 307.602 322.165L307.962 325.007C307.99 325.178 308.227 325.301 308.512 325.301L340.801 324.354C341.171 324.344 341.417 324.117 341.303 323.899L340.412 321.114C340.31 320.929 340.111 320.822 339.901 320.838Z" fill="#263238"/>
<path d="M282.69 308.509C285.735 310.473 288.923 312.207 292.226 313.696C293.954 314.482 295.738 315.143 297.561 315.671C298.638 315.986 299.747 316.178 300.868 316.244C301.717 316.292 302.569 316.181 303.377 315.918C304.066 315.683 304.696 315.3 305.222 314.797C305.381 314.644 305.528 314.48 305.661 314.304L305.856 314.023L306.004 313.807L306.19 313.47C308.147 310.07 309.522 306.366 310.256 302.512C310.636 300.67 310.917 298.808 311.098 296.936C311.182 295.963 311.25 295.069 311.301 294.13C311.352 293.191 311.362 292.297 311.337 291.246L303.563 291.361C303.548 292.044 303.508 292.934 303.472 293.726C303.437 294.519 303.372 295.373 303.292 296.192C303.142 297.828 302.944 299.463 302.686 301.087C302.418 302.666 302.07 304.23 301.643 305.774C301.292 307.017 300.834 308.226 300.311 309.406C299.869 309.396 299.427 309.363 298.992 309.28C297.39 309 295.806 308.629 294.246 308.17C290.997 307.242 287.665 306.146 284.389 305.05L282.69 308.509Z" fill="#CE7A63"/>
<path d="M315.564 285.117C317.887 288.708 312.468 297.935 312.468 297.935L302.697 296.845C302.697 296.845 300.725 284.553 305.48 279.5C308.049 276.795 313.132 281.381 315.564 285.117Z" fill="#263238"/>
<path d="M276.133 306.097C276.131 306.096 276.128 306.095 276.128 306.095C275.89 306.016 275.76 305.759 275.839 305.52L280.974 290.158C281.059 289.923 281.314 289.797 281.552 289.873C281.554 289.874 281.557 289.875 281.557 289.875C281.795 289.954 281.925 290.211 281.846 290.45L276.72 305.81C276.661 305.969 276.523 306.086 276.357 306.118C276.282 306.131 276.205 306.124 276.133 306.097Z" fill="#2E353A"/>
<path d="M277.687 297.43C276.795 297.357 276.013 298.02 275.94 298.912L275.5 303.166C275.431 303.823 275.768 304.456 276.352 304.766L279.937 306.657C279.937 306.657 286.089 312.464 288.733 311.003L286.83 306.856L283.115 300.447C282.698 299.716 282.049 299.145 281.271 298.824L278.188 297.553C278.029 297.486 277.86 297.444 277.687 297.43Z" fill="#CE7A63"/>
<path d="M237.841 379.596C235.337 379.402 231.714 377.491 229.443 375.511C227.702 373.974 225.7 375.738 227.434 378.119C229.168 380.5 232.945 383.875 234.403 385.426C236.777 387.935 237.22 389.159 239.2 391.039C239.711 391.489 240.488 391.449 240.95 390.949L244.871 386.114C245.047 385.901 245.022 385.587 244.814 385.404L239.019 380.087C238.692 379.798 238.277 379.625 237.841 379.596Z" fill="#407BFF"/>
<path d="M262.496 409.103C260.738 410.89 257.735 413.435 254.808 414.155C252.934 414.616 251.789 417.644 255.352 417.289C258.916 416.933 262.708 416.212 264.814 415.933C268.24 415.48 269.415 415.671 272.139 415.399H272.141C272.817 415.303 273.287 414.676 273.19 414L272.006 407.888C271.952 407.619 271.696 407.441 271.426 407.483L263.636 408.509C263.2 408.572 262.798 408.781 262.496 409.103Z" fill="#407BFF"/>
<path d="M360.328 420.513C360.771 420.272 360.935 419.717 360.695 419.274L325.35 354.235C325.109 353.792 324.554 353.627 324.111 353.868C323.668 354.109 323.504 354.664 323.745 355.107L359.09 420.147C359.33 420.59 359.885 420.754 360.328 420.513Z" fill="#407BFF"/>
<g opacity="0.2">
<path d="M360.328 420.513C360.771 420.272 360.935 419.717 360.695 419.274L325.35 354.235C325.109 353.792 324.554 353.627 324.111 353.868C323.668 354.109 323.504 354.664 323.745 355.107L359.09 420.147C359.33 420.59 359.885 420.754 360.328 420.513Z" fill="black"/>
</g>
<path opacity="0.2" d="M343.259 391.017L340.14 385.277L341.18 383.364L344.299 389.103L343.259 391.017Z" fill="black"/>
<path d="M309.819 420.513C310.262 420.272 310.426 419.717 310.185 419.274L274.84 354.235C274.599 353.792 274.044 353.627 273.601 353.868C273.158 354.109 272.994 354.664 273.234 355.107L308.579 420.147C308.821 420.59 309.375 420.754 309.819 420.513Z" fill="#407BFF"/>
<g opacity="0.2">
<path d="M309.819 420.513C310.262 420.272 310.426 419.717 310.185 419.274L274.84 354.235C274.599 353.792 274.044 353.627 273.601 353.868C273.158 354.109 272.994 354.664 273.234 355.107L308.579 420.147C308.821 420.59 309.375 420.754 309.819 420.513Z" fill="black"/>
</g>
<path opacity="0.2" d="M292.75 391.017L289.631 385.277L290.67 383.364L293.789 389.103L292.75 391.017Z" fill="black"/>
<path d="M274.84 420.146L310.185 355.106C310.426 354.663 310.262 354.108 309.819 353.867C309.376 353.626 308.821 353.79 308.58 354.234L273.235 419.273C272.994 419.716 273.158 420.271 273.602 420.512C274.044 420.754 274.599 420.59 274.84 420.146Z" fill="#407BFF"/>
<g opacity="0.2">
<path d="M274.84 420.146L310.185 355.106C310.426 354.663 310.262 354.108 309.819 353.867C309.376 353.626 308.821 353.79 308.58 354.234L273.235 419.273C272.994 419.716 273.158 420.271 273.602 420.512C274.044 420.754 274.599 420.59 274.84 420.146Z" fill="black"/>
</g>
<path d="M325.349 420.146L360.694 355.106C360.935 354.663 360.771 354.108 360.327 353.867C359.884 353.626 359.329 353.79 359.088 354.234L323.743 419.273C323.502 419.716 323.666 420.271 324.109 420.512C324.554 420.754 325.109 420.59 325.349 420.146Z" fill="#407BFF"/>
<g opacity="0.2">
<path d="M325.349 420.146L360.694 355.106C360.935 354.663 360.771 354.108 360.327 353.867C359.884 353.626 359.329 353.79 359.088 354.234L323.743 419.273C323.502 419.716 323.666 420.271 324.109 420.512C324.554 420.754 325.109 420.59 325.349 420.146Z" fill="black"/>
</g>
<path d="M317.875 350.981H276.827C274.223 350.981 272.113 353.092 272.113 355.695H317.876V350.981H317.875Z" fill="#407BFF"/>
<path d="M347.005 290.688C361.434 290.688 371.704 301.443 370.95 315.763L369.3 347.076C369.045 351.908 365.053 355.695 360.215 355.695H302.239L314.217 315.763C318.513 301.443 332.575 290.688 347.005 290.688Z" fill="#407BFF"/>
<path opacity="0.3" d="M347.005 290.688C361.434 290.688 371.704 301.443 370.95 315.763L369.3 347.076C369.045 351.908 365.053 355.695 360.215 355.695H302.239L314.217 315.763C318.513 301.443 332.575 290.688 347.005 290.688Z" fill="white"/>
</svg>
