<svg width="467" height="386" viewBox="0 0 467 386" fill="none" xmlns="http://www.w3.org/2000/svg">
<path d="M313.965 168.697C306.337 168.697 300.153 174.881 300.153 182.509C300.153 190.137 306.337 196.321 313.965 196.321C321.593 196.321 327.777 190.137 327.777 182.509C327.777 174.881 321.593 168.697 313.965 168.697ZM313.965 190.842C309.363 190.842 305.632 187.111 305.632 182.509C305.632 177.907 309.363 174.176 313.965 174.176C318.567 174.176 322.298 177.907 322.298 182.509C322.298 187.111 318.567 190.842 313.965 190.842Z" fill="#5F99B2"/>
<path d="M317.177 164.569H311.826V171.806H317.177V164.569Z" fill="#5F99B2"/>
<path d="M295.856 179.171L295.856 184.522L303.093 184.522L303.093 179.171L295.856 179.171Z" fill="#5F99B2"/>
<path d="M324.601 179.834L324.601 185.185L331.838 185.185L331.838 179.834L324.601 179.834Z" fill="#5F99B2"/>
<path d="M328.447 171.293L324.812 167.366L319.502 172.283L323.137 176.209L328.447 171.293Z" fill="#5F99B2"/>
<path d="M305.109 175.717L308.744 171.79L303.434 166.874L299.799 170.801L305.109 175.717Z" fill="#5F99B2"/>
<path d="M317.026 193.505H311.675V200.742H317.026V193.505Z" fill="#5F99B2"/>
<path d="M323.922 188.059L320.287 191.985L325.598 196.901L329.233 192.975L323.922 188.059Z" fill="#5F99B2"/>
<path d="M298.98 193.82L302.615 197.747L307.926 192.831L304.291 188.904L298.98 193.82Z" fill="#5F99B2"/>
<path d="M54.4565 258.056C46.8285 258.056 40.6445 264.24 40.6445 271.868C40.6445 279.496 46.8285 285.68 54.4565 285.68C62.0845 285.68 68.2685 279.496 68.2685 271.868C68.2685 264.24 62.0845 258.056 54.4565 258.056ZM54.4565 280.201C49.8545 280.201 46.1235 276.47 46.1235 271.868C46.1235 267.266 49.8545 263.535 54.4565 263.535C59.0585 263.535 62.7895 267.266 62.7895 271.868C62.7895 276.47 59.0585 280.201 54.4565 280.201Z" fill="#5F99B2"/>
<path d="M57.6664 253.928H52.3154V261.165H57.6664V253.928Z" fill="#5F99B2"/>
<path d="M36.3467 268.53L36.3467 273.881L43.5837 273.881L43.5837 268.53L36.3467 268.53Z" fill="#5F99B2"/>
<path d="M65.0908 269.192L65.0908 274.543L72.3278 274.543L72.3278 269.192L65.0908 269.192Z" fill="#5F99B2"/>
<path d="M68.9494 260.656L65.3145 256.729L60.0039 261.646L63.6389 265.572L68.9494 260.656Z" fill="#5F99B2"/>
<path d="M45.5926 265.086L49.2275 261.16L43.917 256.244L40.2821 260.17L45.5926 265.086Z" fill="#5F99B2"/>
<path d="M57.5151 282.864H52.1641V290.101H57.5151V282.864Z" fill="#5F99B2"/>
<path d="M64.4201 277.407L60.7852 281.334L66.0957 286.25L69.7306 282.323L64.4201 277.407Z" fill="#5F99B2"/>
<path d="M39.4578 283.175L43.0928 287.101L48.4033 282.185L44.7683 278.259L39.4578 283.175Z" fill="#5F99B2"/>
<path d="M421.777 248.168C415.82 248.168 410.991 252.997 410.991 258.954C410.991 264.911 415.82 269.74 421.777 269.74C427.734 269.74 432.563 264.911 432.563 258.954C432.563 252.997 427.734 248.168 421.777 248.168ZM421.777 265.462C418.183 265.462 415.27 262.549 415.27 258.955C415.27 255.361 418.183 252.448 421.777 252.448C425.371 252.448 428.284 255.361 428.284 258.955C428.284 262.549 425.371 265.462 421.777 265.462Z" fill="#5F99B2"/>
<path d="M424.285 244.945H420.106V250.597H424.285V244.945Z" fill="#5F99B2"/>
<path d="M407.635 256.348L407.635 260.527L413.287 260.527L413.287 256.348L407.635 256.348Z" fill="#5F99B2"/>
<path d="M430.083 256.865L430.083 261.044L435.735 261.044L435.735 256.865L430.083 256.865Z" fill="#5F99B2"/>
<path d="M433.084 250.187L430.245 247.12L426.098 250.96L428.936 254.026L433.084 250.187Z" fill="#5F99B2"/>
<path d="M414.871 253.651L417.71 250.584L413.563 246.745L410.724 249.811L414.871 253.651Z" fill="#5F99B2"/>
<path d="M424.167 267.542H419.988V273.194H424.167V267.542Z" fill="#5F99B2"/>
<path d="M429.543 263.289L426.704 266.355L430.852 270.195L433.69 267.128L429.543 263.289Z" fill="#5F99B2"/>
<path d="M410.076 267.797L412.915 270.864L417.062 267.024L414.224 263.958L410.076 267.797Z" fill="#5F99B2"/>
<path d="M343.665 22.288C337.708 22.288 332.879 27.117 332.879 33.074C332.879 39.031 337.708 43.86 343.665 43.86C349.622 43.86 354.451 39.031 354.451 33.074C354.451 27.117 349.622 22.288 343.665 22.288ZM343.665 39.581C340.071 39.581 337.158 36.668 337.158 33.074C337.158 29.48 340.071 26.567 343.665 26.567C347.259 26.567 350.172 29.48 350.172 33.074C350.173 36.668 347.259 39.581 343.665 39.581Z" fill="#5F99B2"/>
<path d="M346.173 19.064H341.994V24.716H346.173V19.064Z" fill="#5F99B2"/>
<path d="M329.522 30.4669L329.522 34.6459L335.174 34.6459L335.174 30.4669L329.522 30.4669Z" fill="#5F99B2"/>
<path d="M351.971 30.9838L351.971 35.1628L357.623 35.1628L357.623 30.9838L351.971 30.9838Z" fill="#5F99B2"/>
<path d="M354.968 24.3168L352.129 21.2503L347.981 25.0897L350.82 28.1562L354.968 24.3168Z" fill="#5F99B2"/>
<path d="M336.75 27.7633L339.589 24.6967L335.441 20.8573L332.603 23.9239L336.75 27.7633Z" fill="#5F99B2"/>
<path d="M346.055 41.661H341.876V47.313H346.055V41.661Z" fill="#5F99B2"/>
<path d="M351.439 37.4137L348.601 40.4802L352.748 44.3196L355.587 41.2531L351.439 37.4137Z" fill="#5F99B2"/>
<path d="M331.968 41.9054L334.807 44.972L338.954 41.1326L336.115 38.066L331.968 41.9054Z" fill="#5F99B2"/>
<path d="M64.2792 12.983C58.3222 12.983 53.4932 17.812 53.4932 23.769C53.4932 29.726 58.3222 34.555 64.2792 34.555C70.2362 34.555 75.0652 29.726 75.0652 23.769C75.0652 17.812 70.2362 12.983 64.2792 12.983ZM64.2792 30.276C60.6852 30.276 57.7722 27.363 57.7722 23.769C57.7722 20.175 60.6852 17.262 64.2792 17.262C67.8732 17.262 70.7862 20.175 70.7862 23.769C70.7862 27.363 67.8732 30.276 64.2792 30.276Z" fill="#5F99B2"/>
<path d="M66.7864 9.759H62.6074V15.411H66.7864V9.759Z" fill="#5F99B2"/>
<path d="M50.1367 21.162L50.1367 25.341L55.7887 25.341L55.7887 21.162L50.1367 21.162Z" fill="#5F99B2"/>
<path d="M72.584 21.679L72.584 25.858L78.236 25.858L78.236 21.679L72.584 21.679Z" fill="#5F99B2"/>
<path d="M75.5907 15.0192L72.752 11.9526L68.6045 15.792L71.4433 18.8586L75.5907 15.0192Z" fill="#5F99B2"/>
<path d="M57.3526 18.4661L60.1914 15.3996L56.044 11.5602L53.2052 14.6267L57.3526 18.4661Z" fill="#5F99B2"/>
<path d="M66.6673 32.356H62.4883V38.008H66.6673V32.356Z" fill="#5F99B2"/>
<path d="M72.0634 28.1014L69.2246 31.168L73.372 35.0074L76.2108 31.9409L72.0634 28.1014Z" fill="#5F99B2"/>
<path d="M52.5723 32.5936L55.4111 35.6602L59.5586 31.8208L56.7198 28.7542L52.5723 32.5936Z" fill="#5F99B2"/>
<path d="M391.46 296.675C391.46 296.675 378.506 296.816 371.905 306.333C365.304 315.851 365.537 331.152 371.493 341.286C377.449 351.421 390.552 338.472 390.552 338.472L391.46 296.675Z" fill="#7FBDD3"/>
<path d="M391.46 296.675C391.46 296.675 376.978 303.356 375.772 320.455C374.566 337.554 383.02 343.775 383.02 343.775C383.02 343.775 389.754 346.393 390.359 343.33C390.964 340.268 383.855 325.908 391.46 296.675Z" fill="#71A8C6"/>
<path d="M394.331 296.675C394.331 296.675 407.285 296.816 413.886 306.333C420.487 315.851 420.254 331.152 414.298 341.286C408.342 351.421 395.239 338.472 395.239 338.472L394.331 296.675Z" fill="#7FBDD3"/>
<path d="M394.331 296.675C394.331 296.675 408.813 303.356 410.019 320.455C411.225 337.554 402.771 343.775 402.771 343.775C402.771 343.775 396.037 346.393 395.432 343.33C394.827 340.268 401.936 325.908 394.331 296.675Z" fill="#71A8C6"/>
<path d="M388.778 343.629C388.778 343.629 381.107 327.402 385.953 310.975C390.799 294.548 391.783 296.394 393.573 296.355C396.19 296.298 401.395 312.762 400.529 328.011C399.663 343.26 395.86 344.421 395.86 344.421L388.778 343.629Z" fill="#7FBDD3"/>
<path d="M388.871 304.826L391.575 309.031C391.899 309.487 392.055 309.669 392.421 309.668C392.767 309.667 392.963 309.578 393.364 309.137L396.103 304.826L393.104 308.33L392.784 300.428L392.024 308.133L388.871 304.826Z" fill="white"/>
<path d="M388.871 318.08L391.575 322.285C391.899 322.741 392.055 322.923 392.421 322.922C392.767 322.921 392.963 322.832 393.364 322.391L396.103 318.08L393.104 321.584L392.784 313.682L392.024 321.387L388.871 318.08Z" fill="white"/>
<path d="M389.471 332.241L392.175 336.446C392.499 336.902 392.655 337.084 393.021 337.083C393.367 337.082 393.563 336.993 393.964 336.552L396.703 332.241L393.704 335.745L393.384 327.843L392.624 335.548L389.471 332.241Z" fill="white"/>
<path d="M400.744 295.379L402.54 300.032C402.765 300.543 402.881 300.752 403.239 300.823C403.578 300.891 403.788 300.842 404.27 300.489L407.829 296.806L404.179 299.648L405.469 291.843L403.161 299.243L400.744 295.379Z" fill="white"/>
<path d="M410.594 303.446L412.39 308.099C412.615 308.61 412.731 308.819 413.089 308.89C413.428 308.958 413.638 308.909 414.12 308.556L417.679 304.873L414.029 307.715L415.319 299.91L413.011 307.31L410.594 303.446Z" fill="white"/>
<path d="M402.067 305.696L403.863 310.349C404.088 310.86 404.204 311.069 404.562 311.14C404.901 311.208 405.111 311.159 405.593 310.806L409.152 307.123L405.502 309.965L406.792 302.16L404.484 309.56L402.067 305.696Z" fill="white"/>
<path d="M414.731 316.713L416.527 321.366C416.752 321.877 416.868 322.086 417.226 322.157C417.565 322.225 417.775 322.176 418.257 321.823L421.816 318.14L418.166 320.982L419.456 313.177L417.148 320.577L414.731 316.713Z" fill="white"/>
<path d="M406.763 323.467L407.757 328.348C407.893 328.888 407.973 329.113 408.314 329.242C408.637 329.364 408.852 329.35 409.387 329.08L413.513 326.025L409.438 328.235L412.015 320.746L408.502 327.669L406.763 323.467Z" fill="white"/>
<path d="M413.009 332.49L414.805 337.143C415.03 337.654 415.146 337.863 415.504 337.934C415.843 338.002 416.053 337.953 416.535 337.6L420.094 333.917L416.444 336.759L417.734 328.954L415.426 336.354L413.009 332.49Z" fill="white"/>
<path d="M382.172 296.644L380.737 301.417C380.552 301.943 380.452 302.16 380.1 302.258C379.767 302.351 379.554 302.317 379.046 302.001L375.216 298.593L379.073 301.155L377.189 293.468L380.057 300.675L382.172 296.644Z" fill="white"/>
<path d="M372.969 305.421L371.534 310.194C371.349 310.72 371.249 310.937 370.897 311.035C370.564 311.128 370.351 311.094 369.843 310.778L366.013 307.37L369.87 309.932L367.986 302.245L370.854 309.452L372.969 305.421Z" fill="white"/>
<path d="M382.137 309.838L380.702 314.611C380.517 315.137 380.417 315.354 380.065 315.452C379.732 315.545 379.519 315.511 379.011 315.195L375.181 311.787L379.038 314.349L377.154 306.662L380.022 313.869L382.137 309.838Z" fill="white"/>
<path d="M380.58 324.46L379.145 329.233C378.96 329.759 378.86 329.976 378.508 330.074C378.175 330.167 377.962 330.133 377.454 329.817L373.624 326.409L377.481 328.971L375.597 321.284L378.465 328.491L380.58 324.46Z" fill="white"/>
<path d="M369.857 318.958L368.422 323.731C368.237 324.257 368.137 324.474 367.785 324.572C367.452 324.665 367.239 324.631 366.731 324.315L362.901 320.907L366.758 323.469L364.874 315.782L367.742 322.989L369.857 318.958Z" fill="white"/>
<path d="M372.539 334.028L371.912 338.968C371.816 339.517 371.754 339.747 371.423 339.9C371.11 340.045 370.894 340.046 370.341 339.816L365.999 337.069L370.228 338.977L367.099 331.695L371.119 338.345L372.539 334.028Z" fill="white"/>
<path d="M391.151 299.711C391.151 299.711 386.039 299.319 384.371 295.952C382.703 292.584 381.988 288.355 382.862 288.903C383.736 289.451 389.693 293.162 390.249 294.283C390.805 295.404 391.361 286.24 393.029 284.204C394.697 282.168 396.097 293.873 395.794 294.365C395.491 294.856 400.258 288.904 401.925 287.651C403.592 286.396 401.981 300.102 391.151 299.711Z" fill="#629DB7"/>
<path d="M195.171 64.56C212.867 64.56 227.213 50.2143 227.213 32.518C227.213 14.8217 212.867 0.476013 195.171 0.476013C177.475 0.476013 163.129 14.8217 163.129 32.518C163.129 50.2143 177.475 64.56 195.171 64.56Z" fill="#71A8C6"/>
<path d="M195.171 59.934C210.312 59.934 222.587 47.6595 222.587 32.518C222.587 17.3766 210.312 5.10202 195.171 5.10202C180.029 5.10202 167.755 17.3766 167.755 32.518C167.755 47.6595 180.029 59.934 195.171 59.934Z" fill="#FEFFFF"/>
<path d="M196.006 5.892H194.336V12.392H196.006V5.892Z" fill="#71A8C6"/>
<path d="M196.006 52.934H194.336V58.814H196.006V52.934Z" fill="#71A8C6"/>
<path d="M168.71 31.5177L168.71 33.1877L175.092 33.1877L175.092 31.5177L168.71 31.5177Z" fill="#71A8C6"/>
<path d="M215.905 31.5179L215.905 33.1879L221.632 33.1879L221.632 31.5179L215.905 31.5179Z" fill="#71A8C6"/>
<path d="M180.379 18.028L179.44 19.43L174.977 15.398L176.097 14.159L180.379 18.028Z" fill="#71A8C6"/>
<path d="M215.365 49.637L214.246 50.876L210.1 47.131L211.339 46L215.365 49.637Z" fill="#71A8C6"/>
<path d="M208.645 16.882L209.64 18.242L214.011 14.049L212.855 12.844L208.645 16.882Z" fill="#71A8C6"/>
<path d="M174.662 49.477L175.818 50.682L180.23 46.45L179.016 45.301L174.662 49.477Z" fill="#71A8C6"/>
<path d="M194.337 33.1277H196.007V15.5427H194.337V33.1277Z" fill="#71A8C6"/>
<path d="M205.596 31.518H194.336V33.188H205.596V31.518Z" fill="#71A8C6"/>
<path d="M404.434 222.135L404.409 219.135L410.409 219.086L410.434 222.086L404.434 222.135ZM414.434 222.053L414.409 219.053L420.409 219.003L420.434 222.003L414.434 222.053ZM424.433 221.971L424.408 218.971L430.408 218.921L430.433 221.921L424.433 221.971ZM434.637 221.791L434.194 218.824C435.827 218.58 437.31 217.743 438.373 216.466L440.68 218.385C439.145 220.228 436.998 221.438 434.637 221.791ZM442.718 214.171L439.782 213.554C439.878 213.101 439.926 212.633 439.926 212.164V207.875H442.926V212.164C442.926 212.84 442.856 213.515 442.718 214.171ZM442.926 203.875H439.926V197.875H442.926V203.875ZM442.926 193.874H439.926V187.874H442.926V193.874ZM442.926 183.874H439.926V177.874H442.926V183.874ZM442.926 173.874H439.926V167.874H442.926V173.874ZM442.926 163.874H439.926V157.874H442.926V163.874ZM442.926 153.874H439.926V147.874H442.926V153.874ZM442.926 143.874H439.926V137.874H442.926V143.874ZM442.926 133.874H439.926V127.874H442.926V133.874ZM442.926 123.874H439.926V117.874H442.926V123.874ZM442.926 113.874H439.926V107.874H442.926V113.874ZM439.739 104.278C439.331 102.732 438.28 101.419 436.855 100.677L438.24 98.016C440.414 99.147 442.017 101.151 442.639 103.513L439.739 104.278ZM433.678 100.037H427.678V97.037H433.678V100.037ZM423.678 100.037H417.678V97.037H423.678V100.037Z" fill="white"/>
<path d="M466.092 360.857H0V364.675H466.092V360.857Z" fill="#3A1751"/>
<path d="M410.885 385.457H374.552L369.984 340.076H415.552L410.885 385.457Z" fill="white"/>
<path d="M154.231 66.395C154.231 53.405 137.325 42.875 116.469 42.875C95.613 42.875 78.707 53.405 78.707 66.395C78.707 79.385 95.613 89.915 116.469 89.915C120.105 89.915 123.616 89.588 126.943 88.991L126.911 89.001L139.603 96.746L138.86 85.335L138.837 85.342C148.172 81.06 154.231 74.17 154.231 66.395Z" fill="#FEFFFF"/>
<path d="M99.9566 79.35H132.983C134.169 79.35 135.13 78.389 135.13 77.203V55.586C135.13 54.4 134.169 53.439 132.983 53.439H99.9566C98.7706 53.439 97.8096 54.4 97.8096 55.586V77.203C97.8096 78.389 98.7706 79.35 99.9566 79.35Z" fill="#62497F"/>
<path d="M117.008 66.02L134.079 54.83C134.84 54.301 133.033 53.439 132.106 53.439H100.83C99.9033 53.439 98.1263 54.239 98.8883 54.768L115.928 66.02C116.254 66.246 116.684 66.246 117.008 66.02Z" fill="#6D598E"/>
<path d="M88.4645 378.837H52.1305L47.5625 326.768H93.1305L88.4645 378.837Z" fill="white"/>
<path d="M59.0019 364.827H47.1089C43.2959 364.827 40.0779 361.973 39.6219 358.187L38.4019 348.058C38.1569 346.022 38.7969 343.974 40.1569 342.44C41.5169 340.906 43.4739 340.026 45.5249 340.026H53.8949V343.026H45.5249C44.3319 343.026 43.1929 343.538 42.4019 344.431C41.6099 345.324 41.2379 346.515 41.3809 347.699L42.6009 357.828C42.8749 360.108 44.8139 361.827 47.1099 361.827H59.0029L59.0019 364.827Z" fill="white"/>
<path d="M409.9 87.146H321.221V145.09H409.9V87.146Z" fill="#FEFFFF"/>
<path d="M409.9 72.501H321.221V87.146H409.9V72.501Z" fill="#71A8C6"/>
<path d="M338.976 65.178H334.678V79.823H338.976V65.178Z" fill="#5F99B2"/>
<path d="M357.601 65.178H353.303V79.823H357.601V65.178Z" fill="#5F99B2"/>
<path d="M376.226 65.178H371.928V79.823H376.226V65.178Z" fill="#5F99B2"/>
<path d="M394.851 65.178H390.553V79.823H394.851V65.178Z" fill="#5F99B2"/>
<path d="M344.786 97.578H329.902V112.462H344.786V97.578Z" fill="#B6B6EF"/>
<path d="M363.411 97.578H348.527V112.462H363.411V97.578Z" fill="#B6B6EF"/>
<path d="M382.035 97.578H367.151V112.462H382.035V97.578Z" fill="#71A8C6"/>
<path d="M400.66 97.578H385.776V112.462H400.66V97.578Z" fill="#B6B6EF"/>
<path d="M344.786 116.203H329.902V131.087H344.786V116.203Z" fill="#B6B6EF"/>
<path d="M363.411 116.203H348.527V131.087H363.411V116.203Z" fill="#B6B6EF"/>
<path d="M382.035 116.203H367.151V131.087H382.035V116.203Z" fill="#B6B6EF"/>
<path d="M400.66 116.203H385.776V131.087H400.66V116.203Z" fill="#B6B6EF"/>
<path d="M247.033 29.785L275.033 12.16L303.033 29.785" fill="#472F59"/>
<path d="M247.033 29.785L275.033 47.41L303.033 29.785" fill="#472F59"/>
<path d="M297.367 0H252.7V57.667H297.367V0Z" fill="#B6B6EF"/>
<path d="M272.499 4H256.332V12.833H272.499V4Z" fill="#62497F"/>
<path d="M293.332 17.458H256.332V19.554H293.332V17.458Z" fill="#62497F"/>
<path d="M293.533 24.097H256.533V26.193H293.533V24.097Z" fill="#62497F"/>
<path d="M293.735 30.737H256.735V32.833H293.735V30.737Z" fill="#62497F"/>
<path d="M275.033 47.41L247.033 29.785V65.035H303.033V29.785L275.033 47.41Z" fill="#5C4275"/>
<path d="M247.033 65.035L275.033 47.41L303.033 65.035" fill="#62497F"/>
<path d="M148.37 145.875C133.876 145.875 122.126 157.625 122.126 172.119C122.126 186.613 133.876 198.363 148.37 198.363C162.864 198.363 174.614 186.613 174.614 172.119C174.614 157.625 162.865 145.875 148.37 145.875ZM148.37 186.185C140.602 186.185 134.305 179.888 134.305 172.12C134.305 164.352 140.602 158.055 148.37 158.055C156.138 158.055 162.435 164.352 162.435 172.12C162.435 179.888 156.138 186.185 148.37 186.185Z" fill="#71A8C6"/>
<path d="M134.377 170.699C134.896 165.521 138.225 161.175 142.815 159.198L142.816 159.195L139.428 147.44C129.51 151.035 122.382 160.438 122.141 171.539L134.377 170.699Z" fill="#62497F"/>
<path d="M169.609 156.71L159.863 164.015L159.86 164.023C161.477 166.313 162.435 169.102 162.435 172.119C162.435 173.701 162.162 175.217 161.68 176.636L173.16 180.732C174.098 178.033 174.614 175.137 174.614 172.118C174.615 166.36 172.755 161.038 169.609 156.71Z" fill="#B6B6EF"/>
<path d="M324.78 227.441C326.743 227.441 328.335 225.849 328.335 223.886C328.335 221.923 326.743 220.331 324.78 220.331C322.816 220.331 321.225 221.923 321.225 223.886C321.225 225.849 322.816 227.441 324.78 227.441Z" fill="white"/>
<path d="M298.389 112.188C300.352 112.188 301.944 110.596 301.944 108.633C301.944 106.67 300.352 105.078 298.389 105.078C296.426 105.078 294.834 106.67 294.834 108.633C294.834 110.596 296.426 112.188 298.389 112.188Z" fill="white"/>
<path d="M416.551 177.731C418.514 177.731 420.106 176.139 420.106 174.176C420.106 172.213 418.514 170.621 416.551 170.621C414.588 170.621 412.996 172.213 412.996 174.176C412.996 176.139 414.588 177.731 416.551 177.731Z" fill="white"/>
<path d="M437.6 341.188C439.563 341.188 441.155 339.596 441.155 337.633C441.155 335.67 439.563 334.078 437.6 334.078C435.637 334.078 434.045 335.67 434.045 337.633C434.045 339.596 435.637 341.188 437.6 341.188Z" fill="white"/>
<path d="M32.3968 311.731C34.3602 311.731 35.9518 310.139 35.9518 308.176C35.9518 306.213 34.3602 304.621 32.3968 304.621C30.4334 304.621 28.8418 306.213 28.8418 308.176C28.8418 310.139 30.4334 311.731 32.3968 311.731Z" fill="white"/>
<path d="M132.479 230.82C134.442 230.82 136.034 229.228 136.034 227.265C136.034 225.302 134.442 223.71 132.479 223.71C130.515 223.71 128.924 225.302 128.924 227.265C128.924 229.228 130.515 230.82 132.479 230.82Z" fill="white"/>
<path d="M405.609 44.415C407.572 44.415 409.164 42.8234 409.164 40.86C409.164 38.8966 407.572 37.305 405.609 37.305C403.645 37.305 402.054 38.8966 402.054 40.86C402.054 42.8234 403.645 44.415 405.609 44.415Z" fill="white"/>
<path d="M116.484 32.482C117.818 32.482 118.899 31.4007 118.899 30.067C118.899 28.7332 117.818 27.652 116.484 27.652C115.151 27.652 114.069 28.7332 114.069 30.067C114.069 31.4007 115.151 32.482 116.484 32.482Z" fill="white"/>
<path d="M432.563 66.975C433.897 66.975 434.978 65.8938 434.978 64.56C434.978 63.2262 433.897 62.145 432.563 62.145C431.23 62.145 430.148 63.2262 430.148 64.56C430.148 65.8938 431.23 66.975 432.563 66.975Z" fill="white"/>
<path d="M430.148 34.322C431.482 34.322 432.563 33.2408 432.563 31.907C432.563 30.5732 431.482 29.492 430.148 29.492C428.815 29.492 427.733 30.5732 427.733 31.907C427.733 33.2408 428.815 34.322 430.148 34.322Z" fill="white"/>
<path d="M154.231 123.749C156.194 123.749 157.786 122.157 157.786 120.194C157.786 118.231 156.194 116.639 154.231 116.639C152.267 116.639 150.676 118.231 150.676 120.194C150.676 122.157 152.267 123.749 154.231 123.749Z" fill="white"/>
<path d="M142.216 27.027C144.179 27.027 145.771 25.4354 145.771 23.472C145.771 21.5086 144.179 19.917 142.216 19.917C140.253 19.917 138.661 21.5086 138.661 23.472C138.661 25.4354 140.253 27.027 142.216 27.027Z" fill="white"/>
<path d="M28.8421 236.41C30.8055 236.41 32.3971 234.818 32.3971 232.855C32.3971 230.892 30.8055 229.3 28.8421 229.3C26.8787 229.3 25.2871 230.892 25.2871 232.855C25.2871 234.818 26.8787 236.41 28.8421 236.41Z" fill="white"/>
<path d="M42.0928 113.224H39.0928V107.224H42.0928V113.224ZM42.0928 103.224H39.0928V97.224H42.0928V103.224ZM42.0928 93.224H39.0928V87.224H42.0928V93.224ZM42.0928 83.224H39.0928V77.224H42.0928V83.224ZM42.0928 73.224H39.0928V73.039C39.0928 70.74 39.8938 68.497 41.3468 66.721L43.6678 68.621C42.6518 69.862 42.0918 71.431 42.0918 73.039L42.0928 73.224ZM46.2648 66.646L45.0578 63.9C46.3258 63.343 47.6758 63.06 49.0708 63.06H51.5618V66.06H49.0708C48.0938 66.06 47.1498 66.257 46.2648 66.646ZM71.5618 66.06H65.5618V63.06H71.5618V66.06ZM61.5618 66.06H55.5618V63.06H61.5618V66.06Z" fill="white"/>
<path d="M383.551 57.982L380.551 57.958L380.6 51.958L383.6 51.982L383.551 57.982ZM383.632 47.982L380.632 47.958L380.68 41.958L383.68 41.982L383.632 47.982ZM383.712 37.983L380.712 37.959L380.761 31.959L383.761 31.983L383.712 37.983ZM383.793 27.983L380.793 27.959L380.842 21.959L383.842 21.983L383.793 27.983ZM383.874 17.983L380.874 17.96L380.896 15.125C380.896 14.155 380.773 13.272 380.532 12.423L383.417 11.602C383.735 12.719 383.896 13.877 383.896 15.046L383.874 17.983ZM379.006 9.343C377.965 7.946 376.566 6.861 374.959 6.204L376.094 3.427C378.205 4.29 380.044 5.716 381.412 7.55L379.006 9.343ZM371.594 5.503L371.351 5.5H365.633V2.5L371.672 2.504L371.594 5.503ZM361.633 5.5H355.633V2.5H361.633V5.5ZM351.633 5.5H345.633V2.5H351.633V5.5ZM341.633 5.5H335.633V2.5H341.633V5.5ZM331.633 5.5H325.633V2.5H331.633V5.5ZM321.633 5.5H315.633V2.5H321.633V5.5ZM311.633 5.5H305.633V2.5H311.633V5.5Z" fill="white"/>
<path d="M218.843 203.172C217.622 202.558 216.341 201.794 215.03 200.92C214.94 207.299 213.777 214.629 209.588 219.054C204.824 224.087 217.865 231.065 232.592 228.893C247.319 226.722 254.843 223.996 254.843 223.996C254.843 223.996 246.674 217.636 246.321 201.818C245.852 202.113 245.377 202.401 244.892 202.68C236.88 207.283 227.097 207.325 218.843 203.172Z" fill="#E29B8D"/>
<path d="M280.324 154.416C278.89 149.462 273.457 151.983 273.457 151.983C275.021 135.035 272.502 87.147 225.57 90.537C178.638 93.927 186.547 152.157 186.547 152.157C180.528 149.202 177.013 155.724 181.272 166.585C185.156 176.492 193.76 174.753 193.76 174.753C199.002 186.822 207.552 195.928 215.031 200.919C216.342 201.794 217.623 202.557 218.844 203.171C227.098 207.325 236.881 207.283 244.893 202.679C245.378 202.4 245.854 202.112 246.322 201.817C261.575 192.214 268.069 174.405 268.069 174.405C278.847 177.187 281.757 159.37 280.324 154.416Z" fill="#EAB2A5"/>
<path d="M277.877 155.044C278.157 155.363 276.775 153.365 275.263 154.395C273.751 155.426 273.101 159.134 273.994 160.37C274.887 161.607 275.987 164.355 274.063 165.592C272.139 166.829 272.695 167.447 272.695 167.447C272.695 167.447 273.514 166.348 274.922 165.867C276.33 165.386 276.336 162.921 274.922 160.989C273.508 159.057 275.465 152.294 277.877 155.044Z" fill="#BC6262"/>
<path d="M182.482 155.321C182.238 155.668 183.397 153.533 185.011 154.395C186.625 155.257 187.671 158.873 186.916 160.199C186.161 161.525 185.364 164.375 187.41 165.398C189.456 166.42 188.969 167.095 188.969 167.095C188.969 167.095 188.037 166.09 186.585 165.764C185.133 165.438 184.862 162.987 186.06 160.914C187.258 158.84 184.584 152.327 182.482 155.321Z" fill="#BC6262"/>
<path d="M225.064 170.461C225.064 170.461 225.843 173.779 230.057 173.779C234.912 173.779 235.92 170.461 235.92 170.461C235.92 170.461 234.028 172.614 230.08 172.591C227.355 172.574 225.064 170.461 225.064 170.461Z" fill="#BC6262"/>
<path d="M206.98 172.799C209.58 172.799 211.687 171.144 211.687 169.103C211.687 167.062 209.58 165.407 206.98 165.407C204.381 165.407 202.273 167.062 202.273 169.103C202.273 171.144 204.381 172.799 206.98 172.799Z" fill="#E29F91"/>
<path d="M203.112 149.89C203.535 148.629 204.46 147.731 205.524 147.309C206.468 146.935 207.893 146.499 209.88 146.208C216.074 145.299 217.385 148.548 216.011 149.773C214.637 150.998 213.757 149.511 209.855 150.223C206.332 150.866 202.156 152.737 203.112 149.89Z" fill="#3A1751"/>
<path d="M210.596 162.358C212.866 162.358 214.705 160.518 214.705 158.249C214.705 155.98 212.866 154.14 210.596 154.14C208.327 154.14 206.487 155.98 206.487 158.249C206.487 160.518 208.327 162.358 210.596 162.358Z" fill="#3A1751"/>
<path d="M253.72 172.799C256.319 172.799 258.427 171.144 258.427 169.103C258.427 167.062 256.319 165.407 253.72 165.407C251.12 165.407 249.013 167.062 249.013 169.103C249.013 171.144 251.12 172.799 253.72 172.799Z" fill="#E29F91"/>
<path d="M257.588 149.89C257.165 148.629 256.24 147.731 255.176 147.309C254.232 146.935 252.807 146.499 250.82 146.208C244.626 145.299 243.315 148.548 244.689 149.773C246.063 150.998 246.943 149.511 250.845 150.223C254.368 150.866 258.544 152.737 257.588 149.89Z" fill="#3A1751"/>
<path d="M250.104 162.358C252.373 162.358 254.213 160.518 254.213 158.249C254.213 155.98 252.373 154.14 250.104 154.14C247.835 154.14 245.995 155.98 245.995 158.249C245.995 160.518 247.835 162.358 250.104 162.358Z" fill="#3A1751"/>
<path d="M222.902 184.927C226.651 189.725 234.818 189.894 238.276 184.674C239.167 183.329 237.003 182.076 236.117 183.412C233.48 187.392 227.362 186.604 224.669 183.159C223.681 181.893 221.923 183.673 222.902 184.927Z" fill="#3A1751"/>
<path opacity="0.2" d="M209.418 169.694C217.72 169.694 224.45 163.333 224.45 155.486C224.45 147.639 217.72 141.278 209.418 141.278C201.116 141.278 194.386 147.639 194.386 155.486C194.386 163.333 201.116 169.694 209.418 169.694Z" fill="#FEFFFF"/>
<path opacity="0.2" d="M250.071 169.506C258.373 169.506 265.103 163.145 265.103 155.298C265.103 147.451 258.373 141.09 250.071 141.09C241.769 141.09 235.039 147.451 235.039 155.298C235.039 163.145 241.769 169.506 250.071 169.506Z" fill="#FEFFFF"/>
<path d="M209.357 171.153C200.458 171.153 193.219 164.084 193.219 155.394C193.219 146.704 200.459 139.635 209.357 139.635C218.256 139.635 225.495 146.704 225.495 155.394C225.495 164.084 218.255 171.153 209.357 171.153ZM209.357 141.711C201.603 141.711 195.295 147.849 195.295 155.394C195.295 162.939 201.603 169.077 209.357 169.077C217.111 169.077 223.419 162.939 223.419 155.394C223.419 147.849 217.11 141.711 209.357 141.711Z" fill="#616DC1"/>
<path d="M250.071 171.153C241.172 171.153 233.933 164.084 233.933 155.394C233.933 146.704 241.172 139.635 250.071 139.635C258.97 139.635 266.209 146.704 266.209 155.394C266.209 164.084 258.97 171.153 250.071 171.153ZM250.071 141.712C242.318 141.712 236.009 147.85 236.009 155.395C236.009 162.94 242.318 169.078 250.071 169.078C257.824 169.078 264.133 162.94 264.133 155.395C264.133 147.85 257.824 141.712 250.071 141.712Z" fill="#616DC1"/>
<path d="M234.618 154.011H224.45V156.087H234.618V154.011Z" fill="#616DC1"/>
<path d="M274.317 112.094C274.314 112.073 274.311 112.053 274.308 112.032C273.795 107.283 272.93 102.94 271.472 100.366C269.533 96.944 265.616 94.386 261.14 92.512C260.674 90.857 259.788 89.401 258.426 88.231C235.909 68.881 203.247 96.366 188.887 91.015C184.144 89.248 178.939 91.918 177.895 96.871C176.275 104.555 176.386 113.997 183.771 120.193C183.907 120.307 184.043 120.416 184.179 120.528C184.086 121.464 184.014 122.417 183.969 123.391C183.219 139.641 184.844 151.552 184.844 151.552C185.912 151.82 186.866 152.494 187.5 153.031C187.862 155.369 189.302 163.978 190.885 164.022C192.661 164.071 193.961 156.18 192.726 148.813C193.221 142.72 194.379 132.882 196.883 127.651C204.004 129.82 212.986 129.942 226.807 128.016C232.668 127.199 238.254 124.878 243.167 121.712C253.561 121.589 259.912 123.971 262.261 126.589C264.41 128.985 265.41 132.841 265.873 135.783C266.637 141.199 266.595 147.265 266.406 151.558C266.13 153.477 266.013 155.386 266.028 157.146C266.025 157.176 266.022 157.207 266.022 157.207L266.028 157.203C266.072 161.658 266.94 165.116 268.113 165.116C269.945 165.116 271.907 153.641 271.907 153.641C271.991 153.397 272.063 153.156 272.127 152.917L273.458 151.981C273.456 151.983 277.542 136.421 274.317 112.094Z" fill="#3A1751"/>
<path d="M344.495 282.268L346.559 285.085C346.559 285.085 350.895 287.813 359.261 284.197C367.627 280.582 375.141 263.869 377.127 257.738C379.113 251.608 378.677 248.893 379.933 244.219C381.189 239.545 375.671 228.543 372.833 221.556C369.995 214.568 364.835 215.452 362.66 215.909C360.484 216.366 352.405 240.882 351.105 243.126C349.807 245.371 340.688 265.261 344.495 282.268Z" fill="#EAB2A5"/>
<path d="M381.86 269.247L335.784 259.235C334.48 258.952 333.652 257.665 333.936 256.36L350.447 180.375C350.73 179.071 352.017 178.243 353.322 178.527L399.398 188.539C400.702 188.822 401.53 190.109 401.246 191.414L384.735 267.399C384.451 268.702 383.164 269.53 381.86 269.247Z" fill="#3A1751"/>
<path d="M382.272 258.647L340.105 249.484C339.459 249.344 339.048 248.706 339.189 248.059L353.2 183.578C353.34 182.931 353.978 182.521 354.625 182.662L396.792 191.825C397.439 191.965 397.849 192.603 397.708 193.25L383.697 257.731C383.556 258.377 382.918 258.787 382.272 258.647Z" fill="white"/>
<path d="M362.669 259.617C362.964 258.259 362.048 256.907 360.622 256.597C359.196 256.288 357.801 257.137 357.506 258.495C357.211 259.853 358.128 261.205 359.553 261.515C360.979 261.824 362.374 260.975 362.669 259.617Z" fill="white"/>
<path d="M393.239 201.811L353.563 193.191L350.049 209.37L389.724 217.99L393.239 201.811Z" fill="#B6B6EF"/>
<path d="M385.289 238.406L345.613 229.786L342.098 245.965L381.774 254.584L385.289 238.406Z" fill="#B6B6EF"/>
<path d="M388.894 221.49L349.219 212.87L348.706 215.228L388.382 223.848L388.894 221.49Z" fill="#B6B6EF"/>
<path d="M394.197 197.08L354.521 188.46L354.009 190.818L393.684 199.438L394.197 197.08Z" fill="#B6B6EF"/>
<path d="M388.135 224.981L348.46 216.361L347.948 218.719L387.623 227.339L388.135 224.981Z" fill="#B6B6EF"/>
<path d="M387.376 228.473L347.701 219.854L347.189 222.211L386.864 230.831L387.376 228.473Z" fill="#B6B6EF"/>
<path d="M386.618 231.964L346.942 223.344L346.43 225.702L386.105 234.322L386.618 231.964Z" fill="#B6B6EF"/>
<path d="M341.407 281.881C341.407 281.881 338.813 264.92 338.64 262.35C338.468 259.78 340.557 253.324 340.81 250.231C341.062 247.138 345.15 247.218 349.358 239.418C350.958 236.452 354.965 240.98 352.496 245.608C350.027 250.236 347.614 253.382 349.538 256.018C351.462 258.654 354.742 261.072 355.875 266.781C357.008 272.49 350.164 292.871 341.407 281.881Z" fill="#EAB2A5"/>
<path d="M280.925 294.268C280.925 294.268 300.158 348.958 304.472 359.742C308.786 370.527 316.71 369.358 323.074 367.767C334.937 364.801 360.473 290.183 362.9 283.443C362.9 283.443 345.068 281.618 339.676 276.764C339.676 276.764 325.697 301.775 324.244 302.584C322.791 303.393 315.542 261.776 315.542 261.776C315.542 261.776 276.551 260.615 280.925 294.268Z" fill="#616DC1"/>
<path d="M326.949 298.545C326.949 298.545 320.289 309.773 315.076 319.3C309.863 328.826 309.324 337.634 309.324 337.634C309.324 337.634 309.224 321.289 322.575 298.546C322.575 298.546 323.442 301.87 324.063 302.135C324.685 302.399 326.949 298.545 326.949 298.545Z" fill="#415499"/>
<path d="M340.418 275.32L336.376 281.531C336.376 281.531 336.713 285.71 346.621 288.608C356.529 291.506 361.13 290.319 361.13 290.319L363.472 282.07C363.472 282.07 348.977 281.849 340.418 275.32Z" fill="#4F5FAF"/>
<path d="M318.676 283.21C317.058 275.876 315.926 238.418 298.809 230.776C279.799 222.288 252.262 214.579 252.262 214.579C248.955 224.464 238.226 227.799 233.327 228.826C233.327 228.826 212.71 228.748 209.543 215.463C209.543 215.463 179.278 221.711 163.842 229.893C152.759 235.768 118.605 281.106 116.342 288.268C114.666 293.573 121.756 306.572 126.102 314.643C116.483 326.975 109.889 335.633 109.889 335.633C109.889 335.633 118.759 337.101 128.759 328.434C135.492 322.599 157.559 300.523 171.262 286.719C172.862 314.145 175.709 359.179 177.248 360.858C180.748 364.676 256.593 363.58 276.593 360.858C276.593 360.858 281.339 323.001 284.131 292.613C289.194 308.081 296.655 330.743 297.284 333.23C297.727 334.983 320.699 292.377 318.676 283.21ZM231.726 230.642C231.749 230.617 231.775 230.591 231.797 230.566C231.812 230.587 231.831 230.609 231.846 230.63H231.842L231.726 230.642Z" fill="#616DC1"/>
<path d="M214.179 209.286L208.606 215.702C208.606 215.702 213.151 230.776 228.743 230.776C244.695 230.776 250.796 219.681 252.261 214.579L247.046 208.804C247.046 208.804 242.414 220.11 230.944 220.396C219.319 220.686 214.179 209.286 214.179 209.286Z" fill="#4F5FAF"/>
<path d="M283.525 299.009C283.525 299.009 286.056 273.218 291.274 266.097C291.274 266.097 280.584 273.018 283.525 299.009Z" fill="#415499"/>
<path d="M172.331 285.411C172.331 285.411 169.889 265.739 164.671 258.618C164.671 258.618 171.914 260.885 172.331 285.411Z" fill="#415499"/>
<path d="M96.9309 232.591L94.5749 235.17C94.5749 235.17 89.9709 237.414 82.0429 232.918C74.1149 228.422 68.4459 210.997 67.1319 204.688C65.8179 198.379 66.5449 195.728 65.7989 190.945C65.0529 186.162 71.7259 175.82 75.2999 169.179C78.8739 162.538 83.9089 163.972 86.0229 164.661C88.1369 165.35 93.5269 190.594 94.5769 192.965C95.6269 195.337 102.548 216.093 96.9309 232.591Z" fill="#EAB2A5"/>
<path d="M71.3129 107.408L52.9766 110.679L53.2839 112.402L71.6202 109.131L71.3129 107.408Z" fill="#71A8C6"/>
<path d="M54.7408 110.365L52.9766 110.679L53.9424 116.094L55.7066 115.779L54.7408 110.365Z" fill="#71A8C6"/>
<path d="M71.3131 107.408L69.5488 107.723L70.5146 113.138L72.2789 112.823L71.3131 107.408Z" fill="#71A8C6"/>
<path d="M115.215 208.733L46.8048 220.935C45.3998 221.186 44.0568 220.25 43.8058 218.844L27.0788 125.063C26.8278 123.658 27.7638 122.315 29.1698 122.064L97.5798 109.862C98.9848 109.611 100.328 110.547 100.579 111.953L117.306 205.734C117.556 207.14 116.62 208.483 115.215 208.733Z" fill="#71A8C6"/>
<path d="M111.641 205.004L48.8664 216.2C47.7164 216.405 46.6174 215.639 46.4124 214.489L31.1064 128.675C30.9014 127.525 31.6674 126.426 32.8174 126.221L95.5924 115.025C96.7424 114.82 97.8414 115.586 98.0464 116.736L113.352 202.55C113.558 203.7 112.791 204.799 111.641 205.004Z" fill="white"/>
<path d="M77.9706 110.919L47.9434 116.275L49.7872 126.612L79.8144 121.256L77.9706 110.919Z" fill="#71A8C6"/>
<path d="M52.3042 136.449L40.9824 138.468L45.4895 163.737L56.8113 161.718L52.3042 136.449Z" fill="#B6B6EF"/>
<path d="M67.1401 139.897L55.8184 141.917L59.2719 161.279L70.5936 159.259L67.1401 139.897Z" fill="#B6B6EF"/>
<path d="M81.4507 140.392L70.1289 142.411L73.0556 158.82L84.3774 156.8L81.4507 140.392Z" fill="#B6B6EF"/>
<path d="M96.4331 144.661L85.1113 146.68L86.838 156.361L98.1598 154.341L96.4331 144.661Z" fill="#B6B6EF"/>
<path d="M99.2713 160.577L46.6006 169.971L50.4418 191.507L103.113 182.112L99.2713 160.577Z" fill="#B6B6EF"/>
<path d="M103.86 186.297L51.1895 195.691L53.2528 207.259L105.924 197.865L103.86 186.297Z" fill="#B6B6EF"/>
<path d="M100.043 232.54C100.043 232.54 104.45 215.957 104.898 213.421C105.346 210.885 103.965 204.241 104.047 201.139C104.129 198.037 100.057 197.675 96.7137 189.468C95.4427 186.347 90.9717 190.416 92.9267 195.283C94.8827 200.15 96.9417 203.538 94.7457 205.951C92.5497 208.364 89.0267 210.415 87.2857 215.968C85.5447 221.521 90.1527 242.521 100.043 232.54Z" fill="#EAB2A5"/>
<path d="M78.708 230.643C78.708 230.643 91.843 310.268 97.843 324.768C103.843 339.268 118.253 342.268 138.919 315.679C162.167 285.767 137.843 315.679 137.843 315.679L122.343 288.768C122.343 288.768 103.968 228.175 103.468 227.893C102.968 227.611 86.218 230.705 78.708 230.643Z" fill="#616DC1"/>
<path d="M78.4326 229.659L79.6676 237.923C79.6676 237.923 82.7796 239.643 91.3086 238.376C101.521 236.86 105.253 233.171 105.253 233.171L102.752 224.942C102.752 224.942 90.5376 230.056 78.4326 229.659Z" fill="#4F5FAF"/>
<path d="M120.127 281.477C120.127 281.477 125.259 305.893 125.092 316.893C125.092 316.893 126.433 306.435 125.096 296.435C123.759 286.435 121.38 279.571 121.38 279.571L120.127 281.477Z" fill="#415499"/>
<path d="M271.44 383.581L301.759 363.675L228.442 364.768L271.44 383.581Z" fill="#382549"/>
<path d="M271.44 383.581H138.065L127.36 300.205H259.86L271.44 383.581Z" fill="#472F59"/>
<path d="M270.001 374.948H136.956L138.065 383.581H271.44L270.001 374.948Z" fill="#472F59"/>
<path d="M193.937 346.071C200.302 346.071 205.462 342.191 205.462 337.404C205.462 332.617 200.302 328.737 193.937 328.737C187.572 328.737 182.412 332.617 182.412 337.404C182.412 342.191 187.572 346.071 193.937 346.071Z" fill="#B6B6EF"/>
<path d="M259.86 300.205H255.53L268.093 383.581H271.44L259.86 300.205Z" fill="#382549"/>
</svg>
