<svg width="665" height="422" viewBox="0 0 665 422" fill="none" xmlns="http://www.w3.org/2000/svg">
<path opacity="0.39" d="M332.878 421.727C512.363 421.727 657.864 411.289 657.864 398.413C657.864 385.537 512.363 375.099 332.878 375.099C153.393 375.099 7.89218 385.537 7.89218 398.413C7.89218 411.289 153.393 421.727 332.878 421.727Z" fill="#81B0D3"/>
<path d="M66.4772 386.21C60.6092 391.524 55.1072 397.244 50.0242 403.314C49.5292 403.905 49.0172 404.546 48.9242 405.311C48.7832 406.469 49.7052 407.564 50.8122 407.931C51.9192 408.298 53.1402 408.078 54.2342 407.676C56.4522 406.86 58.3302 405.346 60.3312 404.088C62.5122 402.716 64.8742 401.631 67.3372 400.871C69.2212 400.289 71.2092 399.875 72.8302 398.753C74.8012 397.388 75.9882 395.11 76.5192 392.772C77.0502 390.434 76.9962 388.008 76.9402 385.612C73.5992 384.632 69.0572 383.874 66.4772 386.21Z" fill="#4695C6"/>
<path d="M162.983 386.21C168.851 391.524 174.353 397.244 179.436 403.314C179.931 403.905 180.443 404.546 180.536 405.311C180.677 406.469 179.755 407.564 178.648 407.931C177.541 408.299 176.32 408.078 175.226 407.676C173.008 406.86 171.13 405.346 169.129 404.088C166.948 402.716 164.586 401.631 162.123 400.871C160.239 400.289 158.251 399.875 156.63 398.753C154.659 397.388 153.472 395.11 152.941 392.772C152.41 390.434 152.464 388.008 152.52 385.612C155.861 384.632 160.404 383.874 162.983 386.21Z" fill="#4695C6"/>
<path d="M118.132 320.246L127.152 320.673L131.025 302.769L127.237 280.042C127.237 280.042 117.201 304.63 118.132 320.246Z" fill="#112D35"/>
<path d="M137.701 316.092C143.265 333.223 143.409 351.58 146.487 369.327C147.683 376.224 149.329 383.059 149.914 390.034C152.258 390.338 154.022 389.749 156.335 389.263C159.724 388.551 163.036 387.474 166.196 386.057C164.118 359.531 168.087 333.266 168.5 306.662C166.152 306.203 164.018 307.114 161.698 307.696C159.776 308.178 157.774 308.243 155.829 308.624C153.497 309.081 151.281 309.985 149.081 310.883C145.323 312.419 141.459 314.556 137.701 316.092Z" fill="#17373F"/>
<path d="M76.2072 316.483C71.9382 340.402 67.5692 364.303 63.0992 388.184C66.3802 390.453 70.7702 390.682 74.7582 390.576C75.9332 390.545 77.1192 390.512 78.2632 390.241C84.9502 370.013 91.8092 349.785 98.4962 329.556C99.9862 325.049 101.478 320.537 103.289 316.149C94.4092 316.199 85.0872 316.434 76.2072 316.483Z" fill="#17373F"/>
<path d="M99.7102 107.208C77.5052 114.545 57.8322 127.999 39.6252 142.676C32.8442 148.143 25.6732 154.868 25.3802 163.574C24.8982 177.848 40.0112 188.133 49.7282 198.6C53.1822 202.32 56.7712 206.139 61.4152 208.19C69.9012 203.209 76.2202 194.782 78.4422 185.196C71.4082 178.426 63.5472 172.223 55.2382 167.096C61.4322 160.535 68.3222 154.342 75.3152 148.639C82.7892 165.071 85.0902 183.659 84.6042 201.705C84.3052 212.807 77.0962 227.815 74.7132 238.521C68.6072 265.962 62.8582 288.273 54.2692 315.414C60.3132 318.752 67.3842 320.548 74.2442 321.336C88.8302 323.01 103.648 322.642 118.132 320.247C120.05 307.439 122.854 295.179 126.512 282.755C127.491 295.366 127.705 308.036 127.152 320.673C143.428 320.547 160.625 319.468 174.936 311.716C169.791 279.095 164.9 246.749 155.848 214.99C153.442 206.548 150.416 197.953 149.603 189.212C148.399 176.274 146.989 166.806 146.011 155.059C153.635 161.15 158.857 169.472 165.994 176.127C161.965 178.979 157.151 182.862 154.096 186.74C151.933 189.486 155.172 193.368 157.258 196.173C158.729 198.152 160.723 199.669 162.689 201.159C165.024 202.928 167.358 204.696 169.692 206.464C171.816 208.073 174.052 209.732 176.68 210.178C180.293 205.424 182.982 200.516 185.958 195.339C187.12 193.318 188.231 191.268 189.341 189.219C192.63 183.15 195.953 176.994 197.58 170.286C198.006 168.53 196.51 167.122 195.225 165.85C193.941 164.579 192.345 163.679 190.839 162.681C187.509 160.474 184.566 157.742 181.593 155.073C174.1 148.342 166.327 141.93 158.557 135.521C153.03 130.962 147.504 126.403 141.978 121.844C133.716 115.029 124.935 107.967 114.379 106.153C110.888 105.553 108.511 106.325 104.969 106.331C103.486 106.333 100.869 106.945 99.7102 107.208Z" fill="#1D424F"/>
<path d="M103.407 140.748C103.407 140.748 119.185 158.555 125.947 168.022C125.947 168.022 133.385 176.587 134.062 125.195L108.366 106.937L93.2642 113.474L103.407 140.748Z" fill="#FFAE43"/>
<path d="M99.5752 120.913C99.8002 121.589 117.382 138.044 123.468 151.793C123.468 151.793 129.779 129.929 124.595 115.052C124.595 115.052 104.334 108.312 99.8132 112.358C95.2932 116.405 99.5752 120.913 99.5752 120.913Z" fill="#DEFCFF"/>
<path d="M95.7652 89.041C89.4682 87.838 83.4532 85.182 78.3222 81.34C86.5402 73.363 95.1382 65.659 104.362 58.87C110.503 62.282 114.825 65.305 120.494 69.455C122.579 70.981 126.2 72.923 127.767 75.385C121.575 83.209 111.622 88.736 101.715 89.915C99.8372 90.138 97.6202 89.396 95.7652 89.041Z" fill="#1D424F"/>
<path d="M154.705 186.575C154.705 186.575 174.814 196.81 176.679 210.177C176.679 210.177 157.838 204.58 153.43 188.384C153.43 188.384 153.52 186.706 154.705 186.575Z" fill="#143038"/>
<path d="M112.413 106.004C118.628 105.936 123.619 110.76 128.929 113.99C134.28 117.245 140.421 119.01 146.606 119.993C150.882 120.673 155.267 120.994 159.532 120.247C168.76 118.631 176.812 111.753 180.117 102.987C183.423 94.221 181.987 83.887 176.655 76.184C180.287 77.092 183.766 78.733 187.044 80.542C188.827 77.809 191.111 74.846 192.171 71.759C195.058 76.169 196.614 81.515 197.401 86.727C197.915 90.134 198.339 93.586 198.047 97.02C197.544 102.93 194.912 108.527 191.252 113.194C187.592 117.861 182.938 121.662 178.034 124.997C169.972 130.481 160.506 134.933 150.812 133.882C147.649 133.539 144.577 132.619 141.576 131.565C138.407 130.453 135.285 129.184 132.333 127.582C123.672 122.885 116.448 114.993 112.413 106.004Z" fill="#32ABBF"/>
<path d="M92.7452 82.546C92.7452 82.546 96.8852 68.337 109.752 70.798C109.752 70.798 113.332 71.805 112.997 75.497L92.7452 82.546Z" fill="#275468"/>
<path d="M113.729 81.639C112.868 84.218 113.56 87.045 114.461 89.61C115.363 92.175 117.024 93.925 117.024 96.644C117.024 100.224 114.979 103.148 112.335 103.783C113.436 108.153 115.882 112.224 119.07 115.409C118.509 116.956 117.877 118.146 116.398 118.866C114.919 119.586 113.238 119.824 111.594 119.76C106.743 119.57 102.09 116.648 99.8132 112.36C100.42 107.728 100.111 102.803 98.7292 98.341C97.2642 98.449 95.7222 97.41 95.1352 96.063C94.5482 94.716 94.9042 93.016 95.9822 92.017C97.0592 91.018 98.7812 90.792 100.08 91.478C98.6802 89.128 98.7432 86.003 99.9362 83.541C101.129 81.079 103.611 79.288 106.323 78.931C109.037 78.574 111.939 79.57 113.729 81.639Z" fill="#F4A062"/>
<path d="M95.1022 93.514C95.5362 92.519 96.4402 91.742 97.4892 91.461C98.5382 91.18 99.7092 91.404 100.581 92.049C101.756 90.908 102.032 89.355 102.027 87.718C102.022 86.08 101.581 84.479 101.144 82.901C102.266 83.028 103.297 82.668 104.419 82.795C106.861 83.07 109.352 83.344 111.758 82.846C114.164 82.348 116.516 80.94 117.513 78.693C118.188 77.172 118.093 75.19 116.867 74.066C115.483 72.797 113.333 73.056 111.486 73.394C109.721 73.718 107.957 74.041 106.192 74.365C104.555 74.665 102.873 74.983 101.469 75.874C100.343 76.589 99.4562 77.637 98.3172 78.332C96.8732 79.213 95.0642 79.503 93.8412 80.672C92.7302 81.734 92.3122 83.46 92.8132 84.912C93.2412 86.152 94.2742 87.205 94.3112 88.517C94.3312 89.223 94.0532 89.898 93.8182 90.564C93.5832 91.23 93.3862 91.953 93.5692 92.635C93.7522 93.32 94.4202 93.696 95.1022 93.514Z" fill="#3E7593"/>
<path d="M102.143 100.447C102.143 100.447 103.188 110.752 115.216 110.174C113.93 108.079 112.931 105.809 112.335 103.446C112.335 103.446 107.849 105.37 102.143 100.447Z" fill="#D88850"/>
<path d="M77.9642 185.249C77.6522 187.95 77.1952 190.039 76.0082 192.485C72.7902 199.117 67.8032 205.257 61.0382 208.186C60.9812 206.886 61.2422 205.595 61.5142 204.323C61.9512 202.274 62.4222 200.221 63.2142 198.283C64.7982 194.407 67.5882 191.168 70.3302 188.003C71.9032 186.188 73.5252 184.333 75.6442 183.203C76.9302 183.284 77.2262 184.193 77.9642 185.249Z" fill="#143038"/>
<path d="M68.0212 190.684C69.1582 189.28 70.2942 187.876 71.4312 186.471C72.4672 185.191 73.8942 183.904 75.5072 183.39C77.4752 184.593 79.1862 185.647 81.2522 186.673C81.4412 186.767 81.7042 186.846 81.8342 186.679C84.8412 185.729 87.5092 184.255 90.5622 183.462C93.6152 182.67 97.0692 182.628 99.7012 184.366C97.8822 184.842 96.0222 185.159 94.1482 185.313C93.6252 185.356 92.9522 185.523 92.9082 186.046C96.0202 186.275 99.0502 187.5 101.447 189.498C101.749 189.75 102.041 190.246 101.723 190.477C101.598 190.568 101.428 190.561 101.274 190.546C98.7472 190.299 96.3402 188.969 93.8122 189.207C93.8972 189.621 94.3602 189.817 94.7582 189.957C97.2532 190.836 99.6052 192.117 101.696 193.736C101.138 194.301 100.196 193.995 99.4552 193.709C97.6942 193.03 95.8112 192.672 93.9242 192.657C95.4922 194.243 98.1862 194.538 99.3592 196.435C99.4602 196.598 99.5432 196.823 99.4172 196.969C99.3492 197.047 99.2412 197.074 99.1392 197.091C97.3042 197.397 95.7002 195.821 93.8702 195.485C92.1592 195.171 90.4672 195.965 88.7672 196.336C87.0062 196.721 85.1692 196.65 83.3932 196.342C82.5472 196.195 81.7052 195.993 80.9182 195.651C79.5282 195.047 78.3162 194.01 76.8382 193.675C75.8852 193.459 75.0462 193.328 73.7152 192.84C71.0142 191.849 69.6322 191.463 68.0212 190.684Z" fill="#F4A062"/>
<path d="M155.432 187.097L149.904 190.359C149.904 190.359 150.125 197.656 151.507 199.314L164.277 192.901C164.277 192.901 159.247 188.424 155.432 187.097Z" fill="#F4A062"/>
<path d="M126.548 282.209C126.186 282.141 127.114 276.085 128.287 266.276C128.882 261.372 129.479 255.523 130.014 249.02C130.514 242.514 130.938 235.353 131.15 227.828C131.336 220.302 131.295 213.129 131.14 206.605C130.948 200.083 130.665 194.21 130.327 189.282C129.674 179.425 129.064 173.328 129.429 173.279C129.594 173.257 129.94 174.755 130.425 177.489C130.674 178.855 130.947 180.532 131.202 182.486C131.463 184.44 131.784 186.663 132.025 189.134C132.582 194.067 133.043 199.965 133.359 206.525C133.637 213.086 133.746 220.311 133.559 227.891C133.345 235.47 132.851 242.679 132.226 249.216C131.566 255.751 130.789 261.615 129.975 266.512C129.604 268.966 129.165 271.17 128.803 273.107C128.446 275.046 128.085 276.705 127.765 278.056C127.135 280.762 126.711 282.24 126.548 282.209Z" fill="#275468"/>
<path d="M135.139 182.8C133.072 183.572 131.125 184.666 129.39 186.031C128.139 187.015 126.796 188.451 125.663 189.569C126.652 193.532 127.71 197.727 128.155 201.787C118.708 200.379 109.906 195.057 104.272 187.345C102.815 185.351 101.565 183.211 100.461 181.002C98.0672 176.21 96.3562 171.077 95.3972 165.806C93.1412 153.406 95.0592 140.584 93.3672 128.094C92.5352 121.958 90.2432 115.763 85.2292 112.13C89.7242 109.393 94.7772 107.577 99.9862 106.824C106.024 116.264 106.154 128.045 106.188 139.25C106.222 150.455 106.657 162.45 113.205 171.543C118.169 178.438 126.647 182.58 135.139 182.8Z" fill="#32ABBF"/>
<path d="M107.363 86.079C105.791 85.169 103.832 85.117 102.205 85.917C101.772 86.13 102.152 86.777 102.583 86.565C103.966 85.885 105.653 85.957 106.983 86.727C107.403 86.969 107.781 86.321 107.363 86.079Z" fill="#A35B41"/>
<path d="M110.867 86.392C110.891 86.36 110.91 86.337 110.957 86.279C110.995 86.233 111.035 86.188 111.075 86.143C111.156 86.054 111.24 85.968 111.327 85.886C111.523 85.7 111.663 85.589 111.877 85.447C112.309 85.16 112.696 84.986 113.187 84.857C113.383 84.805 113.502 84.589 113.449 84.396C113.395 84.198 113.184 84.082 112.988 84.134C111.875 84.428 110.91 85.099 110.219 86.014C110.097 86.176 110.193 86.433 110.353 86.527C110.546 86.639 110.745 86.554 110.867 86.392Z" fill="#A35B41"/>
<path d="M106.975 89.022C107.042 89.585 106.785 90.041 106.401 90.041C106.017 90.041 105.651 89.585 105.584 89.022C105.517 88.459 105.774 88.003 106.158 88.003C106.542 88.004 106.908 88.46 106.975 89.022Z" fill="#A35B41"/>
<path d="M112.545 88.02C112.612 88.583 112.355 89.039 111.971 89.039C111.587 89.039 111.221 88.583 111.154 88.02C111.087 87.457 111.344 87.001 111.728 87.001C112.112 87.001 112.478 87.457 112.545 88.02Z" fill="#A35B41"/>
<path d="M108.697 86.211C108.92 87.404 109.271 88.625 109.854 89.696C110.104 90.156 110.434 90.572 110.866 90.874C111.26 91.149 112.097 91.535 111.858 92.155C111.705 92.553 112.432 92.57 112.554 92.252C112.762 91.71 112.476 91.199 112.047 90.862C111.809 90.675 111.537 90.539 111.299 90.353C111.066 90.171 110.877 89.945 110.714 89.7C110.006 88.634 109.654 87.26 109.422 86.016C109.356 85.665 108.63 85.852 108.697 86.211Z" fill="#A35B41"/>
<path d="M100.581 92.05C100.581 92.05 102.689 92.943 104.224 92.866C105.759 92.789 113.128 93.557 114.817 90.41C114.817 90.41 116.356 92.984 116.89 93.941C117.791 95.558 117.504 104.918 110.979 104.227C104.454 103.536 102.142 100.448 102.142 100.448L98.7282 98.34L102.228 99.698C102.228 99.698 104.224 96.704 103.226 94.402C103.226 94.402 101.39 93.306 100.581 92.05Z" fill="#C9E1E2"/>
<path d="M47.7862 196.357L53.9682 203.082C53.9682 203.082 57.9962 181.491 73.9402 181.057L68.2852 176.291C68.2852 176.291 52.3422 178.786 47.7862 196.357Z" fill="#FFAE43"/>
<path d="M158.409 182.167C158.409 182.167 161.645 178.758 164.072 177.486C164.072 177.486 184.066 180.838 186.724 193.955L182.621 201.063C182.621 201.063 171.238 184.825 158.409 182.167Z" fill="#FFAE43"/>
<path d="M279.089 314.566L285.04 312.687L288.394 268.336L279.136 275.814L279.089 314.566Z" fill="#112D35"/>
<path d="M201.149 109.718C205.148 106.337 209.593 103.484 214.333 101.256C215.911 102.554 217.27 103.934 217.835 105.898C218.4 107.862 218.227 110.065 217.192 111.827C211.695 112.959 206.143 113.994 200.616 114.969C201.288 113.187 201.051 111.62 201.149 109.718Z" fill="#BAD4E8"/>
<path d="M264.387 368.543C264.815 366.998 265.331 365.402 265.333 363.826C264.173 364.989 262.894 366.025 261.477 366.889C261.406 370.394 260.615 373.819 260.776 377.321C260.959 381.301 261.918 385.244 263.583 388.863C263.638 388.721 263.695 388.577 263.75 388.435C262.387 381.878 262.599 374.996 264.387 368.543Z" fill="#DD3A4E"/>
<path d="M311.541 301.859C305.228 302.7 299.107 307.31 292.883 308.659C286.109 315.533 280.936 323.974 277.886 333.13C275.858 339.217 274.761 345.591 272.589 351.629C270.979 356.105 268.658 360.493 265.334 363.826C265.332 365.403 264.816 366.998 264.388 368.543C262.599 374.997 262.388 381.878 263.751 388.434C265.346 384.299 267.05 380.028 269.149 376.138C270.771 373.133 272.534 370.207 274.297 367.282C280.24 357.423 286.193 347.547 293.002 338.265C294.641 336.03 296.329 333.831 297.963 331.592C301.265 327.068 304.347 322.382 307.194 317.559C310.02 312.767 312.702 307.3 311.541 301.859Z" fill="#E58A4C"/>
<path d="M254.913 374.8C253.545 375.952 252.676 377.608 252.178 379.326C251.68 381.044 251.525 382.839 251.371 384.622C251.151 387.18 250.931 389.75 251.101 392.313C251.129 392.738 251.173 393.178 251.385 393.547C251.597 393.917 252.024 394.197 252.44 394.106C253.037 393.976 253.247 393.248 253.345 392.644C253.607 391.029 253.869 389.414 254.13 387.799C254.414 390.993 255.26 394.059 256.876 396.829C258.492 399.599 260.882 401.954 263.791 403.303C264.507 403.635 265.278 403.91 266.066 403.864C266.854 403.818 267.662 403.387 267.954 402.654C268.228 401.966 268.008 401.192 267.787 400.485C266.163 395.298 264.538 390.111 262.914 384.925C262.28 382.902 261.636 380.856 260.527 379.049C259.419 377.242 256.951 375.384 254.913 374.8Z" fill="#DD3A4E"/>
<path d="M252.52 308.504C246.797 330.923 259.339 355.149 253.911 377.432C253.539 378.96 253.776 380.572 254.557 381.937C255.98 384.427 257.437 386.896 259.423 388.958C260.15 389.712 261.052 390.509 262.228 389.923C263.2 389.439 263.659 388.31 263.482 387.238C261.237 373.62 262.86 358.797 264.545 345.056C265.998 333.206 267.456 321.325 270.265 309.721C263.581 308.555 259.286 308.002 252.52 308.504Z" fill="#F4A062"/>
<path d="M259.754 130.189C259.754 130.189 236.448 145.188 220.987 162.725L208.988 134.804C208.988 134.804 197.219 129.727 186.836 152.341C186.836 152.341 200.22 188.108 208.065 193.185C215.911 198.262 222.141 200.339 242.909 175.417L246.205 201.196C246.205 201.196 230.233 277.612 215.514 296.715C215.514 296.715 233.992 319.89 279.089 314.566L285.353 272.6L285.04 312.687C285.04 312.687 313.539 308.616 321.682 299.533C321.682 299.533 315.418 242.848 308.215 223.744C301.012 204.64 301.325 172.383 301.325 172.383C301.325 172.383 320.116 195.245 334.522 194.306C348.928 193.367 363.334 164.241 363.334 164.241L352.06 152.967L333.583 169.879C333.583 169.879 299.62 131.779 271.817 127.967L259.754 130.189Z" fill="#1D424F"/>
<path d="M249.174 147.452C249.174 147.452 269.734 167.754 282.404 174.089C283.459 174.616 285.569 173.298 289.525 157.737C293.481 142.177 287.151 135.056 287.151 135.056L272.913 129.532L259.737 132.8L249.174 147.452Z" fill="#FFAE43"/>
<path d="M259.738 132.8C259.738 132.8 256.754 140.26 258.016 141.522C259.278 142.784 270.511 151.366 274.171 155.279C277.831 159.192 279.472 161.337 280.355 160.832C281.238 160.327 284.52 138.998 284.394 138.619C284.268 138.24 274.308 129.911 272.914 129.532C271.52 129.153 259.738 132.8 259.738 132.8Z" fill="#E1F1FF"/>
<path d="M253.251 111.756C253.251 111.756 238.195 107.802 235.154 105.065C235.154 105.065 252.491 84.078 261.92 78.147C261.92 78.147 278.953 86.968 286.404 93.203C286.404 93.203 276.063 109.171 263.136 113.429L253.251 111.756Z" fill="#1D424F"/>
<path d="M282.261 120.73C270.889 123.238 259.494 125.642 248.078 127.941C247.332 128.091 246.412 127.997 245.676 127.801C245.489 127.272 245.716 126.681 246.039 126.222C246.362 125.763 246.782 125.372 247.056 124.882C248.124 122.97 246.588 120.527 247.176 118.417C247.695 116.555 249.682 115.511 250.645 113.835C252.193 111.142 250.745 107.649 251.629 104.671C251.916 103.703 252.445 102.821 253.07 102.028C254.876 99.736 257.548 98.144 260.424 97.646C263.317 97.145 266.235 97.807 269.081 98.525C270.875 98.978 272.66 99.638 274.083 100.821C275.506 102.003 276.526 103.781 276.437 105.629C276.378 106.85 275.855 108.084 276.19 109.259C276.619 110.762 278.337 111.701 278.547 113.25C278.681 114.238 278.149 115.236 278.333 116.216C278.488 117.044 279.12 117.688 279.722 118.277C280.499 119.038 281.485 119.969 282.261 120.73Z" fill="#BF5252"/>
<path d="M262.772 102.536C264.718 104.001 266.78 105.516 269.194 105.843C269.474 106.941 269.99 107.964 270.27 109.063C270.434 109.705 270.599 110.35 270.873 110.954C271.285 111.862 271.93 112.645 272.392 113.528C273.244 115.154 273.439 117.114 272.923 118.876C272.464 120.442 271.492 121.799 270.536 123.121C270.724 124.771 270.934 126.559 271.817 127.967C272.156 128.507 272.585 128.987 272.914 129.533C273.83 131.053 273.886 132.952 273.573 134.699C273.44 135.443 273.219 136.222 272.655 136.727C272.21 137.126 271.604 137.3 271.01 137.361C268.487 137.622 266.174 136.104 263.964 134.858C262.598 134.088 261.186 133.401 259.738 132.801C259.957 131.264 259.905 129.6 260.125 128.062C260.307 126.789 260.488 125.51 260.473 124.225C260.446 122.068 259.85 119.92 258.76 118.059C258.312 118.119 257.792 118.003 257.341 118.025C257.036 118.04 256.726 118.045 256.43 117.966C255.985 117.847 255.613 117.548 255.256 117.257C255.046 117.086 254.834 116.912 254.673 116.694C254.239 116.103 254.257 115.296 254.396 114.576C254.5 114.038 254.668 113.496 255.012 113.069C255.356 112.642 255.905 112.349 256.447 112.43C256.836 112.489 257.176 112.728 257.455 113.006C257.697 113.248 257.905 113.526 258.07 113.826C261.378 111.249 263.352 106.688 262.772 102.536Z" fill="#F4A062"/>
<path d="M268.773 123.318C266.358 123.146 264.21 121.794 262.176 120.481C262.982 122.84 265.063 124.606 267.379 125.529C268.583 126.009 269.848 126.284 271.136 126.438C270.801 125.372 270.662 124.217 270.537 123.122C270.559 123.091 270.581 123.06 270.603 123.03C270.048 123.301 269.396 123.362 268.773 123.318Z" fill="#D88850"/>
<path d="M274.567 97.816C274.336 98.11 272.822 97.077 270.154 96.208C267.524 95.325 263.576 94.753 259.564 95.915C255.556 97.092 252.535 99.696 250.791 101.854C249.008 104.022 248.287 105.706 247.934 105.583C247.658 105.513 247.803 103.55 249.398 100.873C250.188 99.545 251.368 98.087 252.961 96.766C254.548 95.445 256.573 94.291 258.889 93.602C261.213 92.938 263.54 92.823 265.589 93.084C267.643 93.342 269.421 93.937 270.801 94.632C273.585 96.032 274.763 97.609 274.567 97.816Z" fill="#275468"/>
<path d="M210.566 139.695C210.566 139.695 198.462 150.232 186.836 152.341C186.836 152.341 193.875 131.937 208.988 134.804C208.988 134.804 211.74 136.954 210.566 139.695Z" fill="#143038"/>
<path d="M259.754 130.189C259.754 130.189 250.376 133.194 247.75 137.922C247.75 137.922 246.437 153.68 253.003 160.508C259.569 167.337 261.933 180.468 261.67 188.085C261.407 195.701 261.67 214.086 271.65 220.126C271.65 220.126 275.064 216.186 275.852 210.671C275.852 210.671 282.418 211.984 283.468 209.883C284.518 207.782 280.579 205.681 279.003 202.267C277.427 198.853 276.639 167.337 272.437 161.296C268.235 155.255 257.313 146.356 259.754 130.189Z" fill="#32ABBF"/>
<path d="M287.534 132.004C293.443 137.768 295.389 146.382 296.748 154.524C298.107 162.666 299.308 171.248 304.262 177.851C305.618 179.658 307.289 181.311 309.381 182.165C311.864 183.178 314.194 183.083 316.866 182.855C315.689 185.14 313.502 187.553 311.497 189.161C312.332 191.686 313.296 194.201 313.209 196.859C307.245 198.464 300.48 196.621 296.154 192.213C292.989 188.988 291.196 184.679 289.763 180.393C287.919 174.875 286.538 169.072 287.062 163.278C287.375 159.814 288.362 156.445 288.832 152.999C289.302 149.553 289.207 145.868 287.505 142.835C283.834 136.293 273.889 134.589 271.616 127.44C277.542 128.217 283.255 127.83 287.534 132.004Z" fill="#32ABBF"/>
<path d="M287.158 259.143C286.806 259.112 286.939 254.67 287.076 247.51C287.216 240.35 287.278 230.465 286.841 219.56C286.394 208.656 285.533 198.809 284.809 191.684C284.089 184.559 283.592 180.142 283.941 180.083C284.248 180.03 285.341 184.354 286.499 191.463C287.661 198.569 288.8 208.473 289.25 219.462C289.69 230.452 289.357 240.415 288.779 247.592C288.203 254.772 287.469 259.171 287.158 259.143Z" fill="#2F6477"/>
<path d="M210.566 139.695C208.008 133.371 205.449 127.048 202.891 120.724C203.31 119.666 203.669 119.075 204.088 118.017C204.475 117.039 204.867 116.042 204.946 114.992C205.025 113.943 204.743 112.814 203.965 112.105C203.937 111.594 203.819 111.191 203.791 110.68C203.76 110.114 203.707 109.494 203.313 109.087C203.053 108.819 202.686 108.689 202.33 108.577C202.015 108.477 201.685 108.384 201.359 108.437C201.033 108.49 200.715 108.734 200.685 109.063C200.206 108.68 199.596 108.292 199.008 108.466C198.42 108.64 197.93 109.114 197.737 109.696C196.552 109.44 194.955 109.983 194.448 111.085C192.534 110.953 190.556 112.567 190.534 114.485C190.522 115.526 191.245 116.299 191.916 117.095C193.707 119.222 195.55 121.305 197.443 123.342C198.029 127.358 198.639 131.6 199.622 135.538C200.228 137.964 201.349 143.353 202.554 145.544C205.367 144.536 207.871 140.983 210.566 139.695Z" fill="#F4A062"/>
<path d="M202.344 114.928C202.437 115.066 201.852 115.644 200.831 116.467C200.32 116.879 199.701 117.352 199.002 117.862C198.641 118.103 198.339 118.407 197.732 118.658C197.436 118.775 197.034 118.818 196.69 118.731C196.343 118.65 196.046 118.481 195.797 118.28C195.287 117.864 195.025 117.343 194.802 116.936C194.583 116.514 194.393 116.195 194.147 115.892C193.664 115.294 193.081 114.867 192.551 114.584C191.482 114.01 190.66 113.965 190.661 113.778C190.638 113.64 191.522 113.349 192.888 113.801C193.558 114.026 194.323 114.455 194.983 115.16C195.687 115.861 196.02 116.93 196.559 117.345C196.858 117.574 197.081 117.634 197.336 117.547C197.613 117.46 198.015 117.164 198.381 116.943C199.114 116.484 199.783 116.084 200.354 115.762C201.497 115.119 202.251 114.79 202.344 114.928Z" fill="#D88044"/>
<path d="M202.203 119.35C202.229 119.42 201.86 119.562 201.446 119.161C201.259 118.97 201.081 118.657 201.08 118.245C201.074 117.852 201.227 117.434 201.444 117.063C201.661 116.685 201.936 116.349 202.112 116.005C202.297 115.674 202.324 115.32 202.202 115.098C202.214 114.723 200.728 115.036 199.602 115.117C199.31 115.147 198.96 115.178 198.608 115.143C198.258 115.106 197.837 115.018 197.474 114.69C197.11 114.371 196.963 113.833 197.037 113.43C197.092 113.021 197.309 112.664 197.546 112.424C198.042 111.943 198.519 111.755 198.983 111.558C199.449 111.377 199.902 111.268 200.318 111.212C202.009 111.011 202.968 111.54 202.916 111.668C202.88 111.853 201.904 111.667 200.486 112.048C200.135 112.146 199.761 112.284 199.385 112.473C199.02 112.659 198.588 112.91 198.361 113.178C198.129 113.44 198.14 113.752 198.267 113.816C198.391 113.949 198.924 113.997 199.485 113.917C200.08 113.863 200.662 113.811 201.224 113.76C201.521 113.739 201.862 113.715 202.249 113.819C202.638 113.911 203.045 114.236 203.201 114.615C203.528 115.356 203.261 116.074 202.972 116.51C202.677 116.959 202.362 117.256 202.152 117.533C201.699 118.09 201.65 118.554 201.818 118.877C201.967 119.197 202.209 119.262 202.203 119.35Z" fill="#D88044"/>
<path d="M190.78 113.772C185.627 115.59 180.446 117.326 175.238 118.98C173.416 119.559 172.121 121.197 172.041 123.107C172.022 123.568 172.041 124.041 172.113 124.539C172.302 125.845 172.575 127.156 173.163 128.337C173.746 129.507 174.669 130.549 175.871 131.061C177.052 131.564 178.868 131.218 179.859 130.402C181.862 128.752 184.151 128.056 186.116 126.312C187.601 124.994 188.904 123.488 190.202 121.986C191.19 120.842 192.179 119.699 193.167 118.556C193.592 118.064 194.482 117.373 194.552 116.726C194.691 115.453 192.083 114.291 190.78 113.772Z" fill="#BAD4E8"/>
<path d="M189.23 118.603C189.45 118.83 186.12 122.215 181.106 125.166C180.487 125.519 179.872 125.926 179.093 126.147C178.709 126.253 178.274 126.305 177.844 126.217C177.414 126.141 177.02 125.911 176.734 125.643C176.161 125.09 175.915 124.435 175.766 123.853C175.625 123.275 175.566 122.769 175.47 122.337C175.307 121.468 174.918 120.924 174.546 120.634C174.182 120.347 173.882 120.322 173.881 120.228C173.865 120.163 174.204 119.998 174.776 120.225C175.333 120.428 176 121.136 176.29 122.106C176.61 123.039 176.743 124.191 177.477 124.817C177.823 125.108 178.235 125.174 178.77 125.012C179.298 124.856 179.873 124.489 180.494 124.129C185.389 121.25 189.001 118.34 189.23 118.603Z" fill="#81B0D3"/>
<path d="M264.685 108.622C263.319 108.39 261.905 108.875 260.956 109.879C260.703 110.147 261.147 110.508 261.399 110.241C262.206 109.387 263.431 108.989 264.587 109.185C264.951 109.247 265.048 108.683 264.685 108.622Z" fill="#BC6A51"/>
<path d="M267.685 108.411C267.711 108.395 267.731 108.384 267.781 108.357C267.821 108.335 267.862 108.314 267.903 108.294C267.985 108.254 268.069 108.216 268.154 108.182C268.345 108.106 268.475 108.066 268.668 108.025C269.055 107.943 269.378 107.929 269.763 107.975C269.916 107.993 270.062 107.874 270.078 107.722C270.095 107.567 269.978 107.425 269.824 107.407C268.952 107.303 268.079 107.507 267.332 107.962C267.2 108.042 267.196 108.252 267.283 108.364C267.388 108.496 267.553 108.491 267.685 108.411Z" fill="#BC6A51"/>
<path d="M264.673 110.984C264.724 111.413 264.528 111.761 264.235 111.761C263.942 111.761 263.663 111.413 263.612 110.984C263.561 110.555 263.757 110.207 264.05 110.207C264.343 110.207 264.622 110.555 264.673 110.984Z" fill="#BC6A51"/>
<path d="M268.921 110.219C268.972 110.648 268.776 110.996 268.483 110.996C268.19 110.996 267.911 110.648 267.86 110.219C267.809 109.79 268.005 109.442 268.298 109.442C268.591 109.442 268.87 109.79 268.921 110.219Z" fill="#BC6A51"/>
<path d="M265.986 108.84C266.156 109.75 266.424 110.681 266.869 111.498C267.06 111.849 267.311 112.166 267.641 112.396C267.941 112.606 268.58 112.9 268.398 113.373C268.281 113.676 268.836 113.689 268.929 113.447C269.088 113.034 268.869 112.644 268.542 112.387C268.361 112.245 268.153 112.141 267.971 111.999C267.793 111.861 267.649 111.688 267.525 111.501C266.985 110.687 266.717 109.64 266.539 108.691C266.488 108.423 265.935 108.566 265.986 108.84Z" fill="#BC6A51"/>
<path d="M258.078 113.753C258.078 113.753 260.966 113.511 262.276 113.446C263.587 113.381 269.658 114.047 271.099 111.36C271.099 111.36 272.571 114.065 272.894 114.739C273.545 116.1 273.276 124.916 267.791 123.326C262.412 121.767 260.499 119.918 260.499 119.918L258.676 118.047L260.541 118.997C260.541 118.997 261.956 117.056 261.104 115.091C261.104 115.091 258.768 114.826 258.078 113.753Z" fill="#C9E1E2"/>
<path d="M216.696 152.488C216.669 152.398 216.652 152.336 216.64 152.286C216.591 152.197 216.531 152.086 216.449 151.928C216.183 151.415 215.913 150.901 215.661 150.38C215.551 150.152 215.454 149.916 215.347 149.687C205.836 160.357 189.148 158.045 189.148 158.045L191.46 164.378C202.612 170.025 216.088 156.926 217.868 155.383C217.492 154.388 216.997 153.486 216.696 152.488Z" fill="#FFAE43"/>
<path d="M352.06 152.967L345.101 159.371C345.101 159.371 349.823 171.563 359.01 171.82L363.334 164.241L352.06 152.967Z" fill="#FFAE43"/>
<path d="M573.112 334.131C572.862 349.397 572.446 376.755 572.196 392.021C575.147 390.227 577.853 387.871 580.05 385.207C579.47 384.372 579.342 382.985 579.315 381.969C578.973 369.099 590.266 348.719 592.562 334.401C591.364 334.057 585.702 332.034 584.458 332.105C579 332.415 578.561 333.686 573.112 334.131Z" fill="#F4A062"/>
<path d="M572.302 391.232C572.302 391.232 564.692 403.555 566.361 405.211C566.361 405.211 569.559 407.066 574.458 398.884C576.902 394.802 578.069 391.286 578.694 391.303C579.319 391.319 578.89 394.866 580.03 395.376L582.284 393.752C582.284 393.752 584.275 385.293 580.051 385.208C575.826 385.122 578.341 390.091 572.302 391.232Z" fill="#D83232"/>
<path d="M508.894 325.281C512.033 340.223 515.172 355.165 518.311 370.107C520.791 367.704 522.908 364.807 524.46 361.722C523.71 361.036 523.277 359.712 523.026 358.728C519.841 346.254 526.105 333.779 526.705 320.918C525.46 320.848 523.928 321.938 522.73 322.282C517.476 323.795 514.109 323.639 508.894 325.281Z" fill="#F4A062"/>
<path d="M640.186 50.582L642.927 60.246C642.927 60.246 634.128 73.083 616.82 68.612L616.531 58.66L640.186 50.582Z" fill="#275468"/>
<path d="M613.957 69.559C613.957 69.559 612.034 57.539 614.117 57.058C616.2 56.577 621.008 56.898 621.329 57.378C621.649 57.859 619.98 68.254 619.98 68.254L613.957 69.559Z" fill="#F4A062"/>
<path d="M544.488 116.694C539.82 115.607 534.567 118.539 533.043 123.083C532.8 123.806 532.642 124.579 532.768 125.332C533.145 127.594 535.804 128.766 536.663 130.893C537.738 133.553 535.69 136.834 537.064 139.352C538.02 141.103 540.394 141.918 540.89 143.85C541.246 145.236 540.475 146.638 540.289 148.056C540.028 150.051 540.965 152.054 542.329 153.534C543.693 155.014 545.451 156.06 547.183 157.085C549.849 158.663 551.04 161.266 552.947 163.707C557.057 168.967 560.995 174.362 564.751 179.88C568.231 184.992 571.627 190.291 576.366 194.263C581.105 198.235 587.536 200.74 593.528 199.207C596.434 198.464 599.029 196.84 601.506 195.149C603.919 193.501 606.297 191.742 608.183 189.509C610.069 187.276 611.444 184.509 611.55 181.589C611.649 178.877 610.656 176.226 609.301 173.874C608.158 171.889 606.691 169.847 606.901 167.566C607.019 166.279 607.668 165.109 608.058 163.877C609.576 159.077 607.082 154.016 604.615 149.628C603.765 148.117 602.849 146.545 601.368 145.644C600.315 145.002 599.03 144.74 598.109 143.92C594.988 141.143 591.295 139.832 588.929 136.389C587.591 134.442 586.463 132.283 584.632 130.791C581.769 128.458 577.642 128.127 574.842 125.719C572.511 123.715 569.985 121.558 566.924 121.266C566.119 121.189 565.284 121.203 564.537 120.891C563.065 120.276 562.381 118.632 561.511 117.295C559.628 114.399 556.25 112.536 552.796 112.49C549.345 112.444 546.447 113.85 544.488 116.694Z" fill="#35663E"/>
<path d="M551.547 286.642C549.844 304.892 541.436 328.996 539.142 335.317C545.195 336.455 550.789 337.245 555.962 337.752C560.24 323.4 551.547 286.642 551.547 286.642Z" fill="#112D35"/>
<path d="M632.983 98.645C623.849 83.064 608 83.333 608 83.333L601.821 116.913L582.21 132.225C554.809 145.926 533.808 162.255 533.808 162.255L541.279 181.591C551.277 213.252 515.728 250.469 507.951 267.688C500.175 284.907 505.174 326.567 505.174 326.567C517.84 330.604 529.113 333.431 539.142 335.316C541.436 328.995 549.843 304.891 551.547 286.641C551.547 286.641 560.24 323.399 555.962 337.751C602.359 342.296 614.6 323.79 614.6 323.79C613.489 307.126 600.713 291.018 602.38 274.354C604.046 257.69 596.27 221.585 596.27 221.585C596.826 207.143 592.687 164.462 592.687 164.462C592.687 164.462 621.969 128.733 624.118 125.778C626.267 122.823 632.983 98.645 632.983 98.645Z" fill="#1D424F"/>
<path d="M558.224 183.893C558.867 184.913 559.752 186.063 560.954 185.972C563.011 179.862 565.005 173.732 566.937 167.581C568.512 162.566 570.063 157.388 569.629 152.149C569.551 151.205 569.356 150.172 568.615 149.583C567.717 148.87 566.417 149.101 565.314 149.414C559.08 151.184 553.279 154.462 548.547 158.889C544.528 162.649 546.479 165.345 548.924 169.132C552.077 174.016 555.124 178.974 558.224 183.893Z" fill="#FFAE43"/>
<path d="M557.511 174.569C557.739 175.015 558.025 175.508 558.513 175.623C559.483 175.852 559.99 174.522 560.098 173.532C561.187 163.584 565.121 154.208 567.914 144.598C568.17 143.717 568.35 142.602 567.637 142.025C567.067 141.564 566.232 141.722 565.532 141.938C561.558 143.165 558.026 145.484 554.554 147.774C550.897 150.186 545.76 153.665 548.736 158.381C552.017 163.581 554.704 169.087 557.511 174.569Z" fill="#E1F1FF"/>
<path d="M477.944 163.662C477.944 163.662 490.395 194.815 500.483 205.82C500.483 205.82 503.005 213.157 515.845 205.591C528.685 198.025 549.32 178.306 549.32 178.306L550.237 151.021L514.24 175.554L493.807 143.472L477.944 163.662Z" fill="#1D424F"/>
<path d="M480.129 119.422L492.455 102.063C492.455 102.063 503.035 101.241 501.391 113.772L485.003 123.663L480.129 119.422Z" fill="#BAD4E8"/>
<path d="M477.944 163.662C479.252 163.512 480.258 162.479 481.147 161.508C483.654 158.77 486.167 156.028 488.461 153.107C489.951 151.211 494.735 146.119 493.807 143.473C491.731 137.555 482.464 150.691 481.485 152.51C479.626 155.964 478.397 159.762 477.944 163.662Z" fill="#143038"/>
<path d="M488.462 153.107L483.237 138.898C483.237 138.898 479.151 133.223 478.47 132.996C477.789 132.769 473.022 128.91 475.065 124.597C477.108 120.284 478.47 118.014 481.194 119.149L482.783 120.511C482.783 120.511 484.145 118.695 485.28 120.057C486.415 121.419 485.961 125.505 485.961 126.186C485.961 126.867 486.642 130.272 486.642 130.272L493.808 143.474C493.808 143.474 493.46 148.475 488.462 153.107Z" fill="#F4A062"/>
<path d="M486.319 130.071C486.295 130.207 485.495 130.22 484.521 129.443C484.05 129.058 483.562 128.451 483.3 127.648C483.168 127.25 483.09 126.81 483.087 126.349C483.087 126.189 483.086 126.213 483.084 126.206L483.079 126.204L483.073 126.208L483.072 126.209V126.206L482.844 126.262C482.702 126.289 482.556 126.31 482.399 126.304C481.756 126.324 481.125 125.833 480.943 125.316C480.577 124.288 480.886 123.535 481.074 122.951C481.544 121.762 482.19 121.274 482.303 121.37C482.449 121.473 482.093 122.115 481.893 123.185C481.801 123.705 481.72 124.417 481.952 124.852C482.064 125.05 482.197 125.124 482.409 125.122C482.462 125.123 482.528 125.111 482.596 125.096L482.703 125.067C482.791 125.031 482.889 124.998 482.988 124.95C483.388 124.755 483.863 124.404 484.326 124.108L485.003 123.663C484.706 124.592 484.184 125.95 484.256 126.364C484.241 126.705 484.277 127.038 484.349 127.344C484.491 127.959 484.789 128.466 485.104 128.851C485.744 129.622 486.378 129.906 486.319 130.071Z" fill="#D88850"/>
<path d="M483.166 125.416C483.465 125.546 483.203 126.766 482.242 127.904C481.286 129.047 480.41 129.452 480.232 129.179C480.039 128.899 480.484 128.133 481.32 127.128C482.166 126.132 482.858 125.273 483.166 125.416Z" fill="#D88850"/>
<path d="M487.296 119.701C486.853 119.205 489.263 116.33 492.68 113.281C496.097 110.232 499.225 108.163 499.668 108.659C500.111 109.155 497.701 112.03 494.284 115.079C490.868 118.128 487.739 120.198 487.296 119.701Z" fill="#81B0D3"/>
<path d="M552.393 148.779C547.649 149.869 543.568 153.338 540.797 156.471C540.516 165.747 540.685 175.242 540.404 184.518C540.296 188.097 540.175 191.744 538.974 195.117C535.254 205.565 522.631 210.232 517.371 219.996C517.01 220.213 517.88 219.75 517.519 219.966C522.33 218.843 526.321 218.152 531.068 216.784C531.21 218.931 531.353 221.079 531.495 223.226C531.54 223.905 531.768 224.78 532.447 224.822C532.771 224.842 533.064 224.643 533.315 224.438C535.605 222.568 536.411 219.522 538.509 217.563C540.318 215.874 543.014 215.209 545.062 213.678C550.906 209.308 553.969 200.505 553.788 193.265C553.626 186.787 551.609 180.509 550.721 174.09C549.555 165.645 549.667 156.858 552.393 148.779Z" fill="#32ABBF"/>
<path d="M583.871 221.782C591.205 214.835 593.388 203.785 592.057 193.771C590.726 183.757 586.376 174.438 582.29 165.2C578.204 155.961 573.414 146.712 573.007 136.619C570.023 137.765 567.18 139.275 564.559 141.105C563.678 153.974 567.87 166.473 572.662 178.448C575.127 184.606 577.865 191.049 577.014 197.627C576.459 201.913 574.416 205.843 572.406 209.669C571.198 211.968 569.991 214.267 568.783 216.566C572.464 215.698 575.893 213.843 578.755 211.37C580.283 215.404 582.343 217.748 583.871 221.782Z" fill="#32ABBF"/>
<path d="M544.928 118.679C541.654 121.167 539.011 125.098 539.629 129.163C539.827 130.467 540.347 131.699 540.659 132.98C541.221 135.291 541.101 137.734 541.745 140.024C542.389 142.314 544.169 144.583 546.547 144.629C548.188 144.661 549.649 143.638 550.891 142.566C552.992 145.184 552.99 148.543 552.724 151.89C552.458 155.236 552.187 158.877 554.043 161.675C554.629 162.559 555.469 163.344 556.51 163.551C557.69 163.785 558.923 163.214 559.74 162.332C560.557 161.45 561.019 160.298 561.356 159.143C562.939 153.715 562.118 147.752 564.067 142.445C561.375 140.68 559.905 137.11 558.892 134.055C559.372 134.348 559.919 133.84 560.401 133.552C560.883 133.264 561.231 132.795 561.508 132.306C561.996 131.446 562.309 130.446 562.156 129.47C562.003 128.494 561.302 127.566 560.336 127.355C559.057 127.076 557.815 128.1 557.254 129.283C555.251 127.991 553.082 126.581 550.792 125.92C549.654 125.592 548.457 125.329 547.513 124.614C545.736 123.269 544.818 120.906 544.928 118.679Z" fill="#F4A062"/>
<path d="M607.999 83.333C607.999 83.333 618.726 99.331 632.982 98.645C632.982 98.645 629.669 84.152 607.999 83.333Z" fill="#143038"/>
<path d="M611.972 68.421C610.681 73.173 607.99 83.33 607.99 83.33C607.99 83.33 609.119 84.885 610.031 85.914C611.995 88.13 614.341 90.913 616.947 92.755C618.285 87.006 618.999 79.818 619.498 73.937C619.658 72.043 619.819 70.149 619.98 68.255C617.337 67.74 614.613 67.889 611.972 68.421Z" fill="#F4A062"/>
<path d="M622.077 44.489L605.207 60.048L630.757 61.85L647.299 44.653C647.299 44.653 631.904 43.834 622.077 44.489Z" fill="#1D424F"/>
<path d="M612.276 70.155C610.744 67.361 609.606 64.351 608.906 61.243C608.631 60.024 608.423 58.768 608.576 57.527C608.715 56.4 609.147 55.333 609.576 54.282C609.882 53.53 610.466 52.625 611.253 52.825C611.688 52.936 611.97 53.379 612.046 53.821C612.122 54.264 612.037 54.715 611.985 55.161C611.683 57.745 612.535 60.443 614.268 62.384C614.025 63.299 614.561 64.401 614.615 65.347C614.669 66.292 614.681 67.275 614.304 68.144C613.927 69.012 613.219 70.236 612.276 70.155Z" fill="#F4A062"/>
<path d="M638.519 48.87C639.718 48.205 641.289 48.921 642.097 50.028C642.905 51.135 643.178 52.529 643.579 53.841C644.117 55.603 644.965 57.344 646.407 58.491C647.842 59.632 649.699 60.062 651.363 60.833C654.381 62.23 656.813 64.847 657.986 67.959C656.9 67.678 655.699 67.604 654.613 67.322C654.454 68.331 654.186 69.546 654.027 70.555C652.794 69.015 653.112 66.815 652.42 64.968C651.602 62.784 649.378 61.502 647.274 60.496C645.17 59.49 642.888 58.463 641.693 56.46C640.317 54.155 640.559 50.614 638.519 48.87Z" fill="#FFAE43"/>
<path d="M518.239 369.315C518.239 369.315 514.787 378.833 515.544 384.263C515.544 384.263 516.198 385.094 517.081 384.403C518.789 383.067 521.391 379.368 522.038 376.299C523.018 371.643 523.876 368.09 524.488 367.968C525.101 367.846 525.468 371.399 526.693 371.644L528.531 369.561C528.531 369.561 528.598 360.871 524.46 361.724C520.322 362.576 523.875 366.864 518.239 369.315Z" fill="#D83232"/>
<path d="M550.573 286.531C550.064 286.293 552.199 281.293 554.585 272.948C555.782 268.779 556.96 263.752 557.884 258.115C558.775 252.472 559.386 246.216 559.394 239.626C559.431 233.031 559 226.682 558.846 220.858C558.656 215.038 558.741 209.734 559.21 205.301C559.669 200.867 560.447 197.322 561.222 194.952C562.001 192.581 562.639 191.35 562.86 191.419C563.42 191.585 561.964 196.817 561.76 205.468C561.627 209.789 561.803 214.945 562.173 220.708C562.506 226.47 563.044 232.85 563.008 239.644C563 246.444 562.264 252.914 561.163 258.693C560.028 264.47 558.555 269.571 557.015 273.735C553.94 282.08 550.959 286.728 550.573 286.531Z" fill="#275468"/>
<path d="M545.451 127.846C546.703 126.906 548.374 126.662 549.847 127.18C550.239 127.318 549.981 127.91 549.589 127.773C548.336 127.333 546.9 127.567 545.841 128.362C545.508 128.611 545.118 128.096 545.451 127.846Z" fill="#BC6A51"/>
<path d="M542.329 129.186C542.295 129.183 542.269 129.182 542.205 129.181C542.153 129.18 542.101 129.18 542.05 129.181C541.946 129.183 541.843 129.189 541.74 129.199C541.508 129.221 541.357 129.249 541.143 129.307C540.712 129.425 540.38 129.577 540.017 129.823C539.872 129.921 539.665 129.876 539.569 129.732C539.471 129.585 539.515 129.382 539.66 129.284C540.481 128.729 541.464 128.483 542.45 128.553C542.624 128.565 542.737 128.774 542.707 128.931C542.671 129.117 542.504 129.198 542.329 129.186Z" fill="#BC6A51"/>
<path d="M546.685 130.212C546.856 130.67 547.233 130.917 547.527 130.766C547.821 130.614 547.922 130.121 547.751 129.663C547.58 129.206 547.203 128.958 546.909 129.109C546.615 129.261 546.514 129.755 546.685 130.212Z" fill="#BC6A51"/>
<path d="M542.023 131.641C542.194 132.099 542.57 132.347 542.865 132.195C543.159 132.043 543.26 131.55 543.089 131.092C542.918 130.635 542.542 130.387 542.247 130.538C541.953 130.69 541.852 131.184 542.023 131.641Z" fill="#BC6A51"/>
<path d="M544.257 128.738C544.557 129.74 544.769 130.814 544.745 131.864C544.735 132.315 544.646 132.764 544.435 133.165C544.242 133.531 543.753 134.157 544.18 134.538C544.454 134.782 543.904 135.082 543.685 134.887C543.312 134.554 543.33 134.05 543.526 133.623C543.634 133.386 543.79 133.174 543.899 132.938C544.006 132.707 544.062 132.459 544.09 132.207C544.211 131.111 543.939 129.919 543.627 128.875C543.537 128.58 544.167 128.436 544.257 128.738Z" fill="#BC6A51"/>
<path d="M557.442 128.713C557.442 128.713 554.029 129.651 552.498 130.128C550.968 130.604 543.551 136.228 540.768 133.754C540.768 133.754 541.067 136.205 541.109 137.568C541.245 142.063 544.002 148.647 549.623 144.516C555.135 140.464 557.26 136.801 557.26 136.801L558.819 134.163L558.542 134.385C557.407 135.296 555.683 134.99 555.017 133.695C555.007 133.676 554.997 133.656 554.988 133.637C554.49 132.637 554.85 131.421 555.755 130.765C556.467 130.248 557.263 129.513 557.442 128.713Z" fill="#C9E1E2"/>
<path d="M480.055 168.886C480.055 168.886 499.479 160.417 498.003 149.772L505.318 161.132C505.318 161.132 496.338 179.262 482.443 174.01L480.055 168.886Z" fill="#FFAE43"/>
<path d="M607.024 88.853C607.024 88.853 616.824 104.533 631.798 102.416L628.384 114.738C628.384 114.738 612.59 109.472 605.534 96.379L607.024 88.853Z" fill="#FFAE43"/>
<path d="M423.234 39.464H360.685V76.748H423.234V39.464Z" fill="#BAD4E8"/>
<path d="M416.662 51.498H365.835C365.448 51.498 365.131 51.181 365.131 50.794C365.131 50.407 365.448 50.09 365.835 50.09H416.662C417.049 50.09 417.366 50.407 417.366 50.794C417.366 51.181 417.049 51.498 416.662 51.498Z" fill="#81B0D3"/>
<path d="M416.662 56.972H365.835C365.448 56.972 365.131 56.655 365.131 56.268C365.131 55.881 365.448 55.564 365.835 55.564H416.662C417.049 55.564 417.366 55.881 417.366 56.268C417.366 56.655 417.049 56.972 416.662 56.972Z" fill="#81B0D3"/>
<path d="M416.662 62.446H365.835C365.448 62.446 365.131 62.129 365.131 61.742C365.131 61.355 365.448 61.038 365.835 61.038H416.662C417.049 61.038 417.366 61.355 417.366 61.742C417.366 62.129 417.049 62.446 416.662 62.446Z" fill="#81B0D3"/>
<path d="M399.322 67.919H365.835C365.448 67.919 365.131 67.602 365.131 67.215C365.131 66.828 365.448 66.511 365.835 66.511H399.322C399.709 66.511 400.026 66.828 400.026 67.215C400.026 67.602 399.71 67.919 399.322 67.919Z" fill="#81B0D3"/>
<path d="M408.808 46.408H375.321C374.934 46.408 374.617 46.091 374.617 45.704C374.617 45.317 374.934 45 375.321 45H408.808C409.195 45 409.512 45.317 409.512 45.704C409.511 46.091 409.195 46.408 408.808 46.408Z" fill="#81B0D3"/>
<path d="M343.313 79.399C348.261 73.687 353.295 67.839 356.142 60.838C358.212 55.746 359.354 49.754 363.811 46.538C364.19 46.265 364.444 46.726 364.511 47.188C364.578 47.65 364.31 48.087 364.053 48.477C363.438 49.411 362.823 50.345 362.207 51.28C363.321 50.38 364.809 49.666 366.209 49.362C366.45 50.327 365.679 51.216 365.03 51.971C364.076 53.079 363.265 54.31 362.624 55.624C363.543 54.818 364.899 54.365 366.068 54.007C366.263 53.947 366.48 53.895 366.667 53.977C367.122 54.177 366.964 54.859 366.712 55.288C365.855 56.751 364.76 58.073 363.483 59.188C363.939 58.543 365.117 58.345 365.89 58.51C366.142 59.811 365.272 60.207 364.258 62.003C362.417 65.262 362.622 66.183 361.59 68.414C360.976 69.741 359.112 69.989 358.223 71.15C354.601 75.882 353.02 82.694 351.33 88.408C351.034 88.572 351.238 87.925 351.015 87.672C350.096 86.631 348.776 86.056 347.624 85.28C345.707 83.987 344.088 81.579 343.313 79.399Z" fill="#F4A062"/>
<path d="M439.808 79.399C434.86 73.687 429.826 67.839 426.98 60.838C424.91 55.746 423.768 49.754 419.311 46.538C418.932 46.265 418.678 46.726 418.611 47.188C418.544 47.65 418.812 48.087 419.069 48.477C419.684 49.411 420.3 50.345 420.915 51.28C419.801 50.38 418.313 49.666 416.913 49.362C416.672 50.327 417.443 51.216 418.092 51.971C419.046 53.079 419.857 54.31 420.498 55.624C419.579 54.818 418.223 54.365 417.054 54.007C416.858 53.947 416.642 53.895 416.455 53.977C416 54.177 416.158 54.859 416.41 55.288C417.267 56.751 418.362 58.073 419.639 59.188C419.183 58.543 418.005 58.345 417.232 58.51C416.98 59.811 417.85 60.207 418.864 62.003C420.705 65.262 420.5 66.183 421.532 68.414C422.146 69.741 424.01 69.989 424.899 71.15C428.521 75.882 430.102 82.694 431.791 88.408C432.087 88.572 431.883 87.925 432.106 87.672C433.025 86.631 434.345 86.056 435.497 85.28C437.414 83.987 439.033 81.579 439.808 79.399Z" fill="#F4A062"/>
<path d="M349.114 369L343.009 382.662C343.009 382.662 328.184 395.743 327.603 402.429C327.022 409.115 344.754 394.58 347.37 393.127C349.986 391.674 353.474 387.604 353.474 380.918C353.475 374.233 349.114 369 349.114 369Z" fill="#244F5B"/>
<path d="M348.533 320.456C348.533 320.456 343.882 367.838 340.975 380.628C340.975 380.628 344.754 388.477 354.347 384.407C354.347 384.407 367.428 344.873 367.719 325.397L348.533 320.456Z" fill="#112D35"/>
<path d="M435.572 369L441.676 382.662C441.676 382.662 456.501 395.743 457.083 402.429C457.664 409.115 439.932 394.58 437.316 393.127C434.7 391.674 431.212 387.604 431.212 380.918C431.212 374.233 435.572 369 435.572 369Z" fill="#244F5B"/>
<path d="M436.153 320.456C436.153 320.456 440.804 367.838 443.711 380.628C443.711 380.628 439.932 388.477 430.339 384.407C430.339 384.407 417.258 344.873 416.967 325.397L436.153 320.456Z" fill="#112D35"/>
<path d="M382.424 333.386L400.876 333.517L394.985 264.058L382.424 333.386Z" fill="#112D35"/>
<path d="M437.584 237.108C433.237 212.766 432.803 165.386 432.803 165.386C439.758 159.3 463.231 124.091 461.927 113.659C460.623 103.227 446.279 71.06 446.279 71.06L426.718 85.404C428.457 91.49 439.758 115.832 439.758 115.832L409.33 136.697L384.785 137.917L352.387 116.702L361.081 87.578L341.955 74.103C331.523 94.533 322.394 118.006 328.48 129.742C334.566 141.478 360.647 165.386 360.647 165.386C360.647 165.386 362.386 208.854 362.82 214.505C363.255 220.156 354.996 231.458 350.214 246.237C345.433 261.016 322.394 307.527 322.394 307.527C341.527 324.676 362.647 331.701 382.425 333.386L393.682 277.099L400.876 333.517C433.336 331.343 458.449 317.525 458.449 317.525C458.884 309.266 452.363 292.748 450.19 284.054C448.017 275.36 441.931 261.45 437.584 237.108Z" fill="#1D424F"/>
<path d="M378.072 157.054C378.072 157.054 389.404 178.566 394.238 186.262C394.97 187.427 396.676 187.385 397.354 186.187L415.582 153.991L410.595 144.102L381.48 144.676L378.072 157.054Z" fill="#FFAE43"/>
<path d="M384.785 137.916L381.481 144.677C381.481 144.677 393.959 170.206 395.68 169.776C397.401 169.346 410.596 144.103 410.596 144.103L405.475 136.936L384.785 137.916Z" fill="#E1F1FF"/>
<path d="M387.099 109.074C387.099 109.074 374.747 105.824 369.847 102.899C369.847 102.899 388.129 90.028 396.613 88.419C396.613 88.419 414.6 97.145 422.039 102.867C422.039 102.867 409.202 109.517 403.547 111.17L387.099 109.074Z" fill="#1D424F"/>
<path d="M387.88 119.369C387.068 118.18 386.251 116.983 385.672 115.665C385.093 114.347 384.759 112.887 384.962 111.462C385.045 110.881 385.223 110.298 385.584 109.835C385.945 109.372 386.512 109.044 387.099 109.074C386.773 107.935 386.445 106.72 386.397 105.537C386.349 104.354 386.607 103.117 387.345 102.191C388.275 101.024 389.826 100.517 391.316 100.43C391.979 100.391 392.658 100.425 393.282 100.653C394.357 101.045 395.26 101.997 396.404 101.986C396.946 101.981 397.457 101.753 397.965 101.565C398.748 101.275 399.582 101.07 400.412 101.157C401.242 101.244 402.069 101.664 402.487 102.387C402.786 102.904 402.86 103.536 403.204 104.024C403.827 104.907 405.079 105.022 405.99 105.604C406.538 105.955 406.957 106.474 407.316 107.017C407.767 107.697 408.149 108.453 408.214 109.267C408.291 110.241 407.902 111.199 407.371 112.02C406.84 112.84 406.167 113.558 405.582 114.34C404.937 115.203 404.401 116.145 403.988 117.14C403.12 119.233 400.315 119.542 398.103 120.037C395.569 120.605 392.958 121.176 390.396 120.75C389.463 120.595 388.414 120.15 387.88 119.369Z" fill="#8C5B3A"/>
<path d="M406.773 101.267C406.499 101.51 405.368 100.488 403.304 99.44C401.271 98.385 398.153 97.396 394.753 97.773C391.355 98.162 388.534 99.819 386.787 101.3C385.007 102.781 384.133 104.029 383.811 103.853C383.545 103.731 383.9 102.11 385.582 100.095C387.213 98.106 390.386 95.848 394.484 95.378C398.584 94.925 402.179 96.421 404.211 97.998C406.299 99.588 407.005 101.089 406.773 101.267Z" fill="#275468"/>
<path d="M388.074 109.561C389.59 110.103 391.398 110.419 392.717 109.495C393.376 109.033 393.918 108.268 394.722 108.23C395.733 108.182 396.386 109.302 397.327 109.675C398.777 110.25 400.45 108.923 401.924 109.436C402.693 109.704 403.218 110.424 403.546 111.17C403.983 112.165 404.155 113.275 404.039 114.356C403.676 117.747 403.381 120.857 402.458 124.141C402.14 125.273 400.538 127.207 400.538 127.207C400.538 127.207 400.289 130.629 402.65 134.101C403.41 135.218 404.299 136.272 405.475 136.937C404.577 138.439 403.179 139.408 401.554 140.058C399.929 140.707 398.177 140.969 396.436 141.144C395.221 141.266 393.993 141.348 392.779 141.214C389.891 140.895 387.289 139.389 384.784 137.916C386.999 134.301 389.756 131.135 389.773 126.895C387.657 125.028 387.515 121.944 387.621 119.767C387.79 116.328 387.906 113.001 388.074 109.561Z" fill="#F4A062"/>
<path d="M385.014 115.243C383.768 115.373 383.481 116.673 383.571 117.724C383.685 119.049 384.236 120.085 385.376 120.787C385.68 120.974 385.994 121.161 386.344 121.228C386.694 121.296 387.093 121.223 387.331 120.957C387.857 120.368 388.055 118.312 387.825 117.52C387.535 116.518 386.11 115.129 385.014 115.243Z" fill="#F4A062"/>
<path d="M405.875 115.243C407.121 115.373 407.408 116.673 407.318 117.724C407.204 119.049 406.653 120.085 405.513 120.787C405.209 120.974 404.895 121.161 404.545 121.228C404.195 121.296 403.796 121.223 403.558 120.957C403.032 120.368 402.835 118.312 403.064 117.52C403.354 116.518 404.779 115.129 405.875 115.243Z" fill="#F4A062"/>
<path d="M387.293 133.796C381.027 134.922 375.143 139.248 373.269 145.333C372.615 147.457 372.455 149.696 372.254 151.909C371.425 161.01 369.825 170.04 367.475 178.871C365.026 188.077 354.484 192.045 347.845 198.877C343.104 203.756 339.636 209.862 337.875 216.434C338.865 215.77 339.624 216.05 340.795 215.83C341.972 215.609 343.197 215.626 344.336 215.257C345.355 214.927 346.334 214.286 347.4 214.397C349.45 217.413 351.53 221.055 353.293 224.248C354.533 221.544 354.677 217.875 355.781 215.113C356.749 212.689 358.615 210.753 360.436 208.884C363.421 205.821 366.406 202.757 369.39 199.694C371.796 197.225 374.217 194.737 376.112 191.857C378.562 188.135 380.055 183.88 381.524 179.673C384.726 170.505 382.989 160.349 383.093 150.638C383.124 147.749 383.12 144.836 383.703 142.005C384.283 139.176 385.158 135.743 387.293 133.796Z" fill="#32ABBF"/>
<path d="M403.434 134.019C409.7 135.145 415.584 139.471 417.458 145.556C418.112 147.68 418.272 149.919 418.473 152.132C419.302 161.233 418.455 169.926 423.252 179.094C427.669 187.535 436.244 192.268 442.883 199.1C447.624 203.979 451.092 210.085 452.853 216.657C451.863 215.993 451.104 216.273 449.933 216.053C448.756 215.832 447.531 215.849 446.392 215.48C445.373 215.15 444.394 214.509 443.328 214.62C441.278 217.636 439.198 221.278 437.436 224.471C436.196 221.767 436.052 218.098 434.948 215.336C433.98 212.912 432.114 210.976 430.293 209.107C427.308 206.044 424.323 202.98 421.339 199.917C418.934 197.448 416.512 194.96 414.617 192.081C412.167 188.359 410.675 184.104 409.205 179.897C406.003 170.729 407.74 160.573 407.636 150.862C407.605 147.973 407.609 145.059 407.026 142.229C406.443 139.398 405.568 135.966 403.434 134.019Z" fill="#32ABBF"/>
<path d="M394.124 128.16C396.861 131.543 399.709 132.551 401.845 132.733C400.353 129.783 400.538 127.207 400.538 127.207C397.728 128.783 394.124 128.16 394.124 128.16Z" fill="#D88850"/>
<path d="M476.47 125.368C476.47 125.368 480.901 126.576 480.096 131.411L469.622 147.928C469.622 147.928 460.558 149.338 459.752 139.67L476.47 125.368Z" fill="#BAD4E8"/>
<path d="M477.632 129.968C477.901 130.164 474.58 135.192 470.215 141.199C469.15 142.646 468.124 144.041 467.158 145.355C466.97 144.666 466.796 143.856 466.559 143.298C466.414 142.965 466.299 142.748 466.138 142.493C465.83 142.008 465.46 141.593 465.065 141.253C464.271 140.573 463.377 140.22 462.61 140.054C461.051 139.739 460.068 140.065 460.029 139.906C459.976 139.819 460.918 139.207 462.716 139.342C463.595 139.423 464.68 139.737 465.677 140.486C466.171 140.859 466.639 141.329 467.035 141.894C467.228 142.162 467.423 142.513 467.552 142.779L467.583 142.818C467.591 142.806 467.599 142.784 467.601 142.777L467.604 142.769L467.748 142.567L468.039 142.16C468.431 141.616 468.834 141.059 469.243 140.491C473.606 134.483 477.363 129.772 477.632 129.968Z" fill="#81B0D3"/>
<path d="M393.948 275.124C392.925 275.037 393.691 256.899 394.221 234.545C394.788 212.192 394.912 194.038 395.938 194.001C396.907 193.96 398.404 212.154 397.835 234.634C397.301 257.114 394.914 275.212 393.948 275.124Z" fill="#275468"/>
<path d="M402.078 117.661C402.167 117.283 403.916 115.973 403.916 115.973C398.053 118.905 389.774 117.179 387.76 116.655C387.658 116.885 387.691 116.907 387.708 117.261C388.106 117.916 388.846 118.842 388.883 119.771C388.941 121.224 387.508 120.504 387.508 120.504C387.279 123.689 388.261 125.025 388.261 125.025C390.734 129.437 400.538 127.206 400.538 127.206C402.526 125.725 403.278 120.46 403.278 120.46C401.212 120.617 401.99 118.038 402.078 117.661Z" fill="#C9E1E2"/>
<path d="M398.034 112.592C398.995 112.396 399.987 112.488 400.905 112.828C401.095 112.898 401.316 112.749 401.366 112.566C401.424 112.356 401.295 112.175 401.104 112.105C400.06 111.719 398.924 111.648 397.835 111.869C397.636 111.91 397.522 112.145 397.573 112.33C397.629 112.537 397.835 112.633 398.034 112.592Z" fill="#BC6A51"/>
<path d="M394.367 111.614C393.25 111.21 392.034 111.143 390.875 111.397C390.677 111.44 390.561 111.67 390.613 111.858C390.669 112.062 390.876 112.163 391.074 112.12C392.106 111.894 393.175 111.978 394.167 112.337C394.357 112.406 394.578 112.259 394.628 112.075C394.686 111.867 394.558 111.683 394.367 111.614Z" fill="#BC6A51"/>
<path d="M393.358 114.628C393.358 115.297 393.053 115.839 392.677 115.839C392.301 115.839 391.996 115.297 391.996 114.628C391.996 113.959 392.301 113.417 392.677 113.417C393.053 113.417 393.358 113.96 393.358 114.628Z" fill="#BC6A51"/>
<path d="M399.716 114.628C399.716 115.297 399.411 115.839 399.035 115.839C398.659 115.839 398.354 115.297 398.354 114.628C398.354 113.959 398.659 113.417 399.035 113.417C399.411 113.417 399.716 113.96 399.716 114.628Z" fill="#BC6A51"/>
<path d="M395.9 112.355C395.743 113.203 395.753 114.067 395.958 114.907C396.146 115.678 396.568 116.417 396.477 117.232C396.455 117.434 396.665 117.607 396.852 117.607C397.073 117.607 397.205 117.434 397.227 117.232C397.316 116.436 396.97 115.709 396.75 114.965C396.52 114.183 396.475 113.357 396.623 112.555C396.711 112.083 395.988 111.88 395.9 112.355Z" fill="#BC6A51"/>
<path d="M339.147 80.007L336.153 86.166C336.153 86.166 345.904 98.483 357.794 98.141L359.676 92.153C359.676 92.153 342.483 88.39 339.147 80.007Z" fill="#FFAE43"/>
<path d="M428.131 89.405C428.131 89.405 442.487 89.76 448.386 75.902L453.077 86.847C453.077 86.847 444.62 98.715 430.904 96.228L428.131 89.405Z" fill="#FFAE43"/>
<path d="M510.331 71.173C512.634 77.682 518.366 82.716 525.119 84.157C525.072 84.147 525.144 81.852 525.144 81.657C525.144 81.454 525.243 79.183 525.119 79.157C518.367 77.716 512.634 72.682 510.331 66.173C510.379 66.31 510.314 66.82 510.313 66.905C510.307 67.494 510.305 68.084 510.306 68.673C510.306 69.262 510.307 69.852 510.313 70.441C510.316 70.653 510.261 70.975 510.331 71.173Z" fill="#554EF2"/>
<path d="M650.835 264.388C647.494 267.082 645.117 270.843 644.115 275.017C644.065 275.223 644.099 275.559 644.097 275.749C644.091 276.338 644.089 276.927 644.09 277.517C644.09 278.106 644.091 278.696 644.097 279.285C644.099 279.501 644.164 279.812 644.115 280.017C645.116 275.843 647.494 272.083 650.835 269.388C650.884 269.348 650.853 268.6 650.853 268.656C650.859 268.067 650.861 267.477 650.86 266.888C650.86 266.299 650.859 265.709 650.853 265.12C650.852 265.019 650.783 264.431 650.835 264.388Z" fill="#554EF2"/>
<path d="M190.532 279.842C196.961 284.251 201.466 291.134 202.933 298.791C202.788 298.035 202.958 297.064 202.958 296.291C202.958 295.491 203.084 294.581 202.933 293.791C201.466 286.134 196.961 279.251 190.532 274.842C190.552 274.856 190.513 275.67 190.514 275.574C190.508 276.163 190.507 276.753 190.507 277.342C190.507 277.931 190.508 278.52 190.514 279.11C190.515 279.217 190.461 279.793 190.532 279.842Z" fill="#554EF2"/>
<path d="M11.9122 159.131C7.39118 159.676 3.63918 162.872 1.72918 166.919C0.758183 168.977 0.375181 171.13 0.351181 173.391C0.319181 176.362 0.0971807 179.41 1.23318 182.219C1.18418 182.098 1.25018 181.549 1.25118 181.487C1.25718 180.898 1.25818 180.308 1.25818 179.719C1.25818 179.13 1.25718 178.54 1.25118 177.951C1.24918 177.747 1.30918 177.405 1.23318 177.219C0.860181 176.297 0.597181 175.342 0.468181 174.355C0.433181 174.084 0.410181 173.814 0.392181 173.541C0.265181 171.682 0.261184 178.909 0.394184 177.002C0.429184 176.501 0.485181 176.004 0.573181 175.51C0.910181 173.625 1.64318 171.814 2.67818 170.206C4.75118 166.984 8.06318 164.594 11.9122 164.13C12.1462 164.103 11.7522 159.15 11.9122 159.131Z" fill="#554EF2"/>
<path d="M242.803 33.287C248.052 34.027 252.779 37.284 255.339 41.926C255.293 41.842 255.357 41.202 255.357 41.194C255.363 40.605 255.365 40.015 255.364 39.426C255.364 38.837 255.363 38.247 255.357 37.658C255.355 37.477 255.424 37.079 255.339 36.926C252.779 32.284 248.053 29.027 242.803 28.287C242.824 28.29 242.778 30.598 242.778 30.787C242.778 30.979 242.709 33.273 242.803 33.287Z" fill="#EF5081"/>
<path d="M305.473 126.49C309.286 124.836 312.381 121.734 314.027 117.917C314.091 117.77 314.044 117.287 314.045 117.185C314.051 116.596 314.053 116.006 314.052 115.417C314.052 114.828 314.051 114.238 314.045 113.649C314.043 113.467 313.96 113.073 314.027 112.917C312.382 116.734 309.286 119.836 305.473 121.49C305.438 121.505 305.454 122.314 305.455 122.222C305.449 122.811 305.447 123.401 305.448 123.99C305.448 124.579 305.449 125.168 305.455 125.758C305.456 125.837 305.501 126.478 305.473 126.49Z" fill="#EF5081"/>
<path d="M485.073 259.649C489.367 259.628 493.516 261.785 495.967 265.31C495.925 265.25 495.985 264.55 495.985 264.578C495.991 263.989 495.993 263.399 495.992 262.81C495.991 262.221 495.991 261.632 495.985 261.042C495.983 260.881 496.054 260.435 495.967 260.31C493.516 256.784 489.367 254.628 485.073 254.649C485.028 254.649 485.043 259.649 485.073 259.649Z" fill="#EF5081"/>
<path d="M601.84 27.812C604.976 28.857 608.111 29.903 611.247 30.948C611.243 30.947 611.266 30.102 611.265 30.216C611.271 29.627 611.273 29.037 611.272 28.448C611.272 27.859 611.272 27.27 611.265 26.68C611.264 26.597 611.294 25.963 611.247 25.948C608.111 24.903 604.976 23.858 601.84 22.812C601.844 22.813 601.821 23.658 601.822 23.544C601.816 24.133 601.814 24.723 601.815 25.312C601.815 25.901 601.815 26.491 601.822 27.08C601.823 27.163 601.794 27.796 601.84 27.812Z" fill="#EF5081"/>
<path d="M14.6492 361.564C19.6842 362.284 24.1802 365.553 26.4172 370.12C26.3692 370.022 26.4342 369.416 26.4352 369.388C26.4412 368.799 26.4422 368.209 26.4422 367.62C26.4422 367.031 26.4412 366.442 26.4352 365.852C26.4332 365.662 26.4992 365.287 26.4172 365.12C24.1802 360.552 19.6842 357.283 14.6492 356.564C14.6712 356.567 14.6242 358.875 14.6242 359.064C14.6252 359.256 14.5552 361.55 14.6492 361.564Z" fill="#EF5081"/>
<path d="M104.871 5C109.502 7.475 113.498 11.023 116.505 15.327C116.463 15.268 116.523 14.567 116.523 14.595C116.529 14.006 116.531 13.416 116.53 12.827C116.53 12.238 116.529 11.648 116.523 11.059C116.521 10.898 116.592 10.451 116.505 10.327C113.498 6.022 109.502 2.475 104.871 0C104.884 0.007 104.852 0.837002 104.853 0.732002C104.847 1.321 104.845 1.911 104.846 2.5C104.846 3.089 104.847 3.679 104.853 4.268C104.854 4.364 104.809 4.967 104.871 5Z" fill="#EF5081"/>
<path d="M632.544 214.241C634.886 216.342 637.228 218.443 639.57 220.545C639.542 220.52 639.589 219.734 639.588 219.813C639.594 219.224 639.596 218.634 639.595 218.045C639.595 217.456 639.595 216.866 639.588 216.277C639.587 216.154 639.65 215.616 639.57 215.545C637.228 213.444 634.886 211.343 632.544 209.241C632.572 209.266 632.525 210.052 632.526 209.973C632.52 210.562 632.518 211.151 632.519 211.741C632.519 212.33 632.519 212.92 632.526 213.509C632.528 213.632 632.464 214.17 632.544 214.241Z" fill="#EF5081"/>
<path d="M164.303 68.429C167.721 66.031 172.105 65.251 176.14 66.323C176.075 66.306 176.165 64.023 176.165 63.823C176.165 63.61 176.286 61.362 176.14 61.323C172.105 60.251 167.721 61.032 164.303 63.429C164.257 63.461 164.285 64.228 164.285 64.161C164.279 64.75 164.277 65.34 164.278 65.929C164.278 66.518 164.279 67.107 164.285 67.697C164.286 67.792 164.35 68.396 164.303 68.429Z" fill="#FCA800"/>
<path d="M0.0641818 228.951C3.72218 227.904 7.38018 226.857 11.0372 225.81C11.1652 225.773 11.0622 223.525 11.0622 223.31C11.0622 222.721 11.0612 222.131 11.0552 221.542C11.0542 221.467 11.0232 220.814 11.0372 220.81C7.37918 221.857 3.72118 222.904 0.0641818 223.951C-0.0638182 223.988 0.0391803 226.236 0.0391803 226.451C0.0391803 227.04 0.0401802 227.629 0.0461802 228.219C0.0471802 228.294 0.0781818 228.947 0.0641818 228.951Z" fill="#FCA800"/>
<path d="M329.033 231.633C331.907 233.201 334.782 234.769 337.656 236.337C337.642 236.329 337.675 235.5 337.674 235.605C337.68 235.016 337.682 234.426 337.681 233.837C337.681 233.248 337.68 232.658 337.674 232.069C337.673 231.972 337.719 231.371 337.656 231.337C334.782 229.769 331.907 228.201 329.033 226.633C329.047 226.641 329.014 227.47 329.015 227.365C329.009 227.954 329.007 228.543 329.008 229.133C329.008 229.722 329.009 230.312 329.015 230.901C329.016 230.998 328.97 231.599 329.033 231.633Z" fill="#FCA800"/>
<path d="M472.227 382.622C475.624 381.838 479.021 381.054 482.418 380.27C482.528 380.244 482.443 377.976 482.443 377.77C482.443 377.574 482.344 375.287 482.418 375.27C479.021 376.054 475.624 376.838 472.227 377.622C472.117 377.648 472.202 379.916 472.202 380.122C472.202 380.317 472.301 382.605 472.227 382.622Z" fill="#FCA800"/>
<path d="M316.49 59.953C318.58 57.863 320.671 55.772 322.761 53.682C322.816 53.627 322.779 52.916 322.779 52.95C322.785 52.361 322.787 51.772 322.786 51.182C322.786 50.593 322.785 50.004 322.779 49.414C322.778 49.299 322.7 48.743 322.761 48.682C320.671 50.772 318.58 52.863 316.49 54.953C316.435 55.008 316.472 55.719 316.472 55.685C316.466 56.274 316.464 56.864 316.465 57.453C316.465 58.042 316.465 58.631 316.472 59.221C316.474 59.335 316.551 59.892 316.49 59.953Z" fill="#FCA800"/>
<path d="M590.081 81.607C587.468 81.607 584.855 81.607 582.242 81.607C582.205 81.607 582.204 86.607 582.242 86.607C584.855 86.607 587.468 86.607 590.081 86.607C590.118 86.607 590.119 81.607 590.081 81.607Z" fill="#FCA800"/>
<path d="M469.356 51.33C471.708 50.546 474.06 49.762 476.411 48.978C476.441 48.968 476.43 48.146 476.429 48.246C476.435 47.657 476.437 47.067 476.436 46.478C476.436 45.889 476.436 45.299 476.429 44.71C476.428 44.634 476.393 43.984 476.411 43.978C474.059 44.762 471.707 45.546 469.356 46.33C469.326 46.34 469.337 47.162 469.338 47.062C469.332 47.651 469.33 48.24 469.331 48.83C469.331 49.419 469.332 50.008 469.338 50.598C469.339 50.674 469.375 51.324 469.356 51.33Z" fill="#FCA800"/>
<path d="M81.3122 51.33C83.4022 51.33 85.4932 51.33 87.5832 51.33C87.6202 51.33 87.6212 46.33 87.5832 46.33C85.4932 46.33 83.4022 46.33 81.3122 46.33C81.2752 46.33 81.2732 51.33 81.3122 51.33Z" fill="#FCA800"/>
<path d="M6.05419 105.421C7.62219 104.637 9.19018 103.853 10.7582 103.069C10.7962 103.05 10.7772 102.25 10.7762 102.337C10.7822 101.748 10.7842 101.159 10.7832 100.569C10.7832 99.98 10.7832 99.39 10.7762 98.801C10.7752 98.718 10.7262 98.085 10.7582 98.069C9.19018 98.853 7.62219 99.637 6.05419 100.421C6.01619 100.44 6.03518 101.24 6.03618 101.153C6.03018 101.742 6.02818 102.331 6.02918 102.921C6.02918 103.51 6.02918 104.1 6.03618 104.689C6.03818 104.772 6.08719 105.405 6.05419 105.421Z" fill="#FCA800"/>
<path d="M32.5672 27.666C35.0652 25.295 38.8112 24.476 42.0712 25.588C42.0672 25.587 42.0902 24.743 42.0892 24.856C42.0952 24.267 42.0972 23.677 42.0962 23.088C42.0962 22.499 42.0952 21.909 42.0892 21.32C42.0882 21.236 42.1182 20.604 42.0712 20.588C38.8122 19.476 35.0652 20.295 32.5672 22.666C32.5142 22.717 32.5492 23.438 32.5492 23.398C32.5432 23.987 32.5412 24.577 32.5422 25.166C32.5422 25.755 32.5432 26.345 32.5492 26.934C32.5502 27.045 32.6262 27.61 32.5672 27.666Z" fill="#47C663"/>
<path d="M292.972 9.78201C295.063 11.872 297.153 13.963 299.243 16.053C299.212 16.022 299.261 15.251 299.261 15.321C299.267 14.732 299.269 14.142 299.268 13.553C299.268 12.964 299.267 12.374 299.261 11.785C299.259 11.654 299.326 11.135 299.243 11.053C297.153 8.96301 295.062 6.87201 292.972 4.78201C293.003 4.81301 292.954 5.58401 292.954 5.51401C292.948 6.10301 292.947 6.69301 292.947 7.28201C292.947 7.87101 292.948 8.46101 292.954 9.05001C292.956 9.18001 292.89 9.69901 292.972 9.78201Z" fill="#47C663"/>
<path d="M216.508 219.85C218.337 220.634 220.166 221.418 221.996 222.202C221.988 222.199 222.015 221.36 222.014 221.47C222.02 220.881 222.022 220.291 222.021 219.702C222.021 219.113 222.02 218.524 222.014 217.934C222.013 217.845 222.05 217.225 221.996 217.202C220.167 216.418 218.338 215.634 216.508 214.85C216.516 214.854 216.489 215.692 216.49 215.582C216.484 216.171 216.482 216.761 216.483 217.35C216.483 217.939 216.484 218.529 216.49 219.118C216.492 219.207 216.454 219.827 216.508 219.85Z" fill="#47C663"/>
<path d="M516.392 128.155C517.96 130.245 519.528 132.336 521.096 134.426C521.056 134.373 521.114 133.656 521.114 133.694C521.12 133.105 521.122 132.515 521.121 131.926C521.121 131.337 521.121 130.747 521.114 130.158C521.112 130.003 521.183 129.542 521.096 129.426C519.528 127.336 517.96 125.245 516.392 123.155C516.432 123.208 516.374 123.925 516.374 123.887C516.368 124.476 516.366 125.065 516.367 125.655C516.367 126.244 516.367 126.833 516.374 127.423C516.376 127.577 516.305 128.039 516.392 128.155Z" fill="#47C663"/>
<path d="M220.842 84.301C223.717 84.82 226.592 85.339 229.467 85.858C229.432 85.852 229.492 83.55 229.492 83.358C229.492 83.16 229.577 80.878 229.467 80.858C226.592 80.339 223.717 79.82 220.842 79.301C220.877 79.307 220.817 81.609 220.817 81.801C220.817 81.999 220.732 84.281 220.842 84.301Z" fill="#47C663"/>
<path d="M551.669 16.837C554.544 15.269 557.418 13.701 560.292 12.133C560.332 12.111 560.31 11.318 560.31 11.401C560.316 10.812 560.318 10.222 560.317 9.633C560.317 9.044 560.316 8.45499 560.31 7.86499C560.309 7.77899 560.256 7.153 560.292 7.133C557.418 8.701 554.543 10.269 551.669 11.837C551.629 11.859 551.651 12.652 551.651 12.569C551.645 13.158 551.643 13.748 551.644 14.337C551.644 14.926 551.645 15.516 551.651 16.105C551.652 16.191 551.705 16.817 551.669 16.837Z" fill="#47C663"/>
<path d="M659.178 121.04C661.003 124.439 662.828 127.838 664.653 131.237C664.606 131.15 664.671 130.518 664.671 130.505C664.677 129.916 664.679 129.327 664.678 128.737C664.678 128.148 664.677 127.558 664.671 126.969C664.669 126.786 664.737 126.393 664.653 126.237C662.828 122.838 661.003 119.439 659.178 116.04C659.225 116.127 659.16 116.759 659.16 116.772C659.154 117.361 659.152 117.951 659.153 118.54C659.153 119.129 659.154 119.718 659.16 120.308C659.162 120.491 659.094 120.883 659.178 121.04Z" fill="#47C663"/>
<path d="M36.1242 261.804C38.4762 262.849 40.8282 263.895 43.1792 264.94C43.1702 264.936 43.1982 264.098 43.1972 264.208C43.2032 263.619 43.2052 263.029 43.2042 262.44C43.2042 261.851 43.2032 261.262 43.1972 260.672C43.1962 260.582 43.2352 259.964 43.1792 259.94C40.8272 258.895 38.4752 257.849 36.1242 256.804C36.1332 256.808 36.1052 257.646 36.1062 257.536C36.1002 258.125 36.0982 258.715 36.0992 259.304C36.0992 259.893 36.1002 260.482 36.1062 261.072C36.1082 261.162 36.0692 261.779 36.1242 261.804Z" fill="#47C663"/>
</svg>
