<svg width="593" height="544" viewBox="0 0 593 544" fill="none" xmlns="http://www.w3.org/2000/svg">
<path d="M593 416.049H0V416.321H593V416.049Z" fill="#EBEBEB"/>
<path d="M533.583 433.561H507.871V433.833H533.583V433.561Z" fill="#EBEBEB"/>
<path d="M408.775 427.917H368.322V428.189H408.775V427.917Z" fill="#EBEBEB"/>
<path d="M523.158 423.458H470.351V423.73H523.158V423.458Z" fill="#EBEBEB"/>
<path d="M205.196 428.944H191.986V429.216H205.196V428.944Z" fill="#EBEBEB"/>
<path d="M181.427 428.944H135.898V429.216H181.427V428.944Z" fill="#EBEBEB"/>
<path d="M111.486 424.35H78.6401V424.622H111.486V424.35Z" fill="#EBEBEB"/>
<path d="M281.099 367.526H52.0832C48.3508 367.526 45.3135 364.74 45.3135 361.316V65.9981C45.3135 62.5741 48.3508 59.7878 52.0832 59.7878H281.099C284.83 59.7878 287.867 62.5741 287.867 65.9981V361.316C287.867 364.74 284.83 367.526 281.099 367.526ZM52.0832 60.0609C48.5133 60.0609 45.61 62.7243 45.61 65.9992V361.317C45.61 364.592 48.5133 367.255 52.0832 367.255H281.099C284.667 367.255 287.571 364.592 287.571 361.317V65.9981C287.571 62.7243 284.667 60.0598 281.099 60.0598L52.0832 60.0609Z" fill="#EBEBEB"/>
<path d="M537.626 367.526H308.611C304.879 367.526 301.843 364.74 301.843 361.316V65.9981C301.843 62.5741 304.88 59.7878 308.611 59.7878H537.626C541.359 59.7878 544.395 62.5741 544.395 65.9981V361.316C544.397 364.74 541.359 367.526 537.626 367.526ZM308.611 60.0609C305.043 60.0609 302.139 62.7243 302.139 65.9992V361.317C302.139 364.592 305.043 367.255 308.611 367.255H537.626C541.195 367.255 544.099 364.592 544.099 361.317V65.9981C544.099 62.7243 541.195 60.0598 537.626 60.0598L308.611 60.0609Z" fill="#EBEBEB"/>
<path d="M136.364 189.994C150.061 189.994 161.164 179.808 161.164 167.243C161.164 154.678 150.061 144.492 136.364 144.492H133.322V189.993L136.364 189.994Z" fill="#E0E0E0"/>
<path d="M133.322 189.994C147.019 189.994 158.122 179.808 158.122 167.243C158.122 154.678 147.019 144.492 133.322 144.492C119.625 144.492 108.521 154.678 108.521 167.243C108.521 179.808 119.625 189.994 133.322 189.994Z" fill="#F5F5F5"/>
<path d="M132.186 170.102C113.881 170.102 98.9884 156.44 98.9884 139.648V121.452C98.9884 119.873 100.384 118.593 102.105 118.593C103.826 118.593 105.222 119.874 105.222 121.452V139.648C105.222 153.287 117.318 164.383 132.185 164.383C133.905 164.383 135.301 165.663 135.301 167.242C135.301 168.821 133.907 170.102 132.186 170.102Z" fill="#E0E0E0"/>
<path d="M74.5188 137.472H129.693C133.474 137.472 136.23 134.187 135.262 130.834L130.477 114.259C129.808 111.941 127.521 110.326 124.908 110.326H79.3055C76.6915 110.326 74.4061 111.94 73.7372 114.259L68.9517 130.834C67.9816 134.186 70.7378 137.472 74.5188 137.472Z" fill="#F5F5F5"/>
<path d="M486.589 189.994C500.286 189.994 511.389 179.808 511.389 167.243C511.389 154.678 500.286 144.492 486.589 144.492H483.547V189.993L486.589 189.994Z" fill="#E0E0E0"/>
<path d="M483.547 189.994C497.243 189.994 508.347 179.808 508.347 167.243C508.347 154.678 497.243 144.492 483.547 144.492C469.85 144.492 458.746 154.678 458.746 167.243C458.746 179.808 469.85 189.994 483.547 189.994Z" fill="#F5F5F5"/>
<path d="M482.41 170.102C464.106 170.102 449.213 156.44 449.213 139.648V121.452C449.213 119.873 450.609 118.593 452.33 118.593C454.052 118.593 455.447 119.874 455.447 121.452V139.648C455.447 153.287 467.543 164.383 482.409 164.383C484.131 164.383 485.526 165.663 485.526 167.242C485.526 168.821 484.131 170.102 482.41 170.102Z" fill="#E0E0E0"/>
<path d="M424.743 137.472H479.917C483.698 137.472 486.455 134.187 485.486 130.834L480.7 114.259C480.031 111.941 477.745 110.326 475.132 110.326H429.529C426.915 110.326 424.63 111.94 423.961 114.259L419.175 130.834C418.206 134.186 420.962 137.472 424.743 137.472Z" fill="#F5F5F5"/>
<path d="M158.902 343.649H176.937V279.533H158.902V343.649Z" fill="#E6E6E6"/>
<path d="M110.003 343.648H169.86L178.9 268.605H119.043L110.003 343.648Z" fill="#F0F0F0"/>
<path d="M103.52 343.648H165.348L174.387 268.605H112.56L103.52 343.648Z" fill="#F5F5F5"/>
<path d="M160.881 337.735L168.495 274.52H117.026L109.412 337.735H160.881Z" fill="white"/>
<path d="M150.251 322.412L150.562 319.836C152.472 303.976 141.678 289.842 127.656 289.842L127.346 292.418C125.435 308.277 136.23 322.412 150.251 322.412Z" fill="#F5F5F5"/>
<path d="M70.0734 416.05H123.252L123.252 343.649H70.0734V416.05Z" fill="#E6E6E6"/>
<path d="M75.4226 416.049H70.0737V402.091H81.0312L75.4226 416.049Z" fill="#F0F0F0"/>
<path d="M219.117 416.05H272.296V343.649H219.117V416.05Z" fill="#E6E6E6"/>
<path d="M70.0735 407.485H223.786V343.649H70.0735V407.485Z" fill="#F0F0F0"/>
<path d="M218.438 416.049H223.786V402.091H212.829L218.438 416.049Z" fill="#F0F0F0"/>
<path d="M74.2233 373.4H219.636V347.641H74.2233V373.4Z" fill="#E6E6E6"/>
<path d="M137.232 364.434H156.627C165.051 364.434 173.105 361.256 178.899 355.647H114.959C120.754 361.256 128.808 364.434 137.232 364.434Z" fill="#F0F0F0"/>
<path d="M74.2233 403.321H219.636V377.563H74.2233V403.321Z" fill="#E6E6E6"/>
<path d="M137.232 394.355H156.627C165.051 394.355 173.105 391.177 178.899 385.568H114.959C120.754 391.177 128.808 394.355 137.232 394.355Z" fill="#F0F0F0"/>
<path d="M214.049 340.695H215.423C215.408 338.099 215.43 331.514 215.567 316.42C215.814 289.063 216.288 287.395 216.288 287.395L213.017 300.025C210.943 314.01 213.616 328.062 214.049 340.695Z" fill="#E6E6E6"/>
<path d="M211.333 298.144C206.625 292.996 196.567 291.498 186.267 290.216C182.224 289.714 196.893 298.189 204.062 304.21C209.631 308.887 213.193 310.179 214.722 314.84C215.519 309.027 215.39 302.578 211.333 298.144Z" fill="#E6E6E6"/>
<path d="M217.579 307.344C222.286 302.196 232.346 300.697 242.645 299.417C246.688 298.914 232.02 307.389 224.85 313.41C219.281 318.087 215.719 319.379 214.19 324.04C213.392 318.228 213.522 311.779 217.579 307.344Z" fill="#E6E6E6"/>
<path d="M215.563 286.185C219.092 280.033 227.975 274.24 237.942 272.042C241.855 271.18 228.878 283.403 223.945 291.286C220.113 297.409 215.031 304.602 214.241 309.769C213.05 299.533 212.033 292.338 215.563 286.185Z" fill="#E6E6E6"/>
<path d="M215.146 343.648C210.941 343.648 207.466 341.715 207.224 339.241L206.523 335.014H223.769L223.068 339.241C222.827 341.715 219.352 343.648 215.146 343.648Z" fill="#F0F0F0"/>
<path d="M224.886 336.64H205.407L204.848 331.93H225.443L224.886 336.64Z" fill="#F0F0F0"/>
<path d="M201.075 246.675L391.079 246.675V87.6837L201.075 87.6837L201.075 246.675Z" fill="#E6E6E6"/>
<path d="M196.799 246.675L389.221 246.675V87.6837L196.799 87.6837L196.799 246.675Z" fill="#F5F5F5"/>
<path d="M381.545 239.552L381.545 94.8054L204.474 94.8054L204.474 239.552L381.545 239.552Z" fill="#FAFAFA"/>
<path d="M359.818 239.553L290.126 94.8062H266.455L336.147 239.553H359.818Z" fill="white"/>
<path d="M329.436 239.553L259.745 94.8062H243.446L313.136 239.553H329.436Z" fill="white"/>
<path d="M270.223 239.554L270.223 94.8062H261.066V239.554H270.223Z" fill="#E6E6E6"/>
<path d="M331.087 239.553L331.087 94.8057H321.93V239.553H331.087Z" fill="#E6E6E6"/>
<path d="M268.571 244.072L268.571 89.5105H256.997L256.997 244.072H268.571Z" fill="#F5F5F5"/>
<path d="M329.436 244.071L329.436 89.51H317.862L317.862 244.071H329.436Z" fill="#F5F5F5"/>
<path d="M205.288 239.552L205.288 94.8055H204.474L204.474 239.552H205.288Z" fill="#E6E6E6"/>
<path d="M193.575 78.5242H399.423C399.968 78.5242 400.414 78.9333 400.414 79.4327C400.414 79.9321 399.968 80.3412 399.423 80.3412H193.575C193.031 80.3412 192.585 79.9321 192.585 79.4327C192.586 78.9322 193.031 78.5242 193.575 78.5242Z" fill="#E6E6E6"/>
<path d="M391.079 84.5169C391.814 84.5169 392.415 83.9653 392.415 83.2908V80.6578C392.415 79.9833 391.814 79.4316 391.079 79.4316C390.344 79.4316 389.742 79.9833 389.742 80.6578V83.2908C389.742 83.9653 390.344 84.5169 391.079 84.5169Z" fill="#E6E6E6"/>
<path d="M208.504 84.5169C209.239 84.5169 209.84 83.9653 209.84 83.2908V80.6578C209.84 79.9833 209.239 79.4316 208.504 79.4316C207.768 79.4316 207.167 79.9833 207.167 80.6578V83.2908C207.168 83.9653 207.769 84.5169 208.504 84.5169Z" fill="#E6E6E6"/>
<path opacity="0.6" d="M193.892 203.94L386.174 203.94V79.4324L193.892 79.4324L193.892 203.94Z" fill="#E0E0E0"/>
<path d="M403.579 308.635H370.429C366.903 308.635 364.046 306.013 364.046 302.78V288.704C364.046 285.469 366.905 282.848 370.429 282.848H403.579C407.105 282.848 409.962 285.471 409.962 288.704V302.78C409.962 306.013 407.104 308.635 403.579 308.635Z" fill="#FAFAFA"/>
<path d="M407.819 283.607H366.189C365.006 283.607 364.046 282.727 364.046 281.641V280.05C364.046 278.964 365.006 278.084 366.189 278.084H407.819C409.003 278.084 409.962 278.964 409.962 280.05V281.641C409.962 282.727 409.003 283.607 407.819 283.607Z" fill="#E6E6E6"/>
<path d="M364.722 337.231C364.722 337.231 365.324 355.36 388.356 355.36C411.388 355.36 411.989 337.231 411.989 337.231H364.722Z" fill="#F0F0F0"/>
<path d="M417.24 337.231C417.24 337.231 417.841 355.36 440.873 355.36C463.905 355.36 464.506 337.231 464.506 337.231H417.24Z" fill="#F0F0F0"/>
<path d="M453.109 308.635H407.554C402.709 308.635 398.782 305.033 398.782 300.587V279.216C398.782 274.771 402.709 271.169 407.554 271.169H453.109C457.954 271.169 461.881 274.772 461.881 279.216V300.587C461.881 305.032 457.954 308.635 453.109 308.635Z" fill="#F0F0F0"/>
<path d="M458.936 272.211H401.727C400.101 272.211 398.782 271.001 398.782 269.51V267.324C398.782 265.832 400.101 264.622 401.727 264.622H458.936C460.562 264.622 461.881 265.832 461.881 267.324V269.51C461.881 271.002 460.563 272.211 458.936 272.211Z" fill="#F5F5F5"/>
<path d="M347.375 416.049H353.35V326.133H347.375V416.049Z" fill="#E6E6E6"/>
<path d="M519.964 308.635H487.598V326.133H519.964V308.635Z" fill="#E6E6E6"/>
<path d="M326.679 326.133H487.597V308.635H326.679V326.133Z" fill="#F5F5F5"/>
<path d="M519.964 355.36H487.598V372.859H519.964V355.36Z" fill="#E6E6E6"/>
<path d="M326.679 372.859H487.597V355.361H326.679V372.859Z" fill="#F5F5F5"/>
<path d="M508.293 416.049H514.268V326.133H508.293V416.049Z" fill="#E6E6E6"/>
<path d="M481.622 416.049H487.598V326.133H481.622V416.049Z" fill="#F5F5F5"/>
<path d="M326.679 416.049H332.654V326.133H326.679V416.049Z" fill="#F5F5F5"/>
<path d="M296.5 465.186C423.499 465.186 526.452 459.671 526.452 452.867C526.452 446.063 423.499 440.548 296.5 440.548C169.501 440.548 66.5476 446.063 66.5476 452.867C66.5476 459.671 169.501 465.186 296.5 465.186Z" fill="#F5F5F5"/>
<path d="M308.851 397.66H157.548C152.549 397.66 148.288 393.942 148.031 389.356L134.489 148.309C134.232 143.723 138.075 140.005 143.074 140.005H294.377C299.376 140.005 303.637 143.723 303.895 148.309L317.437 389.356C317.694 393.942 313.85 397.66 308.851 397.66Z" fill="#407BFF"/>
<path opacity="0.8" d="M308.851 397.66H157.548C152.549 397.66 148.288 393.942 148.031 389.356L134.489 148.309C134.232 143.723 138.075 140.005 143.074 140.005H294.377C299.376 140.005 303.637 143.723 303.895 148.309L317.437 389.356C317.694 393.942 313.85 397.66 308.851 397.66Z" fill="white"/>
<path d="M279.443 132.143H262.707V133.231H279.443V132.143Z" fill="#407BFF"/>
<path d="M256.91 132.143H250.782V133.231H256.91V132.143Z" fill="#407BFF"/>
<path d="M315.356 382.371H170.651C165.87 382.371 161.794 378.815 161.549 374.43L148.598 143.892C148.351 139.507 152.027 135.951 156.808 135.951H301.514C306.295 135.951 310.372 139.507 310.617 143.892L323.568 374.43C323.814 378.815 320.137 382.371 315.356 382.371Z" fill="#407BFF"/>
<path d="M315.356 377.067H170.651C168.965 377.067 167.41 375.707 167.322 374.157L154.371 143.619C154.325 142.778 154.695 142.234 155.014 141.926C155.33 141.62 155.9 141.255 156.809 141.255H301.514C303.201 141.255 304.757 142.615 304.845 144.165L317.796 374.703C317.842 375.545 317.472 376.089 317.153 376.397C316.834 376.703 316.265 377.067 315.356 377.067ZM156.807 141.527C156.003 141.527 155.504 141.846 155.227 142.113C154.949 142.383 154.625 142.861 154.666 143.605L167.617 374.143C167.697 375.555 169.114 376.795 170.65 376.795H315.355C316.159 376.795 316.657 376.476 316.935 376.209C317.214 375.939 317.539 375.461 317.497 374.716L304.546 144.179C304.466 142.765 303.049 141.526 301.512 141.526H156.807V141.527Z" fill="white"/>
<path opacity="0.3" d="M264.755 225.267C281.21 209.776 280.137 184.333 262.357 168.439C244.577 152.546 216.825 152.22 200.369 167.711C183.914 183.203 184.987 208.645 202.767 224.539C220.546 240.433 248.299 240.759 264.755 225.267Z" fill="white"/>
<path d="M268.004 196.508C268.32 202.123 267.064 207.395 264.591 211.995C259.181 222.128 247.862 229.021 234.388 229.021C220.914 229.021 208.82 222.128 202.272 211.995C199.284 207.395 197.435 202.123 197.119 196.508C196.11 178.548 211.158 163.994 230.734 163.994C250.31 163.994 266.995 178.548 268.004 196.508Z" fill="white"/>
<path d="M264.591 211.995C259.181 222.128 247.862 229.021 234.388 229.021C220.914 229.021 208.82 222.128 202.272 211.995C210.887 206.526 221.416 203.334 232.945 203.334C244.474 203.334 255.361 206.527 264.591 211.995Z" fill="#407BFF"/>
<path d="M243.539 195.739C249.47 190.156 249.083 180.987 242.675 175.259C236.267 169.531 226.265 169.413 220.335 174.996C214.405 180.579 214.792 189.749 221.199 195.477C227.607 201.205 237.609 201.322 243.539 195.739Z" fill="#407BFF"/>
<path d="M294.618 292.695H181.315C179.291 292.695 177.567 291.19 177.462 289.334L176.604 274.061C176.499 272.205 178.055 270.7 180.079 270.7H293.382C295.405 270.7 297.13 272.205 297.234 274.061L298.093 289.334C298.196 291.19 296.641 292.695 294.618 292.695Z" fill="white"/>
<path opacity="0.3" d="M259.92 262.312H212.6C210.577 262.312 208.852 260.808 208.748 258.952L208.565 255.709C208.461 253.853 210.017 252.349 212.04 252.349H259.36C261.384 252.349 263.108 253.853 263.213 255.709L263.395 258.952C263.498 260.808 261.944 262.312 259.92 262.312Z" fill="black"/>
<path opacity="0.3" d="M277.517 365.902H206.64C203.195 365.902 200.257 363.34 200.081 360.179L199.66 352.681C199.482 349.52 202.131 346.958 205.577 346.958H276.453C279.898 346.958 282.836 349.52 283.013 352.681L283.434 360.179C283.612 363.34 280.962 365.902 277.517 365.902Z" fill="black"/>
<path d="M296.686 329.508H183.383C181.36 329.508 179.635 328.004 179.531 326.148L178.673 310.874C178.569 309.018 180.125 307.513 182.148 307.513H295.452C297.475 307.513 299.199 309.018 299.304 310.874L300.162 326.148C300.264 328.004 298.71 329.508 296.686 329.508Z" fill="white"/>
<path d="M195.723 281.697C195.838 283.753 194.116 285.417 191.877 285.417C189.638 285.417 187.728 283.751 187.612 281.697C187.497 279.643 189.219 277.977 191.458 277.977C193.698 277.977 195.607 279.643 195.723 281.697Z" fill="#263238"/>
<path d="M208.184 281.697C208.3 283.753 206.577 285.417 204.338 285.417C202.099 285.417 200.19 283.751 200.073 281.697C199.958 279.643 201.68 277.977 203.92 277.977C206.159 277.977 208.069 279.643 208.184 281.697Z" fill="#263238"/>
<path d="M220.646 281.697C220.761 283.753 219.039 285.417 216.8 285.417C214.56 285.417 212.651 283.751 212.535 281.697C212.42 279.643 214.142 277.977 216.381 277.977C218.62 277.977 220.531 279.643 220.646 281.697Z" fill="#263238"/>
<path d="M233.107 281.697C233.222 283.753 231.5 285.417 229.261 285.417C227.022 285.417 225.112 283.751 224.996 281.697C224.881 279.643 226.603 277.977 228.842 277.977C231.083 277.977 232.992 279.643 233.107 281.697Z" fill="#263238"/>
<path d="M197.79 318.511C197.905 320.566 196.183 322.231 193.944 322.231C191.705 322.231 189.796 320.565 189.679 318.511C189.564 316.457 191.286 314.791 193.526 314.791C195.765 314.791 197.675 316.456 197.79 318.511Z" fill="#263238"/>
<path d="M210.253 318.511C210.368 320.566 208.646 322.231 206.407 322.231C204.166 322.231 202.258 320.565 202.142 318.511C202.027 316.457 203.749 314.791 205.988 314.791C208.227 314.791 210.137 316.456 210.253 318.511Z" fill="#263238"/>
<path d="M222.714 318.511C222.829 320.566 221.107 322.231 218.868 322.231C216.629 322.231 214.719 320.565 214.603 318.511C214.488 316.457 216.21 314.791 218.449 314.791C220.69 314.79 222.599 316.456 222.714 318.511Z" fill="#263238"/>
<path d="M235.175 318.511C235.291 320.566 233.568 322.231 231.329 322.231C229.09 322.231 227.181 320.565 227.064 318.511C226.949 316.457 228.671 314.791 230.911 314.791C233.151 314.79 235.06 316.456 235.175 318.511Z" fill="#263238"/>
<path d="M247.637 318.511C247.752 320.566 246.03 322.231 243.791 322.231C241.551 322.231 239.642 320.565 239.526 318.511C239.411 316.457 241.133 314.791 243.372 314.791C245.611 314.791 247.522 316.456 247.637 318.511Z" fill="#263238"/>
<path d="M260.099 318.511C260.214 320.566 258.492 322.231 256.253 322.231C254.013 322.231 252.104 320.565 251.988 318.511C251.873 316.457 253.595 314.791 255.834 314.791C258.074 314.791 259.983 316.456 260.099 318.511Z" fill="#263238"/>
<path d="M394.975 192.167C395.273 192.571 395.423 192.793 395.619 193.083L396.149 193.897C396.493 194.435 396.794 194.973 397.098 195.51C397.691 196.586 398.252 197.662 398.753 198.751C399.77 200.926 400.604 203.149 401.323 205.386C402.786 209.857 403.678 214.439 404.136 219.024L404.227 219.883C404.243 220.006 404.255 220.2 404.265 220.402L404.291 220.987C404.306 221.759 404.265 222.525 404.147 223.249C403.924 224.708 403.496 226.055 402.971 227.301C401.905 229.781 400.44 231.889 398.868 233.807C395.652 237.627 392 240.684 387.828 243.394L384.562 239.883C387.492 236.774 390.333 233.327 392.437 229.886C393.51 228.17 394.331 226.4 394.842 224.75C395.082 223.926 395.211 223.132 395.231 222.418C395.258 222.056 395.23 221.722 395.192 221.406L395.156 221.173C395.148 221.102 395.139 221.024 395.108 220.877L394.958 220.111C394.183 216.027 393.124 212.015 391.735 208.139C391.053 206.196 390.209 204.318 389.354 202.474C388.931 201.548 388.464 200.65 387.985 199.773L387.248 198.495L386.883 197.889L386.582 197.414L394.975 192.167Z" fill="#803E3C"/>
<path d="M383.904 243.465L388.198 251.783L391.603 244.749C391.603 244.749 388.585 238.656 384.5 239.213L383.904 243.465Z" fill="#7F3E3B"/>
<path d="M391.276 252.196L394.685 247.066L391.604 244.75L388.198 251.784L391.276 252.196Z" fill="#7F3E3B"/>
<path d="M371.97 444.14C372.888 444.14 373.891 443.966 374.593 443.814C374.685 443.794 374.755 443.726 374.771 443.642C374.788 443.557 374.748 443.471 374.669 443.424C374.329 443.218 371.312 441.432 370.157 441.912C369.974 441.988 369.744 442.154 369.688 442.519C369.613 443.002 369.745 443.388 370.078 443.667C370.5 444.02 371.206 444.14 371.97 444.14ZM373.928 443.506C372.199 443.823 370.898 443.768 370.395 443.347C370.18 443.168 370.102 442.916 370.154 442.579C370.181 442.397 370.274 442.336 370.35 442.306C370.959 442.048 372.698 442.824 373.928 443.506Z" fill="#407BFF"/>
<path d="M374.539 443.819C374.579 443.819 374.621 443.809 374.657 443.79C374.73 443.751 374.775 443.68 374.775 443.604C374.775 443.492 374.762 440.868 373.681 439.992C373.394 439.758 373.059 439.661 372.685 439.703C372.096 439.769 371.936 440.109 371.893 440.305C371.669 441.332 373.475 443.298 374.423 443.791C374.459 443.81 374.5 443.819 374.539 443.819ZM372.849 440.125C373.042 440.125 373.213 440.187 373.369 440.315C374.013 440.839 374.235 442.311 374.29 443.185C373.346 442.493 372.219 441.016 372.355 440.39C372.378 440.287 372.442 440.165 372.742 440.132C372.779 440.128 372.814 440.125 372.849 440.125Z" fill="#407BFF"/>
<path d="M360.769 439.701C360.825 439.646 360.847 439.567 360.822 439.493C360.793 439.405 360.708 439.344 360.608 439.339C360.116 439.317 355.852 439.154 354.893 440.107C354.871 440.128 354.852 440.149 354.835 440.171C354.675 440.369 354.64 440.602 354.734 440.846C354.892 441.253 355.183 441.519 355.598 441.638C356.979 442.03 359.409 440.611 360.735 439.729C360.748 439.721 360.759 439.711 360.769 439.701ZM355.247 440.391C355.776 439.865 358.122 439.723 359.885 439.75C358.037 440.899 356.512 441.446 355.738 441.226C355.468 441.149 355.284 440.977 355.177 440.702C355.136 440.595 355.147 440.511 355.212 440.43C355.223 440.416 355.234 440.403 355.247 440.391Z" fill="#407BFF"/>
<path d="M360.769 439.701C360.781 439.69 360.791 439.677 360.8 439.663C360.842 439.597 360.843 439.516 360.803 439.449C360.747 439.357 359.421 437.217 357.852 436.829C357.371 436.71 356.916 436.763 356.497 436.99C355.933 437.293 355.901 437.644 355.972 437.882C356.276 438.891 359.3 439.778 360.599 439.771C360.664 439.77 360.725 439.744 360.769 439.701ZM356.51 437.52C356.559 437.472 356.63 437.418 356.736 437.362C357.045 437.195 357.369 437.157 357.728 437.245C358.759 437.5 359.729 438.71 360.159 439.315C358.757 439.168 356.606 438.373 356.425 437.768C356.414 437.731 356.388 437.641 356.51 437.52Z" fill="#407BFF"/>
<path d="M373.826 160.295C372.671 165.702 370.075 177.5 374.198 181.108C374.198 181.108 372.587 186.594 361.634 186.594C349.59 186.594 355.878 181.11 355.878 181.11C362.452 179.669 362.283 175.195 361.137 170.993L373.826 160.295Z" fill="#7F3E3B"/>
<path d="M353.754 147.541C353.825 147.541 353.896 147.526 353.964 147.496C354.197 147.389 354.29 147.13 354.174 146.916C353.008 144.781 350.852 144.533 350.761 144.523C350.503 144.495 350.27 144.667 350.24 144.904C350.21 145.14 350.395 145.354 350.652 145.382C350.723 145.389 352.401 145.599 353.332 147.303C353.416 147.454 353.582 147.541 353.754 147.541Z" fill="#263238"/>
<path d="M350.163 152.268C350.163 152.268 348.39 155.255 346.7 156.602C347.628 157.621 349.469 157.412 349.469 157.412L350.163 152.268Z" fill="#630F0F"/>
<path d="M351.044 151.095C350.946 151.825 350.445 152.368 349.925 152.309C349.405 152.25 349.064 151.611 349.162 150.882C349.26 150.152 349.761 149.609 350.282 149.667C350.8 149.726 351.143 150.365 351.044 151.095Z" fill="#263238"/>
<path d="M350.505 149.734L348.663 149.012C348.663 149.012 349.459 150.491 350.505 149.734Z" fill="#263238"/>
<path d="M371.237 437.634L361.563 439.707L355.684 419.293L365.358 417.221L371.237 437.634Z" fill="#7F3E3B"/>
<path d="M386.092 443.604H376.158L376.937 422.5H386.871L386.092 443.604Z" fill="#7F3E3B"/>
<path d="M375.37 442.548H386.531C386.936 442.548 387.266 442.807 387.323 443.171L388.594 451.271C388.726 452.111 387.938 452.906 387.001 452.892C383.11 452.831 381.235 452.621 376.327 452.621C373.308 452.621 368.896 452.908 364.727 452.908C360.648 452.908 360.335 449.125 362.072 448.784C369.857 447.247 371.086 445.129 373.71 443.109C374.183 442.745 374.776 442.548 375.37 442.548Z" fill="#263238"/>
<path d="M360.705 438.346L370.844 434.067C371.213 433.912 371.631 434.021 371.848 434.328L376.694 441.2C377.197 441.913 376.843 442.938 375.985 443.283C372.422 444.719 370.623 445.248 366.163 447.129C363.42 448.286 357.877 450.942 354.089 452.541C350.384 454.104 348.376 450.788 349.796 449.811C356.17 445.43 357.988 442.332 359.451 439.49C359.716 438.98 360.166 438.575 360.705 438.346Z" fill="#263238"/>
<path opacity="0.2" d="M355.687 419.298L358.835 430.234L368.394 427.747L365.366 417.224L355.687 419.298Z" fill="black"/>
<path opacity="0.2" d="M386.873 422.505H376.935L376.538 433.384H386.476L386.873 422.505Z" fill="black"/>
<path d="M391.333 183.179C395.46 184.009 399.867 197.629 399.867 197.629L388.198 209.01C388.198 209.01 378.517 196.219 380.489 191.515C382.543 186.616 386.455 182.199 391.333 183.179Z" fill="#263238"/>
<path opacity="0.4" d="M384.791 191.847C382.703 190.095 381.292 190.618 380.331 192.01C379.382 196.058 385.004 204.533 387.269 207.743C388.313 203.913 389.511 195.829 384.791 191.847Z" fill="black"/>
<path d="M339.086 183.443C339.086 183.443 334.354 184.972 343.833 238.447C359.843 238.447 376.39 238.447 384.18 238.447C383.503 223.383 383.484 214.094 391.331 183.179C391.331 183.179 382.878 181.491 374.198 181.108C367.409 180.808 361.846 180.609 355.877 181.11C348.009 181.768 339.086 183.443 339.086 183.443Z" fill="#263238"/>
<path opacity="0.4" d="M338.726 203.967C338.987 206.568 339.331 209.494 339.782 212.802C343.086 210.072 345.787 202.308 344.799 197.778C342.486 199.354 340.351 201.791 338.726 203.967Z" fill="black"/>
<path d="M343.033 195.861C340.837 200.947 338.419 205.781 335.7 210.608C332.984 215.429 330.084 220.167 326.229 224.747L325.472 225.603L325.092 226.031C324.963 226.174 324.86 226.302 324.65 226.499C323.917 227.242 323.121 227.877 322.307 228.41C320.674 229.479 318.985 230.159 317.349 230.682C314.071 231.694 310.902 232.052 307.813 232.223C301.614 232.453 295.749 231.926 289.835 230.758L290.493 226.182C293.218 226.195 296.078 226.14 298.834 225.98C301.605 225.847 304.347 225.575 306.977 225.145C309.602 224.742 312.14 224.128 314.258 223.283C315.303 222.853 316.211 222.338 316.879 221.817C317.216 221.558 317.479 221.292 317.69 221.038C317.734 221.001 317.841 220.857 317.931 220.741L318.209 220.382L318.764 219.667C321.686 215.701 324.251 211.094 326.702 206.488C329.108 201.861 331.43 197.064 333.609 192.382L343.033 195.861Z" fill="#803E3C"/>
<path d="M339.086 183.443C334.148 184.548 328.073 196.983 328.073 196.983L338.322 210.796C338.322 210.796 351.967 195.038 350.344 190.223C348.653 185.208 345.076 182.103 339.086 183.443Z" fill="#263238"/>
<path d="M293.335 226.861L284.786 223.24L283.926 231.036C283.926 231.036 291.071 232.965 294.594 230.988L293.335 226.861Z" fill="#7F3E3B"/>
<path d="M279.666 222.452L278.85 228.39L283.927 231.037L284.786 223.24L279.666 222.452Z" fill="#7F3E3B"/>
<path d="M378.119 151.625C376.311 160.516 375.753 164.315 370.2 168.354C361.847 174.429 350.338 170.447 349.214 161.239C348.203 152.951 351.329 139.804 361.37 137.323C371.262 134.879 379.927 142.734 378.119 151.625Z" fill="#7F3E3B"/>
<path d="M356.829 153.498C356.276 158.032 356.062 169.811 366.919 170.181C380.224 170.634 384.207 160.207 383.021 156.037C389.939 150.869 390.94 141.983 383.161 135.183C375.382 128.383 358.255 132.184 353.469 138.809C347.539 147.021 356.829 153.498 356.829 153.498Z" fill="#263238"/>
<path d="M370.152 137.826C369.509 133.044 370.008 129.744 374.884 129.744C379.76 129.744 386.431 131.368 388.876 135.951C391.323 140.534 391.52 147.696 384.7 146.97C377.881 146.246 370.922 143.55 370.152 137.826Z" fill="#407BFF"/>
<path d="M377.714 136.677C376.551 130.972 382.091 114.921 395.606 113.878C401.865 113.394 404.764 119.574 401.486 120.593C407.399 120.526 411.211 127.718 405.68 128.801C410.052 131.363 408.964 136.635 402.737 139.219C398.147 141.123 379.322 144.57 377.714 136.677Z" fill="#263238"/>
<path d="M392.151 142.802C387.803 142.802 383.256 142.216 380.439 140.486C378.729 139.435 377.791 138.042 377.651 136.345C377.639 136.195 377.761 136.064 377.924 136.053C378.097 136.041 378.23 136.154 378.243 136.304C378.367 137.826 379.218 139.08 380.769 140.033C386.136 143.33 398.539 142.263 402.426 141.098C405.77 140.097 408.034 138.157 408.483 135.91C408.813 134.26 408.107 132.698 406.498 131.509C406.371 131.414 406.35 131.243 406.453 131.126C406.555 131.008 406.742 130.991 406.87 131.084C408.632 132.386 409.432 134.18 409.068 136.008C408.579 138.456 406.166 140.552 402.613 141.616C400.575 142.226 396.461 142.802 392.151 142.802Z" fill="#263238"/>
<path d="M353.803 152.297C352.612 153.811 352.269 155.692 352.533 157.209C352.927 159.491 355.353 159.643 357.108 158.18C358.688 156.863 360.387 154.089 359.094 152.198C357.819 150.333 355.165 150.567 353.803 152.297Z" fill="#7F3E3B"/>
<path d="M354.488 238.447C354.488 238.447 360.253 300.997 366.236 336.25C371.067 364.723 374.877 431.278 374.877 431.278H388.423C388.423 431.278 393.242 366.711 390.789 338.55C384.583 267.288 398.422 261.483 384.18 238.447H354.488Z" fill="#407BFF"/>
<path opacity="0.4" d="M371.542 262.088C366.074 267.213 361.911 273.338 358.745 279.801C360.322 293.858 362.196 309.46 364.189 323.125C370.356 308.84 375.635 286.862 371.542 262.088Z" fill="black"/>
<path d="M345.006 238.052C345.006 238.052 332.5 306.367 330.523 337.159C335.435 365.633 355.527 425.816 355.527 425.816L367.85 421.721C367.85 421.721 361.033 356.094 353.579 338.126C370.266 286.586 382.529 273.559 378.961 238.447C370.451 238.447 345.006 238.052 345.006 238.052Z" fill="#407BFF"/>
<path d="M353.874 428.823L370.525 424.676L369.583 418.586L351.753 423.009L353.874 428.823Z" fill="#263238"/>
<path d="M373.023 431.524H390.278L391.184 425.97L372.925 425.404L373.023 431.524Z" fill="#263238"/>
<path d="M384.785 236.274L386.604 239.587C386.745 239.844 386.413 240.106 385.947 240.106H343.634C343.27 240.106 342.969 239.943 342.946 239.733L342.582 236.42C342.557 236.191 342.873 235.996 343.27 235.996H384.126C384.428 235.997 384.693 236.109 384.785 236.274Z" fill="#407BFF"/>
<path opacity="0.5" d="M384.785 236.274L386.604 239.587C386.745 239.844 386.413 240.106 385.947 240.106H343.634C343.27 240.106 342.969 239.943 342.946 239.733L342.582 236.42C342.557 236.191 342.873 235.996 343.27 235.996H384.126C384.428 235.997 384.693 236.109 384.785 236.274Z" fill="black"/>
<path d="M379.297 240.465H380.392C380.61 240.465 380.776 240.362 380.761 240.236L380.247 235.932C380.232 235.806 380.042 235.703 379.824 235.703H378.729C378.511 235.703 378.345 235.807 378.36 235.932L378.874 240.236C378.888 240.363 379.079 240.465 379.297 240.465Z" fill="#407BFF"/>
<path d="M364.608 208.76C364.342 208.76 364.106 208.596 364.037 208.359C360.167 195.244 352.125 184.457 348.289 182.794C347.86 182.608 347.504 182.554 347.289 182.643C346.988 182.767 346.639 182.644 346.504 182.369C346.37 182.095 346.503 181.773 346.801 181.65C347.354 181.421 348.025 181.475 348.795 181.809C352.89 183.585 361.002 194.248 365.06 207.669C367.968 207.635 372.455 207.302 373.537 207.218C374.892 205.741 384.838 194.337 381.116 181.862C381.03 181.573 381.216 181.274 381.533 181.194C381.846 181.115 382.174 181.285 382.261 181.575C386.402 195.46 374.392 207.979 374.271 208.104C374.17 208.207 374.03 208.271 373.881 208.283C373.821 208.289 367.907 208.76 364.608 208.76Z" fill="#407BFF"/>
<path d="M384.255 216.451C377.79 205.334 375.146 204.557 373.99 200.983C373.99 200.983 375.031 198.285 377.676 195.553C376.882 195.35 375.204 195.042 374.151 194.856C374.271 194.37 374.393 193.889 374.513 193.428C373.639 193.205 371.825 193.434 370.898 193.577L370.856 192.48C370.856 192.48 367.578 191.876 366.261 192.213C366.392 192.719 366.525 193.245 366.658 193.779C365.504 193.984 363.663 194.321 362.794 194.543C365.312 197.144 366.22 199.922 366.416 200.608C362.934 206.097 349.386 241.418 371.416 244.074C393.459 246.731 390.718 227.568 384.255 216.451Z" fill="#407BFF"/>
<path opacity="0.4" d="M384.255 216.451C377.79 205.334 375.146 204.557 373.99 200.983C373.99 200.983 375.031 198.285 377.676 195.553C376.882 195.35 375.204 195.042 374.151 194.856C374.271 194.37 374.393 193.889 374.513 193.428C373.639 193.205 371.825 193.434 370.898 193.577L370.856 192.48C370.856 192.48 367.578 191.876 366.261 192.213C366.392 192.719 366.525 193.245 366.658 193.779C365.504 193.984 363.663 194.321 362.794 194.543C365.312 197.144 366.22 199.922 366.416 200.608C362.934 206.097 349.386 241.418 371.416 244.074C393.459 246.731 390.718 227.568 384.255 216.451Z" fill="white"/>
<path d="M365.593 199.555C365.429 199.825 365.445 200.848 365.42 201.256C365.395 201.664 366.581 201.936 367.915 202.049C369.249 202.162 374.759 202.367 374.586 201.8C374.413 201.233 374.858 200.463 374.883 199.986C374.908 199.51 372.684 199.488 370.83 199.555C368.977 199.623 365.964 198.943 365.593 199.555Z" fill="#407BFF"/>
<path d="M352.773 240.465H353.868C354.086 240.465 354.252 240.362 354.237 240.236L353.723 235.932C353.708 235.806 353.518 235.703 353.3 235.703H352.205C351.987 235.703 351.821 235.807 351.836 235.932L352.35 240.236C352.365 240.363 352.555 240.465 352.773 240.465Z" fill="#407BFF"/>
</svg>
