<svg width="458" height="474" viewBox="0 0 458 474" fill="none" xmlns="http://www.w3.org/2000/svg">
<g clip-path="url(#clip0_1006_2)">
<path d="M403.302 404.275C393.935 414.313 385.072 420.787 378.069 425.901C295.754 486.021 198.353 468.496 177.653 464.216C147.085 457.897 87.9979 445.681 45.2789 394.545C-19.3513 317.18 -9.28748 195.293 40.8441 114.834C50.0138 100.117 98.4517 18.4326 196.901 5.33295C256.482 -2.5948 325.934 13.3946 376.229 56.2865C481.803 146.321 474.287 328.206 403.302 404.275Z" fill="url(#paint0_linear_1006_2)"/>
<path d="M87.2798 134.371C87.3222 132.096 89.1706 130.266 91.4361 130.266H228.849C231.145 130.266 233.584 132.153 233.584 134.459V456.552C233.584 458.274 232.613 459.924 231.399 461.14C230.186 462.355 228.396 463.035 226.682 463.031L87.7646 462.65C86.0359 462.645 84.3457 461.944 83.1364 460.703C81.9272 459.462 81.2464 457.781 81.2789 456.045L87.2798 134.371Z" fill="#BDD0FB"/>
<g opacity="0.52">
<path d="M166.194 153.092L211.145 152.936L211.128 147.287L166.227 147.429L166.194 153.092Z" fill="white"/>
<path d="M166.071 173.898L211.206 173.691L211.189 167.996L166.104 168.189L166.071 173.898Z" fill="white"/>
<path d="M165.946 194.876L211.268 194.618L211.251 188.876L165.981 189.12L165.946 194.876Z" fill="white"/>
<path d="M165.821 216.029L211.331 215.718L211.314 209.928L165.855 210.224L165.821 216.029Z" fill="white"/>
<path d="M165.695 237.357L211.394 236.993L211.377 231.156L165.729 231.505L165.695 237.357Z" fill="white"/>
<path d="M165.439 280.552L211.522 280.079L211.505 274.143L165.474 274.6L165.439 280.552Z" fill="white"/>
<path d="M165.047 346.723L211.718 346.08L211.7 339.992L165.083 340.619L165.047 346.723Z" fill="white"/>
<path d="M165.567 258.864L211.458 258.446L211.44 252.56L165.602 252.963L165.567 258.864Z" fill="white"/>
<path d="M165.309 302.423L211.587 301.895L211.569 295.908L165.345 296.422L165.309 302.423Z" fill="white"/>
<path d="M165.179 324.479L211.652 323.894L211.634 317.857L165.215 318.427L165.179 324.479Z" fill="white"/>
<path d="M164.914 369.157L211.784 368.455L211.766 362.315L164.951 363L164.914 369.157Z" fill="white"/>
<path d="M164.78 391.783L211.851 391.022L211.833 384.829L164.817 385.574L164.78 391.783Z" fill="white"/>
<path d="M164.645 414.605L211.919 413.783L211.9 407.537L164.682 408.342L164.645 414.605Z" fill="white"/>
<path d="M164.508 437.624L211.987 436.741L211.968 430.44L164.546 431.307L164.508 437.624Z" fill="white"/>
<path d="M107.26 153.297L152.493 153.139L152.542 147.473L107.36 147.616L107.26 153.297Z" fill="white"/>
<path d="M106.893 174.169L152.313 173.961L152.362 168.248L106.994 168.442L106.893 174.169Z" fill="white"/>
<path d="M106.523 195.215L152.132 194.955L152.181 189.194L106.624 189.44L106.523 195.215Z" fill="white"/>
<path d="M106.15 216.436L151.949 216.124L151.999 210.315L106.252 210.613L106.15 216.436Z" fill="white"/>
<path d="M105.774 237.834L151.765 237.468L151.815 231.611L105.877 231.962L105.774 237.834Z" fill="white"/>
<path d="M105.012 281.172L151.392 280.696L151.443 274.74L105.117 275.201L105.012 281.172Z" fill="white"/>
<path d="M103.845 347.566L150.82 346.919L150.873 340.81L103.953 341.441L103.845 347.566Z" fill="white"/>
<path d="M105.395 259.412L151.579 258.992L151.63 253.085L105.499 253.491L105.395 259.412Z" fill="white"/>
<path d="M104.626 303.116L151.203 302.584L151.255 296.578L104.732 297.094L104.626 303.116Z" fill="white"/>
<path d="M104.237 325.247L151.012 324.657L151.065 318.6L104.344 319.174L104.237 325.247Z" fill="white"/>
<path d="M103.449 370.077L150.626 369.371L150.679 363.209L103.558 363.899L103.449 370.077Z" fill="white"/>
<path d="M103.05 392.782L150.431 392.015L150.484 385.801L103.16 386.551L103.05 392.782Z" fill="white"/>
<path d="M102.647 415.683L150.233 414.856L150.287 408.588L102.758 409.398L102.647 415.683Z" fill="white"/>
<path d="M102.241 438.783L150.034 437.894L150.089 431.571L102.353 432.443L102.241 438.783Z" fill="white"/>
</g>
<path d="M8.42582 223.214C8.48608 220.583 11.0982 218.418 14.3002 218.418H135.327C138.572 218.418 141.759 220.696 141.759 223.363V461.714C141.759 462.997 140.859 464.227 139.754 465.133C138.649 466.039 137.011 466.546 135.45 466.543L8.90992 466.259C7.33528 466.255 5.79366 465.732 4.69239 464.807C3.59111 463.883 2.97014 462.604 2.99953 461.311L8.42582 223.214Z" fill="#BDD0FB"/>
<path d="M97.5559 246.505L132.034 246.467L132.307 231.944H97.796L97.5559 246.505Z" fill="url(#paint1_linear_1006_2)"/>
<path d="M58.9102 246.498L93.3535 246.46L93.5896 231.944H59.1128L58.9102 246.498Z" fill="url(#paint2_linear_1006_2)"/>
<path d="M20.3029 246.49L54.7116 246.452L54.9101 231.944H20.4682L20.3029 246.49Z" fill="url(#paint3_linear_1006_2)"/>
<path d="M97.1251 272.574L131.543 272.592L131.815 258.164L97.3643 258.152L97.1251 272.574Z" fill="url(#paint4_linear_1006_2)"/>
<path d="M58.5465 272.554L92.9298 272.572L93.1651 258.15L58.7484 258.139L58.5465 272.554Z" fill="url(#paint5_linear_1006_2)"/>
<path d="M20.0065 272.534L54.3553 272.552L54.5531 258.137L20.1711 258.126L20.0065 272.534Z" fill="url(#paint6_linear_1006_2)"/>
<path d="M96.6954 298.464L131.053 298.494L131.325 284.115L96.9338 284.092L96.6954 298.464Z" fill="url(#paint7_linear_1006_2)"/>
<path d="M58.184 298.431L92.5075 298.46L92.7418 284.089L58.3851 284.066L58.184 298.431Z" fill="url(#paint8_linear_1006_2)"/>
<path d="M19.7113 298.397L54.0003 298.427L54.1973 284.063L19.8752 284.04L19.7113 298.397Z" fill="url(#paint9_linear_1006_2)"/>
<path d="M96.2675 324.264L130.566 324.306L130.836 309.977L96.505 309.942L96.2675 324.264Z" fill="url(#paint10_linear_1006_2)"/>
<path d="M57.8228 324.218L92.0869 324.259L92.3203 309.938L58.0232 309.903L57.8228 324.218Z" fill="url(#paint11_linear_1006_2)"/>
<path d="M19.4169 324.172L53.6465 324.213L53.843 309.899L19.5802 309.864L19.4169 324.172Z" fill="url(#paint12_linear_1006_2)"/>
<path d="M95.8411 349.976L130.08 350.028L130.349 335.749L96.0779 335.703L95.8411 349.976Z" fill="url(#paint13_linear_1006_2)"/>
<path d="M57.4633 349.917L91.668 349.969L91.9006 335.697L57.6631 335.651L57.4633 349.917Z" fill="url(#paint14_linear_1006_2)"/>
<path d="M19.1235 349.858L53.294 349.91L53.4896 335.645L19.2863 335.599L19.1235 349.858Z" fill="url(#paint15_linear_1006_2)"/>
<path d="M95.4165 375.598L129.596 375.662L129.865 361.432L95.6523 361.374L95.4165 375.598Z" fill="url(#paint16_linear_1006_2)"/>
<path d="M57.1049 375.527L91.2505 375.59L91.4823 361.367L57.304 361.31L57.1049 375.527Z" fill="url(#paint17_linear_1006_2)"/>
<path d="M18.8312 375.455L52.9426 375.519L53.1376 361.303L18.9935 361.245L18.8312 375.455Z" fill="url(#paint18_linear_1006_2)"/>
<path d="M94.9924 401.132L129.113 401.207L129.381 387.026L95.2275 386.958L94.9924 401.132Z" fill="url(#paint19_linear_1006_2)"/>
<path d="M56.7471 401.048L90.8337 401.123L91.0647 386.949L56.9454 386.88L56.7471 401.048Z" fill="url(#paint20_linear_1006_2)"/>
<path d="M18.5398 400.964L52.5924 401.039L52.7869 386.872L18.7016 386.803L18.5398 400.964Z" fill="url(#paint21_linear_1006_2)"/>
<path d="M94.571 426.579L128.633 426.665L128.9 412.533L94.8053 412.453L94.571 426.579Z" fill="url(#paint22_linear_1006_2)"/>
<path d="M56.3914 426.482L90.419 426.568L90.6494 412.443L56.589 412.363L56.3914 426.482Z" fill="url(#paint23_linear_1006_2)"/>
<path d="M18.2496 426.386L52.2436 426.471L52.4371 412.353L18.4108 412.273L18.2496 426.386Z" fill="url(#paint24_linear_1006_2)"/>
<path d="M94.1501 451.938L128.153 452.035L128.419 437.951L94.3835 437.86L94.1501 451.938Z" fill="url(#paint25_linear_1006_2)"/>
<path d="M56.0361 451.829L90.0054 451.926L90.235 437.849L56.2331 437.758L56.0361 451.829Z" fill="url(#paint26_linear_1006_2)"/>
<path d="M17.9603 451.72L51.8957 451.817L52.0889 437.747L18.1208 437.656L17.9603 451.72Z" fill="url(#paint27_linear_1006_2)"/>
<path d="M324.342 228.906C324.402 226.275 327.014 224.11 330.216 224.11H451.243C454.488 224.11 457.675 226.388 457.675 229.055V467.406C457.675 468.689 456.775 469.919 455.67 470.825C454.565 471.731 452.927 472.238 451.366 472.235L324.826 471.951C323.251 471.947 321.71 471.424 320.609 470.499C319.507 469.574 318.886 468.296 318.916 467.002L324.342 228.906Z" fill="#BDD0FB"/>
<g opacity="0.5">
<path d="M413.472 252.197L447.95 252.159L448.223 237.635H413.712L413.472 252.197Z" fill="white"/>
<path d="M374.826 252.19L409.269 252.152L409.505 237.635H375.028L374.826 252.19Z" fill="white"/>
<path d="M336.219 252.182L370.628 252.144L370.826 237.635H336.384L336.219 252.182Z" fill="white"/>
<path d="M413.041 278.266L447.459 278.284L447.731 263.855L413.28 263.844L413.041 278.266Z" fill="white"/>
<path d="M374.462 278.246L408.846 278.264L409.081 263.842L374.664 263.831L374.462 278.246Z" fill="white"/>
<path d="M335.923 278.226L370.271 278.243L370.469 263.829L336.087 263.818L335.923 278.226Z" fill="white"/>
<path d="M412.612 304.156L446.969 304.186L447.241 289.807L412.85 289.784L412.612 304.156Z" fill="white"/>
<path d="M374.1 304.123L408.424 304.152L408.658 289.781L374.301 289.758L374.1 304.123Z" fill="white"/>
<path d="M335.627 304.09L369.916 304.119L370.113 289.755L335.791 289.732L335.627 304.09Z" fill="white"/>
<path d="M412.184 329.956L446.482 329.997L446.753 315.668L412.421 315.634L412.184 329.956Z" fill="white"/>
<path d="M373.739 329.91L408.003 329.951L408.237 315.629L373.94 315.595L373.739 329.91Z" fill="white"/>
<path d="M335.333 329.864L369.563 329.905L369.759 315.591L335.496 315.556L335.333 329.864Z" fill="white"/>
<path d="M411.758 355.668L445.996 355.72L446.266 341.441L411.994 341.395L411.758 355.668Z" fill="white"/>
<path d="M373.38 355.608L407.584 355.661L407.817 341.389L373.579 341.343L373.38 355.608Z" fill="white"/>
<path d="M335.04 355.55L369.21 355.602L369.406 341.337L335.203 341.291L335.04 355.55Z" fill="white"/>
<path d="M411.332 381.29L445.512 381.354L445.78 367.123L411.568 367.066L411.332 381.29Z" fill="white"/>
<path d="M373.021 381.218L407.166 381.282L407.398 367.059L373.22 367.001L373.021 381.218Z" fill="white"/>
<path d="M334.747 381.147L368.859 381.211L369.054 366.995L334.91 366.937L334.747 381.147Z" fill="white"/>
<path d="M410.909 406.824L445.029 406.899L445.297 392.718L411.144 392.649L410.909 406.824Z" fill="white"/>
<path d="M372.664 406.74L406.75 406.815L406.981 392.641L372.862 392.572L372.664 406.74Z" fill="white"/>
<path d="M334.456 406.656L368.509 406.731L368.703 392.564L334.618 392.495L334.456 406.656Z" fill="white"/>
<path d="M410.487 432.27L444.549 432.357L444.815 418.224L410.721 418.144L410.487 432.27Z" fill="white"/>
<path d="M372.307 432.174L406.335 432.26L406.565 418.135L372.505 418.055L372.307 432.174Z" fill="white"/>
<path d="M334.166 432.077L368.16 432.163L368.353 418.045L334.327 417.965L334.166 432.077Z" fill="white"/>
<path d="M410.067 457.63L444.069 457.727L444.335 443.643L410.3 443.552L410.067 457.63Z" fill="white"/>
<path d="M371.953 457.521L405.922 457.618L406.152 443.541L372.15 443.45L371.953 457.521Z" fill="white"/>
<path d="M333.876 457.412L367.812 457.509L368.005 443.439L334.037 443.348L333.876 457.412Z" fill="white"/>
</g>
<path d="M204.027 293.745C194.149 261.674 175.039 236.114 152.401 221.089C132.165 207.657 117.586 186.738 112.188 162.574C111.62 160.034 110.946 157.487 110.162 154.941C98.2823 116.369 65.7004 92.6611 37.3876 101.987C9.07448 111.313 -4.24778 150.141 7.6316 188.712C10.0603 196.6 13.3555 203.863 17.303 210.35C29.9011 231.05 34.8309 255.877 30.1956 279.891C26.0525 301.35 27.1768 325.513 34.582 349.558C45.6265 385.419 68.2153 413.14 94.3706 427.096C104.264 432.374 113.185 439.473 120.572 448.05C132.848 462.304 150.149 469.003 166.045 463.768C183.192 458.119 193.906 440.162 194.676 419.21C195.113 407.354 197.808 395.733 202.202 384.746C212.574 358.81 214.013 326.171 204.027 293.745Z" fill="#91B3FA"/>
<path opacity="0.57" d="M59.939 139.754C71.4887 164.027 82.2714 188.666 92.8037 213.42C95.4393 219.608 97.9784 225.839 100.537 232.061L104.373 241.394L108.133 250.762C110.616 257.016 113.183 263.235 115.598 269.52L122.842 288.371C127.516 301.002 132.294 313.592 136.74 326.313C138.971 332.67 141.322 338.981 143.428 345.385L149.831 364.563C158.117 390.222 165.78 416.11 172.156 442.349L171.061 442.646L165.564 423.203L164.201 418.341L162.72 413.514L159.739 403.867L156.778 394.217C155.796 390.998 154.698 387.817 153.664 384.615C151.555 378.226 149.494 371.821 147.345 365.447C138.586 340.006 129.499 314.685 119.905 289.563C115.015 277.04 110.23 264.474 105.255 251.985L101.549 242.608L97.7663 233.264C95.2484 227.032 92.7302 220.801 90.1511 214.596C85.0958 202.14 79.9533 189.722 74.7128 177.347C69.535 164.943 64.2426 152.588 58.9155 140.254L59.939 139.754Z" fill="white"/>
<path d="M286.656 229.996C282.04 194.971 266.783 164.951 246.065 145.165C227.545 127.478 216.151 103.107 214.779 77.1008C214.635 74.3673 214.381 71.6059 214.015 68.8251C208.463 26.7009 179.006 -3.92979 148.219 0.409651C117.432 4.74892 96.9754 42.4152 102.527 84.5394C103.662 93.1531 105.798 101.284 108.74 108.733C118.13 132.506 118.906 159.112 109.966 183.082C101.978 204.503 98.9468 229.707 102.407 255.966C107.569 295.131 126.036 328.039 150.563 347.377C159.84 354.692 167.801 363.706 173.925 373.963C184.101 391.008 200.764 401.181 218.048 398.745C236.695 396.117 250.845 379.55 255.271 358.022C257.777 345.84 262.569 334.325 269 323.784C284.183 298.901 291.324 265.409 286.656 229.996Z" fill="#7D97F4"/>
<path opacity="0.57" d="M164.905 43.7024C172.596 70.9753 179.434 98.4817 185.993 126.062C187.636 132.956 189.171 139.877 190.728 146.793L193.062 157.166L195.312 167.56C196.786 174.496 198.353 181.41 199.751 188.363L203.947 209.22C206.572 223.162 209.312 237.08 211.686 251.072C212.883 258.065 214.211 265.034 215.271 272.053L218.543 293.091C222.631 321.185 226.038 349.399 228.058 377.736L226.878 377.838L224.586 356.696L224.024 351.411L223.335 346.141L221.937 335.604L220.558 325.066C220.105 321.553 219.525 318.056 219.015 314.551C217.95 307.547 216.938 300.535 215.828 293.539C211.214 265.581 206.242 237.687 200.714 209.902C197.847 196.032 195.095 182.137 192.135 168.287L189.942 157.893L187.665 147.518C186.151 140.6 184.637 133.683 183.056 126.781C180.007 112.95 176.862 99.1398 173.608 85.3572C170.424 71.557 167.114 57.7843 163.763 44.0287L164.905 43.7024Z" fill="white"/>
<path d="M428.157 470.732H159.418C157.317 470.732 155.615 468.971 155.615 466.799V91.2353C155.615 89.0632 157.317 87.3022 159.418 87.3022H428.157C430.258 87.3022 431.96 89.0632 431.96 91.2353V466.799C431.96 468.971 430.257 470.732 428.157 470.732Z" fill="url(#paint28_linear_1006_2)"/>
<path d="M384.916 420.224H202.07C195.139 420.224 189.52 414.413 189.52 407.245V157.885C189.52 150.717 195.139 144.907 202.07 144.907H384.916C391.847 144.907 397.465 150.717 397.465 157.885V407.245C397.465 414.413 391.846 420.224 384.916 420.224Z" fill="#7D97F4"/>
<path d="M377.997 401.071H209.153C207.074 401.071 205.389 399.327 205.389 397.177V171.448C205.389 169.298 207.074 167.555 209.153 167.555H377.997C380.076 167.555 381.762 169.298 381.762 171.448V397.177C381.762 399.328 380.076 401.071 377.997 401.071Z" fill="url(#paint29_linear_1006_2)"/>
<path d="M293.283 125.253C297.849 125.253 301.55 121.425 301.55 116.703C301.55 111.981 297.849 108.154 293.283 108.154C288.717 108.154 285.016 111.981 285.016 116.703C285.016 121.425 288.717 125.253 293.283 125.253Z" fill="url(#paint30_linear_1006_2)"/>
<path d="M346.692 254.722L240.334 256.551C232.24 256.69 225.654 263.2 225.654 271.09V340.36C225.654 348.25 232.24 354.373 240.334 354.037L346.692 349.62C354.333 349.303 360.504 342.865 360.504 335.239V268.293C360.504 260.667 354.333 254.591 346.692 254.722Z" fill="url(#paint31_linear_1006_2)"/>
<path d="M352.076 242.194C348.855 242.244 346.239 239.673 346.239 236.452V221.291C346.239 206.082 333.799 193.745 318.4 193.792L283.751 193.895C267.955 193.942 255.011 206.643 255.011 222.207V237.722C255.011 241.018 252.268 243.733 248.88 243.785C245.486 243.838 242.73 241.199 242.73 237.893V222.331C242.73 200.116 261.237 182.043 283.751 182.043H318.4C340.276 182.043 357.895 199.597 357.895 221.174V236.289C357.895 239.501 355.292 242.145 352.076 242.194Z" fill="url(#paint32_linear_1006_2)"/>
<path d="M310.721 293.112C310.721 285.414 304.223 279.37 296.323 279.925C289.338 280.416 283.561 286.201 283.184 293.109C282.891 298.469 285.74 303.103 290.07 305.446C291.911 306.443 292.826 308.543 292.468 310.622L289.431 328.245C289.045 330.489 290.789 332.461 293.084 332.376L300.889 332.087C303.172 332.002 304.904 329.91 304.52 327.702L301.486 310.242C301.124 308.16 302.17 306.091 304.017 304.949C308.033 302.466 310.721 298.062 310.721 293.112Z" fill="url(#paint33_linear_1006_2)"/>
<path d="M97.1083 471.402C97.1106 471.251 97.1008 471.098 97.0634 470.944C94.8578 461.902 83.9111 456.27 83.9111 456.27L79.5734 456.621C77.0795 464.591 77.3999 469.479 77.8005 471.656C77.8115 471.718 77.8295 471.776 77.8452 471.835C81.4235 472.165 88.7883 472.381 97.1083 471.402Z" fill="url(#paint34_linear_1006_2)"/>
<path d="M77.8452 471.835C78.0384 472.562 78.5575 473.128 79.2217 473.272C84.3118 474.379 92.402 473.488 95.7988 473.029C96.5482 472.928 97.096 472.211 97.1084 471.402C88.7883 472.381 81.4234 472.165 77.8452 471.835Z" fill="#91B3FA"/>
<path d="M77.8293 449.939L79.6664 459.086C79.801 459.756 80.299 460.258 80.9021 460.316C81.6403 460.388 82.6914 460.43 83.7484 460.269C84.6961 460.126 85.3562 459.13 85.1882 458.061L83.9112 449.939H77.8293Z" fill="url(#paint35_linear_1006_2)"/>
<path d="M115.894 471.719C111.104 471.58 108.626 470.997 107.345 470.455C107.342 470.948 107.344 471.449 107.36 471.969C107.376 472.523 107.774 472.967 108.263 472.963L134.567 472.788C135.406 472.782 135.897 471.775 135.533 470.979C132.084 471.274 123.3 471.933 115.894 471.719Z" fill="#91B3FA"/>
<path d="M135.533 470.979C135.501 470.91 135.474 470.839 135.429 470.774C133.106 467.417 127.189 460.733 115.498 457.834L109.889 457.651C109.889 457.651 107.392 462.14 107.345 470.455C108.626 470.997 111.103 471.58 115.894 471.719C123.3 471.933 132.084 471.274 135.533 470.979Z" fill="url(#paint36_linear_1006_2)"/>
<path d="M108.6 449.13C108.688 449.558 109.855 456.066 110.307 458.589C110.415 459.189 110.866 459.629 111.404 459.66C112.364 459.715 113.913 459.722 115.245 459.348C115.964 459.146 116.446 458.388 116.395 457.548L115.768 447.253L108.6 449.13Z" fill="url(#paint37_linear_1006_2)"/>
<path d="M104.349 328.965C104.349 328.965 112.065 383.793 117.633 449.036C117.736 450.251 116.8 451.309 115.646 451.56C113.945 451.931 111.445 452.371 109.375 452.31C108.27 452.278 107.346 451.431 107.16 450.304C105.264 438.801 91.7289 377.063 88.1765 363.475C88.1765 363.475 84.0961 421.193 85.4004 451.138C85.4329 451.882 84.9058 452.528 84.1898 452.613C83.1038 452.743 81.3665 452.842 79.1554 452.599C78.3161 452.507 77.639 451.851 77.519 450.987C76.1679 441.251 68.3914 383.301 68.7222 341.555C68.7408 339.201 71.393 319.859 71.393 319.859L104.349 328.965Z" fill="url(#paint38_linear_1006_2)"/>
<path d="M107.339 236.764L108.372 265.454C111.306 266.498 114.099 267.31 116.759 267.917C118.423 262.378 122.086 255.579 125.086 250.524C114.064 246.494 107.339 236.764 107.339 236.764Z" fill="url(#paint39_linear_1006_2)"/>
<path d="M70.2333 332.126C69.44 331.834 68.887 331.09 68.8007 330.224C67.7747 319.93 62.807 256.103 94.1691 229.848C94.1691 229.848 95.9676 224.981 110.751 236.943C125.534 248.906 117.619 261.444 114.08 278.739C109.797 299.666 102.282 316.772 105.607 329.651C105.837 330.539 105.385 331.473 104.55 331.791C93.0666 336.168 81.6271 336.313 70.2333 332.126Z" fill="url(#paint40_linear_1006_2)"/>
<path d="M106.403 210.724C106.393 211.632 93.8696 230.027 93.8696 230.027C93.8696 230.027 96.1174 234.606 106.848 238.323L116.112 218.627L106.403 210.724Z" fill="url(#paint41_linear_1006_2)"/>
<path d="M100.199 273.669C100.12 273.669 100.041 273.646 99.9715 273.597C89.9673 266.606 85.261 255.324 85.2145 255.21C85.1271 254.996 85.2235 254.749 85.4301 254.659C85.6375 254.568 85.8754 254.667 85.9635 254.882C86.009 254.993 90.6277 266.053 100.427 272.9C100.613 273.03 100.662 273.291 100.536 273.484C100.458 273.604 100.329 273.669 100.199 273.669Z" fill="url(#paint42_linear_1006_2)"/>
<path d="M115.1 258.03C114.967 258.03 114.836 257.962 114.758 257.837C114.728 257.789 111.672 252.869 105.85 242.089C104.06 238.774 101.708 236.675 98.8581 235.85C94.1388 234.487 89.5905 237.103 89.5456 237.129C89.3498 237.241 89.1023 237.174 88.9912 236.972C88.8804 236.77 88.9483 236.513 89.1436 236.398C89.3397 236.284 94.0179 233.576 99.0696 235.039C102.139 235.924 104.66 238.158 106.561 241.678C112.367 252.431 115.412 257.334 115.442 257.382C115.564 257.577 115.509 257.837 115.321 257.963C115.252 258.009 115.176 258.03 115.1 258.03Z" fill="url(#paint43_linear_1006_2)"/>
<path d="M116.263 200.183C116.263 200.183 120.719 210.769 121.018 216.325C121.317 221.881 122.475 225.486 116.263 226.605C110.05 227.724 104.817 224.524 101.982 218.989C101.982 218.989 97.5403 210.461 98.5367 206.968C99.5331 203.476 116.263 200.183 116.263 200.183Z" fill="url(#paint44_linear_1006_2)"/>
<path d="M104.105 215.01L104.458 214.849C104.909 214.643 105.101 214.089 104.875 213.637C103.999 211.887 102.291 207.876 104.498 206.94C107.341 205.734 118.603 203.359 121.033 199.226C123.368 195.255 121.299 190.127 118.189 188.669C117.981 188.572 117.736 188.649 117.629 188.858L117.37 189.365C117.192 189.712 116.697 189.66 116.591 189.283C116.49 188.92 116.024 188.85 115.831 189.17C115.084 190.406 113.068 192.411 107.675 193.44C100.011 194.903 94.9444 198.11 94.8183 203.587C94.8103 203.935 94.4524 204.128 94.1649 203.947C93.5991 203.59 92.6936 203.423 91.4834 204.476C89.3786 206.306 90.24 211.053 94.8539 214.959C95.0732 215.144 95.0714 215.498 94.8339 215.658C93.9975 216.221 92.7506 217.561 95.9814 219.347C99.3232 221.195 101.819 221.043 102.78 220.879C103.019 220.838 103.173 220.599 103.121 220.354L102.095 215.541C102.037 215.268 102.238 215.01 102.507 215.01H104.105Z" fill="url(#paint45_linear_1006_2)"/>
<path d="M104.298 216.026C104.298 216.026 102.598 209.263 99.6665 211.159C96.735 213.055 101.188 218.736 103.545 218.989L104.298 216.026Z" fill="url(#paint46_linear_1006_2)"/>
<path d="M161.998 234.606C161.998 234.606 159.764 230.511 159.906 228.522C160.048 226.532 158.85 223.61 160.125 223.826C161.401 224.042 161.664 223.866 162.011 226.254C162.357 228.641 166.383 239.069 161.998 234.606Z" fill="url(#paint47_linear_1006_2)"/>
<path d="M162.418 228.095L162.366 236.276C147.247 253.158 135.01 254.152 125.086 250.524C122.086 255.579 118.423 262.378 116.759 267.917C157.134 277.123 166.642 238.737 166.642 238.737C172.111 236.394 173.213 235.024 172.978 233.489L162.418 228.095Z" fill="url(#paint48_linear_1006_2)"/>
<path d="M174.045 219.979C172.755 219.437 170.23 214.458 169.746 216.096C169.262 217.734 169.95 219.979 169.746 220.675C169.542 221.372 166.394 229.385 167.022 231.165C167.476 232.449 169.975 232.259 170.357 234.361C170.483 235.058 171.023 235.559 171.648 235.559C172.273 235.559 172.812 235.06 172.94 234.362C172.991 234.083 175.336 220.521 174.045 219.979Z" fill="url(#paint49_linear_1006_2)"/>
<path d="M132.835 202.94C122.639 223.794 130.721 249.246 150.886 259.789C167.275 268.359 186.602 264.441 198.739 251.477L268.799 288.11C269.962 288.718 271.346 288.669 272.467 287.979L279.319 283.758C279.437 283.685 279.548 283.605 279.656 283.521C279.686 283.498 279.715 283.473 279.744 283.448C279.824 283.383 279.901 283.314 279.974 283.243C279.999 283.218 280.024 283.194 280.049 283.169C280.14 283.076 280.226 282.979 280.307 282.878L280.311 282.874C281.171 281.791 281.434 280.279 280.907 278.914L275.339 264.48C274.995 263.588 274.348 262.857 273.52 262.424L266.502 258.754L264.645 262.553L258.617 259.401L260.474 255.602L254.834 252.653L253.126 256.148L245.799 252.317L247.508 248.822L244.778 247.395L243.899 249.194L237.757 245.982L238.636 244.184L233.859 241.686L232.002 245.484L228.59 243.7L230.447 239.901L227.489 238.355L225.632 242.153L219.718 239.061L221.575 235.263L213.261 230.916L209.701 229.054C212.602 211.261 204.195 192.842 187.806 184.272C167.641 173.729 143.03 182.087 132.835 202.94ZM156.705 205.821C160.788 207.956 162.424 213.11 160.36 217.333C158.296 221.555 153.312 223.248 149.229 221.113C145.146 218.978 143.509 213.824 145.574 209.601C147.638 205.378 152.622 203.686 156.705 205.821Z" fill="url(#paint50_linear_1006_2)"/>
<path d="M189.623 215.719L222.836 233.085L220.979 236.884L226.893 239.976L228.75 236.178L231.708 237.724L229.85 241.522L233.263 243.307L235.12 239.508L239.897 242.006L239.017 243.805L245.159 247.016L246.039 245.218L248.769 246.645L247.06 250.139L254.387 253.97L256.095 250.476L261.735 253.425L259.878 257.223L265.906 260.375L267.763 256.577L274.781 260.246C275.609 260.679 276.256 261.41 276.6 262.302L282.168 276.736C282.862 278.535 282.189 280.589 280.58 281.58L273.728 285.801C272.607 286.492 271.223 286.541 270.06 285.933L185.485 241.71L189.623 215.719Z" fill="url(#paint51_linear_1006_2)"/>
<path d="M152.147 257.612C172.311 268.155 196.923 259.797 207.118 238.944C217.313 218.091 209.231 192.638 189.067 182.095C168.902 171.551 144.291 179.909 134.096 200.763C123.901 221.616 131.982 247.068 152.147 257.612ZM150.49 218.935C146.407 216.8 144.77 211.646 146.835 207.423C148.899 203.201 153.883 201.508 157.966 203.643C162.049 205.778 163.686 210.932 161.621 215.155C159.557 219.378 154.573 221.07 150.49 218.935Z" fill="url(#paint52_linear_1006_2)"/>
<path d="M200 249.3L270.06 285.932C271.224 286.541 272.608 286.491 273.728 285.801L280.58 281.58C281.613 280.944 282.254 279.868 282.401 278.704C276.016 271.549 215.319 244.139 213.049 238.498C212.241 236.491 212.103 233.452 214.523 228.739L210.962 226.877C213.863 209.083 205.457 190.665 189.067 182.095C168.902 171.551 144.291 179.909 134.096 200.763C123.901 221.616 131.982 247.068 152.147 257.612C168.536 266.181 187.863 262.264 200 249.3ZM157.966 203.643C162.049 205.778 163.686 210.932 161.621 215.155C159.557 219.378 154.573 221.07 150.49 218.935C146.407 216.8 144.77 211.646 146.835 207.423C148.899 203.201 153.883 201.508 157.966 203.643Z" fill="url(#paint53_linear_1006_2)"/>
<path d="M155.77 250.201C171.977 258.676 191.758 251.958 199.952 235.197C208.146 218.437 201.651 197.98 185.444 189.505C169.236 181.031 149.456 187.749 141.261 204.509C133.067 221.27 139.563 241.727 155.77 250.201ZM150.49 218.935C146.407 216.8 144.77 211.646 146.835 207.423C148.899 203.201 153.883 201.508 157.966 203.643C162.049 205.778 163.686 210.932 161.621 215.155C159.557 219.378 154.573 221.07 150.49 218.935Z" fill="url(#paint54_linear_1006_2)"/>
<path d="M100.199 273.669C100.199 273.669 138.726 287.007 160.277 270.039C161.613 268.986 163.3 268.527 164.958 268.807L173.191 270.194C176.647 270.776 179.939 268.46 180.684 264.922C181.109 262.904 181.313 260.697 180.88 258.801L165.338 257.831L165.782 255.745C165.782 255.745 158.913 257.483 158.774 263.042C158.774 263.042 142.661 273.958 113.27 257.014C113.27 257.014 101.825 266.277 100.199 273.669Z" fill="url(#paint55_linear_1006_2)"/>
<g opacity="0.3">
<path d="M397.781 73.9086C396.883 73.8707 396.186 73.0875 396.223 72.16C396.294 70.3575 396.291 68.5254 396.213 66.7137C396.174 65.7971 396.852 65.0195 397.734 64.9616C397.744 64.961 397.755 64.9603 397.765 64.9596C398.662 64.9184 399.422 65.6371 399.461 66.565C399.543 68.4718 399.547 70.4009 399.471 72.2981C399.437 73.1657 398.772 73.8528 397.952 73.9066C397.895 73.9101 397.838 73.9113 397.781 73.9086ZM395.25 57.9228C394.935 56.1398 394.542 54.3543 394.083 52.6137C393.847 51.7186 394.358 50.794 395.224 50.5497C396.094 50.3077 396.984 50.8341 397.22 51.73C397.703 53.5612 398.116 55.441 398.448 57.3167C398.61 58.2298 398.025 59.1059 397.142 59.2731C397.078 59.2852 397.013 59.2933 396.95 59.2975C396.139 59.3508 395.4 58.7697 395.25 57.9228ZM391.267 44.265C390.577 42.6041 389.809 40.9542 388.984 39.3601C388.56 38.5417 388.858 37.5226 389.65 37.0845C390.441 36.6475 391.426 36.9547 391.85 37.7731C392.719 39.4517 393.528 41.1898 394.254 42.9385C394.608 43.7915 394.226 44.78 393.401 45.1468C393.226 45.2248 393.044 45.2684 392.863 45.2801C392.196 45.3238 391.545 44.9362 391.267 44.265ZM384.429 31.8717C383.397 30.4102 382.291 28.9786 381.143 27.6155C380.553 26.9153 380.624 25.8532 381.301 25.2436C381.978 24.6346 383.004 24.708 383.594 25.4069C384.803 26.8422 385.967 28.3498 387.054 29.8872C387.584 30.6368 387.426 31.6888 386.701 32.2364C386.441 32.4324 386.145 32.5374 385.846 32.557C385.31 32.5922 384.769 32.3527 384.429 31.8717ZM375.093 21.3623C373.775 20.1775 372.39 19.034 370.976 17.9649C370.251 17.4165 370.094 16.3646 370.623 15.6154C371.153 14.8655 372.171 14.7026 372.895 15.2512C374.383 16.3761 375.84 17.5794 377.226 18.826C377.904 19.4349 377.975 20.497 377.386 21.1976C377.089 21.5507 376.681 21.7446 376.263 21.7721C375.85 21.7989 375.429 21.6647 375.093 21.3623ZM363.74 13.2515C362.2 12.3959 360.605 11.5985 359 10.8807C358.176 10.5124 357.797 9.52251 358.153 8.67081C358.509 7.81843 359.465 7.42588 360.29 7.79418C361.979 8.54924 363.658 9.38916 365.279 10.2895C366.07 10.7292 366.366 11.7481 365.942 12.5661C365.666 13.0975 365.153 13.4127 364.611 13.4484C364.318 13.4677 364.017 13.4059 363.74 13.2515ZM303.38 12.469C302.958 11.6499 303.257 10.6314 304.05 10.1944C305.673 9.29969 307.356 8.46591 309.051 7.717C309.877 7.35228 310.832 7.74876 311.184 8.60285C311.537 9.45609 311.154 10.444 310.328 10.8088C308.718 11.5198 307.12 12.3117 305.58 13.1615C305.368 13.2782 305.143 13.3415 304.919 13.3562C304.302 13.3967 303.69 13.0697 303.38 12.469ZM350.94 7.9482C349.255 7.46856 347.53 7.05859 345.811 6.73058C344.928 6.56154 344.345 5.68456 344.508 4.77173C344.671 3.85822 345.519 3.25974 346.402 3.42417C348.212 3.76994 350.028 4.20143 351.802 4.70685C352.668 4.95341 353.176 5.87871 352.938 6.77412C352.749 7.4841 352.147 7.96186 351.474 8.00591C351.299 8.01735 351.119 7.99891 350.94 7.9482ZM316.415 6.727C316.18 5.83107 316.693 4.90782 317.56 4.66536C319.335 4.16916 321.155 3.7457 322.967 3.40573C323.851 3.23584 324.696 3.84695 324.857 4.76012C325.017 5.67347 324.431 6.54822 323.547 6.71419C321.824 7.03725 320.095 7.43953 318.408 7.91149C318.3 7.94154 318.193 7.95913 318.085 7.9663C317.33 8.01582 316.62 7.51176 316.415 6.727ZM337.316 5.73664C335.572 5.65895 333.801 5.6581 332.052 5.73477C331.155 5.77455 330.397 5.0545 330.359 4.12647C330.321 3.21108 330.999 2.43553 331.879 2.37765C331.891 2.37697 331.902 2.37611 331.914 2.37611C333.755 2.29483 335.619 2.29535 337.456 2.37679C338.353 2.41726 339.049 3.20134 339.01 4.12903C338.974 4.99524 338.31 5.68046 337.491 5.73425C337.434 5.73818 337.375 5.73869 337.316 5.73664Z" fill="#91B3FA"/>
<path d="M295.374 19.8305C295.693 19.8095 296.01 19.6913 296.28 19.4697C296.936 18.9305 297.615 18.397 298.296 17.8826C299.021 17.3355 299.18 16.2835 298.651 15.5339C298.122 14.7836 297.104 14.6182 296.379 15.1671C295.663 15.7077 294.95 16.269 294.259 16.8362C293.556 17.4133 293.438 18.4713 293.996 19.1978C294.34 19.6464 294.861 19.8643 295.374 19.8305Z" fill="#91B3FA"/>
</g>
<g opacity="0.3">
<path d="M271.675 64.8442C272.458 64.7928 273.112 64.1604 273.189 63.3269C273.269 62.4643 273.367 61.5887 273.482 60.725C273.605 59.805 272.983 58.9569 272.094 58.8304C271.2 58.7035 270.384 59.3473 270.262 60.2668C270.141 61.176 270.037 62.0982 269.952 63.0064C269.867 63.9307 270.522 64.7515 271.416 64.8403C271.503 64.8488 271.59 64.8499 271.675 64.8442Z" fill="#91B3FA"/>
<path d="M335.443 136.612C334.545 136.626 333.806 135.884 333.794 134.955C333.781 134.027 334.497 133.265 335.396 133.25C337.105 133.225 338.839 133.124 340.571 132.949C341.46 132.857 342.259 133.536 342.346 134.46C342.433 135.384 341.779 136.206 340.886 136.296C340.136 136.372 339.387 136.434 338.641 136.483C337.576 136.553 336.5 136.597 335.443 136.612ZM347.668 133.544C347.461 132.641 348.001 131.735 348.875 131.521C350.552 131.11 352.23 130.621 353.863 130.068C354.715 129.777 355.635 130.26 355.914 131.142C356.194 132.024 355.729 132.974 354.876 133.263C353.156 133.846 351.39 134.36 349.625 134.793C349.533 134.815 349.442 134.829 349.351 134.835C348.575 134.886 347.854 134.353 347.668 133.544ZM326.597 136.117C324.802 135.888 322.992 135.576 321.217 135.19C320.339 134.999 319.776 134.107 319.961 133.198C320.146 132.29 321.007 131.71 321.886 131.899C323.572 132.266 325.29 132.562 326.995 132.779C327.886 132.893 328.519 133.732 328.41 134.654C328.312 135.469 327.666 136.075 326.901 136.126C326.802 136.132 326.7 136.13 326.597 136.117ZM360.914 129.045C360.52 128.211 360.854 127.204 361.661 126.797C363.208 126.017 364.74 125.158 366.217 124.246C366.988 123.769 367.985 124.029 368.446 124.827C368.906 125.624 368.655 126.655 367.885 127.132C366.33 128.092 364.716 128.997 363.088 129.819C362.891 129.918 362.684 129.973 362.478 129.986C361.84 130.028 361.211 129.676 360.914 129.045ZM312.701 132.695C311 132.063 309.301 131.348 307.651 130.568C306.835 130.182 306.475 129.185 306.848 128.34C307.222 127.495 308.186 127.124 309.003 127.51C310.57 128.251 312.183 128.931 313.799 129.53C314.644 129.843 315.083 130.806 314.78 131.68C314.554 132.331 313.98 132.749 313.352 132.79C313.137 132.805 312.916 132.774 312.701 132.695ZM299.867 126.204C298.336 125.201 296.829 124.119 295.387 122.989C294.671 122.428 294.531 121.374 295.073 120.634C295.616 119.893 296.635 119.748 297.35 120.309C298.721 121.382 300.153 122.41 301.607 123.364C302.365 123.861 302.59 124.9 302.11 125.684C301.82 126.156 301.34 126.429 300.839 126.461C300.508 126.483 300.168 126.401 299.867 126.204ZM288.705 116.974C287.421 115.65 286.178 114.254 285.009 112.827C284.428 112.118 284.513 111.058 285.198 110.458C285.884 109.857 286.909 109.946 287.489 110.654C288.6 112.01 289.781 113.335 291.001 114.594C291.637 115.25 291.638 116.314 291.004 116.971C290.713 117.273 290.338 117.437 289.957 117.462C289.508 117.491 289.049 117.329 288.705 116.974ZM279.756 105.447C278.784 103.864 277.866 102.22 277.027 100.56C276.612 99.7375 276.919 98.7218 277.715 98.2918C278.51 97.8625 279.493 98.181 279.909 99.0038C280.705 100.58 281.576 102.14 282.5 103.644C282.982 104.427 282.758 105.466 282 105.964C281.761 106.121 281.497 106.205 281.233 106.223C280.66 106.26 280.086 105.983 279.756 105.447ZM273.472 92.1602C272.862 90.3992 272.317 88.5879 271.852 86.7762C271.622 85.8788 272.139 84.9578 273.007 84.7199C273.872 84.4827 274.764 85.0158 274.995 85.9133C275.436 87.6346 275.954 89.3547 276.533 91.0276C276.835 91.9013 276.395 92.8638 275.55 93.1766C275.403 93.2311 275.253 93.2627 275.105 93.2724C274.4 93.3185 273.722 92.8821 273.472 92.1602ZM270.166 77.7861C270 76.4184 269.873 75.0285 269.789 73.6555C269.759 73.1581 269.734 72.6624 269.714 72.1667C269.677 71.2395 270.361 70.4384 271.27 70.4175C272.167 70.3784 272.925 71.0992 272.962 72.0272C272.981 72.4978 273.005 72.9699 273.034 73.4424C273.114 74.7479 273.234 76.0685 273.391 77.3689C273.503 78.29 272.871 79.1302 271.98 79.2453C271.947 79.2494 271.913 79.253 271.88 79.2552C271.029 79.3112 270.273 78.6726 270.166 77.7861Z" fill="#91B3FA"/>
<path d="M374.28 122.241C374.603 122.22 374.922 122.1 375.193 121.875C375.88 121.306 376.568 120.711 377.238 120.106C377.914 119.496 377.984 118.434 377.394 117.734C376.804 117.035 375.778 116.961 375.101 117.572C374.464 118.146 373.811 118.712 373.159 119.252C372.459 119.833 372.346 120.891 372.908 121.615C373.253 122.059 373.77 122.275 374.28 122.241Z" fill="#91B3FA"/>
</g>
<path d="M377.351 93.5966C377.54 93.3238 377.541 92.9577 377.353 92.6843L371.997 84.8884C373.643 80.7595 374.664 76.3295 374.956 71.7435L383.082 67.192C383.367 67.0324 383.522 66.7032 383.469 66.3726L381.655 55.0566C381.602 54.7259 381.352 54.4663 381.032 54.4105L371.921 52.8152C370.213 48.5722 367.864 44.7199 365.017 41.3616L367.653 32.1954C367.745 31.8741 367.63 31.5276 367.367 31.3326L358.346 24.6578C358.083 24.4628 357.728 24.4622 357.464 24.6563L349.926 30.1946C345.933 28.4925 341.65 27.4366 337.215 27.1347L332.814 18.7314C332.66 18.4366 332.342 18.2755 332.022 18.3305L321.079 20.2071C320.76 20.262 320.509 20.5206 320.455 20.851L318.912 30.2738C314.809 32.0399 311.084 34.4691 307.837 37.4129L298.973 34.6874C298.663 34.5919 298.328 34.7106 298.139 34.9833L291.685 44.3118C291.496 44.5844 291.496 44.9508 291.683 45.224L297.039 53.0201C295.393 57.1488 294.372 61.5788 294.08 66.165L285.954 70.7165C285.669 70.8759 285.514 71.2051 285.567 71.5357L287.381 82.852C287.434 83.1827 287.684 83.4421 288.004 83.4981L297.115 85.0936C298.823 89.3366 301.172 93.1887 304.019 96.5472L301.383 105.713C301.291 106.035 301.406 106.381 301.669 106.576L310.69 113.251C310.953 113.446 311.308 113.447 311.572 113.253L319.11 107.714C323.103 109.416 327.386 110.472 331.821 110.774L336.222 119.177C336.376 119.472 336.694 119.633 337.014 119.578L347.956 117.702C348.276 117.647 348.527 117.388 348.581 117.058L350.124 107.635C354.227 105.869 357.951 103.44 361.199 100.496L370.062 103.221C370.373 103.317 370.708 103.198 370.897 102.925L377.351 93.5966Z" fill="#91B3FA"/>
<path d="M333.594 80.4449C327.468 79.918 322.898 74.3355 323.407 67.9991C323.654 64.9299 325.042 62.1436 327.315 60.154C329.587 58.1644 332.473 57.2084 335.442 57.4643C341.568 57.9913 346.138 63.5738 345.629 69.9101C345.165 75.6743 340.656 80.106 335.232 80.462C334.694 80.4972 334.147 80.4922 333.594 80.4449ZM328.995 62.2071C327.252 63.7329 326.188 65.8688 325.999 68.2224C325.609 73.0798 329.113 77.361 333.81 77.7646C338.508 78.1702 342.646 74.5446 343.037 69.6868C343.427 64.8295 339.923 60.5483 335.226 60.1446C334.8 60.1081 334.377 60.1043 333.958 60.1318C332.139 60.251 330.412 60.9673 328.995 62.2071Z" fill="#BDD0FB"/>
<path d="M336.024 97.0965C336.956 97.0353 337.89 96.9254 338.823 96.7654C339.117 96.7152 339.41 96.6597 339.702 96.5997C341.143 96.3031 342.558 95.8886 343.926 95.3625C343.945 95.3553 343.964 95.3481 343.982 95.3411C344.035 95.3207 344.088 95.3 344.141 95.2788C344.244 95.2385 344.346 95.1969 344.448 95.1554C344.717 95.0456 344.875 94.7714 344.858 94.4882C344.854 94.4194 344.839 94.3499 344.814 94.2827C344.682 93.9372 344.304 93.7694 343.97 93.9051C342.252 94.6081 340.448 95.1239 338.611 95.4386C329.482 97.0058 320.657 93.4475 314.889 86.8067C311.68 83.1134 309.418 78.4657 308.576 73.215C308.428 72.2943 308.327 71.3726 308.271 70.4536C307.892 64.2697 309.567 58.1897 313.101 53.0827C317.16 47.2161 323.185 43.3351 330.066 42.1551C344.277 39.7193 357.744 49.6889 360.1 64.3787C360.245 65.2845 360.345 66.1944 360.401 67.1047C360.642 71.0494 360.046 75.005 358.643 78.6852C358.606 78.7803 358.592 78.8786 358.598 78.9742C358.614 79.2259 358.767 79.4587 359.009 79.5572C359.343 79.6924 359.721 79.5249 359.852 79.1781C361.326 75.3144 361.952 71.1614 361.699 67.0202C361.64 66.0647 361.535 65.1097 361.383 64.1589C358.91 48.7359 344.761 38.2713 329.853 40.8278C322.629 42.0666 316.304 46.1409 312.043 52.2998C308.333 57.6612 306.575 64.0442 306.972 70.5361C307.032 71.5008 307.138 72.4683 307.293 73.4346C308.491 80.9058 312.431 87.447 318.386 91.8536C323.572 95.6905 329.745 97.5085 336.024 97.0965Z" fill="#BDD0FB"/>
<g opacity="0.3">
<path d="M456.027 114.485C456.461 114.457 456.842 114.138 456.942 113.678C457.13 112.818 457.295 111.94 457.433 111.07C457.523 110.504 457.152 109.971 456.604 109.877C456.057 109.782 455.541 110.169 455.452 110.734C455.32 111.564 455.163 112.4 454.984 113.221C454.861 113.78 455.201 114.335 455.742 114.462C455.838 114.485 455.934 114.492 456.027 114.485Z" fill="#91B3FA"/>
<path d="M456.927 106.568C456.373 106.545 455.941 106.063 455.962 105.49C456.016 104.044 455.998 102.578 455.909 101.134C455.891 100.829 455.868 100.524 455.843 100.218C455.797 99.6465 456.207 99.1442 456.759 99.0957C457.283 99.0714 457.797 99.4716 457.845 100.044C457.87 100.364 457.894 100.683 457.913 101.002C458.006 102.516 458.025 104.053 457.969 105.57C457.949 106.106 457.538 106.533 457.03 106.566C456.996 106.568 456.962 106.568 456.927 106.568ZM455.105 95C454.757 93.2824 454.304 91.5717 453.757 89.916C453.578 89.373 453.857 88.7837 454.382 88.5978C454.905 88.4141 455.478 88.7015 455.657 89.2445C456.231 90.9798 456.706 92.7735 457.07 94.5744C457.184 95.1358 456.836 95.686 456.293 95.804C456.246 95.8142 456.197 95.8204 456.15 95.8234C455.659 95.8557 455.209 95.5114 455.105 95ZM451.81 85.0419C451.068 83.4671 450.221 81.9244 449.295 80.4551C448.992 79.9751 449.123 79.3315 449.587 79.0185C450.053 78.7045 450.674 78.8396 450.977 79.3206C451.949 80.8609 452.836 82.4801 453.615 84.1309C453.858 84.6462 453.652 85.2684 453.153 85.5196C453.032 85.5804 452.904 85.6142 452.777 85.6225C452.383 85.6485 451.994 85.4312 451.81 85.0419ZM446.25 76.2251C445.155 74.8848 443.969 73.6024 442.727 72.4158C442.319 72.026 442.294 71.3693 442.671 70.9484C443.046 70.5285 443.682 70.501 444.089 70.8898C445.393 72.1353 446.635 73.4791 447.784 74.885C448.142 75.3228 448.089 75.9785 447.665 76.3489C447.494 76.4972 447.289 76.5777 447.082 76.5913C446.775 76.6113 446.464 76.4864 446.25 76.2251ZM438.777 69.0793C437.4 68.0551 435.95 67.1099 434.465 66.2686C433.979 65.9937 433.801 65.3622 434.067 64.8592C434.333 64.356 434.943 64.1708 435.43 64.4478C436.986 65.329 438.507 66.3204 439.95 67.3932C440.4 67.7284 440.503 68.3771 440.179 68.8422C439.996 69.1051 439.717 69.2534 439.427 69.2725C439.203 69.2871 438.973 69.2249 438.777 69.0793ZM429.854 64.0261C428.279 63.3796 426.651 62.8292 425.013 62.3902C424.477 62.2466 424.154 61.6796 424.293 61.1248C424.433 60.57 424.979 60.2376 425.517 60.38C427.235 60.8403 428.943 61.4181 430.595 62.096C431.11 62.3081 431.362 62.9113 431.158 63.4439C431.009 63.8295 430.663 64.0728 430.287 64.0975C430.144 64.1068 429.996 64.0848 429.854 64.0261ZM420.01 61.3844C418.335 61.1582 416.625 61.0377 414.925 61.0275C414.37 61.0232 413.924 60.5556 413.927 59.9824C413.93 59.4092 414.382 58.9559 414.938 58.95C416.72 58.9621 418.513 59.0881 420.27 59.3254C420.82 59.4 421.207 59.9211 421.135 60.4897C421.072 60.9896 420.674 61.3603 420.205 61.3912C420.141 61.3953 420.076 61.3935 420.01 61.3844ZM403.602 61.4903C403.47 60.9331 403.8 60.372 404.339 60.2359C405.831 59.8595 407.368 59.5615 408.903 59.3499C409.136 59.3165 409.369 59.2869 409.602 59.2584C410.148 59.1758 410.651 59.6 410.714 60.171C410.778 60.7408 410.383 61.2553 409.832 61.3219C409.614 61.3475 409.395 61.3761 409.173 61.4081C407.703 61.6101 406.237 61.8943 404.815 62.2528C404.756 62.2679 404.697 62.2768 404.64 62.2806C404.163 62.312 403.719 61.9865 403.602 61.4903Z" fill="#91B3FA"/>
</g>
<g opacity="0.3">
<path d="M416.777 148.592C415.03 148.683 413.262 148.664 411.522 148.538C410.969 148.497 410.552 148.001 410.591 147.428C410.63 146.856 411.114 146.431 411.664 146.466C413.323 146.587 415.009 146.605 416.677 146.518C417.231 146.488 417.702 146.93 417.73 147.502C417.758 148.07 417.338 148.555 416.791 148.591C416.787 148.592 416.782 148.592 416.777 148.592ZM420.845 147.144C420.751 146.58 421.118 146.042 421.664 145.946C423.308 145.653 424.951 145.254 426.548 144.76C427.076 144.599 427.639 144.908 427.797 145.459C427.956 146.008 427.654 146.586 427.123 146.751C425.449 147.268 423.727 147.686 422.004 147.992C421.968 147.998 421.932 148.003 421.896 148.005C421.391 148.038 420.933 147.673 420.845 147.144ZM406.308 147.822C404.59 147.474 402.878 147.014 401.219 146.455C400.692 146.278 400.404 145.691 400.576 145.146C400.747 144.601 401.312 144.305 401.841 144.48C403.423 145.013 405.055 145.452 406.695 145.785C407.239 145.896 407.593 146.442 407.486 147.003C407.397 147.476 407.01 147.811 406.565 147.84C406.481 147.846 406.395 147.84 406.308 147.822ZM430.739 144.341C430.516 143.816 430.748 143.204 431.255 142.973C432.783 142.28 434.284 141.484 435.717 140.605C436.194 140.313 436.81 140.476 437.092 140.967C437.375 141.461 437.218 142.098 436.741 142.39C435.238 143.313 433.663 144.149 432.061 144.875C431.95 144.925 431.836 144.953 431.722 144.96C431.313 144.987 430.913 144.751 430.739 144.341ZM396.332 144.46C394.749 143.696 393.195 142.824 391.712 141.868C391.241 141.564 391.098 140.923 391.391 140.437C391.684 139.95 392.303 139.801 392.775 140.105C394.189 141.018 395.671 141.849 397.181 142.577C397.684 142.82 397.901 143.437 397.667 143.958C397.506 144.314 397.174 144.531 396.819 144.555C396.657 144.565 396.49 144.536 396.332 144.46ZM387.426 138.72C386.063 137.584 384.755 136.352 383.538 135.059C383.152 134.649 383.16 133.992 383.557 133.592C383.954 133.192 384.59 133.2 384.977 133.611C386.138 134.844 387.386 136.019 388.687 137.103C389.118 137.463 389.186 138.117 388.838 138.563C388.654 138.799 388.391 138.93 388.119 138.948C387.878 138.963 387.63 138.889 387.426 138.72ZM380.105 130.939C379.044 129.498 378.059 127.977 377.179 126.419C376.899 125.923 377.06 125.288 377.539 124.998C378.017 124.709 378.633 124.877 378.912 125.37C379.752 126.856 380.691 128.307 381.703 129.68C382.039 130.136 381.953 130.788 381.512 131.135C381.349 131.265 381.159 131.333 380.968 131.346C380.645 131.367 380.317 131.226 380.105 130.939Z" fill="#91B3FA"/>
<path d="M440.582 139.521C440.775 139.508 440.967 139.438 441.132 139.306C441.812 138.763 442.479 138.196 443.115 137.621C443.533 137.244 443.577 136.588 443.212 136.156C442.847 135.726 442.214 135.68 441.795 136.056C441.188 136.604 440.551 137.145 439.903 137.664C439.464 138.015 439.384 138.667 439.723 139.12C439.935 139.403 440.26 139.542 440.582 139.521Z" fill="#91B3FA"/>
</g>
<path d="M443.246 119.947C443.372 119.764 443.372 119.519 443.247 119.337L439.663 114.12C440.764 111.357 441.447 108.393 441.643 105.324L447.08 102.278C447.271 102.171 447.375 101.951 447.34 101.73L446.125 94.1578C446.09 93.9365 445.922 93.7627 445.709 93.7254L439.612 92.6579C438.469 89.8187 436.897 87.2409 434.993 84.9936L436.756 78.8599C436.818 78.645 436.741 78.4131 436.564 78.2825L430.528 73.816C430.352 73.6855 430.115 73.685 429.938 73.815L424.894 77.5209C422.222 76.382 419.356 75.6755 416.389 75.4735L413.443 69.8503C413.34 69.6531 413.127 69.5454 412.913 69.5821L405.591 70.8378C405.377 70.8745 405.21 71.0476 405.173 71.2687L404.141 77.574C401.395 78.7558 398.903 80.3813 396.73 82.3513L390.799 80.5275C390.591 80.4636 390.367 80.543 390.241 80.7256L385.922 86.968C385.796 87.1504 385.795 87.3954 385.921 87.5783L389.505 92.7952C388.403 95.5579 387.72 98.5223 387.525 101.591L382.087 104.637C381.897 104.743 381.793 104.964 381.828 105.185L383.042 112.757C383.078 112.979 383.245 113.152 383.459 113.19L389.556 114.257C390.699 117.096 392.271 119.674 394.175 121.921L392.412 128.055C392.35 128.27 392.427 128.502 392.603 128.633L398.64 133.099C398.816 133.229 399.053 133.23 399.23 133.1L404.274 129.394C406.946 130.533 409.812 131.239 412.78 131.441L415.725 137.065C415.828 137.262 416.041 137.37 416.255 137.333L423.577 136.077C423.791 136.04 423.959 135.867 423.995 135.646L425.027 129.341C427.773 128.159 430.265 126.533 432.438 124.564L438.369 126.387C438.577 126.451 438.801 126.372 438.927 126.189L443.246 119.947Z" fill="#91B3FA"/>
<path d="M413.955 111.284C411.933 111.111 410.098 110.133 408.787 108.532C407.477 106.931 406.847 104.898 407.016 102.807C407.362 98.4916 411.034 95.2787 415.213 95.6303C419.387 95.9903 422.499 99.7932 422.152 104.108C421.984 106.198 421.039 108.096 419.491 109.452C418.232 110.553 416.697 111.19 415.081 111.296C414.71 111.32 414.333 111.316 413.955 111.284ZM409.017 102.978C408.893 104.517 409.356 106.012 410.32 107.191C411.284 108.368 412.634 109.087 414.121 109.215C415.608 109.341 417.054 108.864 418.194 107.867C419.332 106.87 420.027 105.473 420.151 103.936C420.406 100.762 418.117 97.9643 415.047 97.6996C414.77 97.6762 414.496 97.6739 414.227 97.6914C411.509 97.8699 409.249 100.091 409.017 102.978Z" fill="#BDD0FB"/>
<path d="M415.647 122.874C416.281 122.832 416.918 122.757 417.558 122.648C418.828 122.43 420.078 122.079 421.276 121.602C421.33 121.58 421.384 121.558 421.437 121.536C421.853 121.367 422.097 120.943 422.071 120.506C422.064 120.4 422.042 120.293 422.002 120.189C421.798 119.656 421.214 119.397 420.699 119.606C419.584 120.062 418.417 120.396 417.23 120.598C417.165 120.61 417.099 120.62 417.034 120.631C414.22 121.085 411.404 120.796 408.791 119.83C407.373 119.305 406.015 118.579 404.751 117.661C404.741 117.654 404.731 117.647 404.72 117.639C404.689 117.616 404.658 117.593 404.627 117.57C400.955 114.852 398.525 110.819 397.786 106.212C397.69 105.615 397.625 105.019 397.588 104.424C397.343 100.421 398.428 96.4849 400.715 93.178C403.343 89.3804 407.244 86.8688 411.698 86.1049C416.15 85.3432 420.628 86.4168 424.301 89.1335C427.973 91.851 430.403 95.8846 431.141 100.492C431.236 101.078 431.3 101.667 431.336 102.256C431.493 104.81 431.107 107.37 430.198 109.753C430.142 109.899 430.121 110.051 430.13 110.199C430.154 110.588 430.39 110.947 430.763 111.099C431.28 111.308 431.862 111.049 432.066 110.514C433.083 107.848 433.515 104.983 433.34 102.127C433.3 101.467 433.228 100.808 433.122 100.153C432.296 94.9979 429.578 90.4853 425.469 87.4449C421.36 84.4054 416.355 83.1977 411.37 84.0564C406.386 84.9108 402.022 87.721 399.083 91.971C396.523 95.6698 395.31 100.073 395.584 104.552C395.625 105.217 395.698 105.885 395.805 106.552C397.406 116.53 406.088 123.501 415.647 122.874Z" fill="#BDD0FB"/>
</g>
<defs>
<linearGradient id="paint0_linear_1006_2" x1="512.808" y1="610.041" x2="92.2851" y2="105.034" gradientUnits="userSpaceOnUse">
<stop stop-color="#DAE3FE"/>
<stop offset="1" stop-color="#E9EFFD"/>
</linearGradient>
<linearGradient id="paint1_linear_1006_2" x1="97.556" y1="239.224" x2="132.307" y2="239.224" gradientUnits="userSpaceOnUse">
<stop stop-color="#DAE3FE"/>
<stop offset="1" stop-color="#E9EFFD"/>
</linearGradient>
<linearGradient id="paint2_linear_1006_2" x1="58.9102" y1="239.221" x2="93.5895" y2="239.221" gradientUnits="userSpaceOnUse">
<stop stop-color="#DAE3FE"/>
<stop offset="1" stop-color="#E9EFFD"/>
</linearGradient>
<linearGradient id="paint3_linear_1006_2" x1="20.3029" y1="239.217" x2="54.91" y2="239.217" gradientUnits="userSpaceOnUse">
<stop stop-color="#DAE3FE"/>
<stop offset="1" stop-color="#E9EFFD"/>
</linearGradient>
<linearGradient id="paint4_linear_1006_2" x1="97.125" y1="265.372" x2="131.815" y2="265.372" gradientUnits="userSpaceOnUse">
<stop stop-color="#DAE3FE"/>
<stop offset="1" stop-color="#E9EFFD"/>
</linearGradient>
<linearGradient id="paint5_linear_1006_2" x1="58.5465" y1="265.355" x2="93.1651" y2="265.355" gradientUnits="userSpaceOnUse">
<stop stop-color="#DAE3FE"/>
<stop offset="1" stop-color="#E9EFFD"/>
</linearGradient>
<linearGradient id="paint6_linear_1006_2" x1="20.0066" y1="265.339" x2="54.5531" y2="265.339" gradientUnits="userSpaceOnUse">
<stop stop-color="#DAE3FE"/>
<stop offset="1" stop-color="#E9EFFD"/>
</linearGradient>
<linearGradient id="paint7_linear_1006_2" x1="96.6955" y1="291.293" x2="131.325" y2="291.293" gradientUnits="userSpaceOnUse">
<stop stop-color="#DAE3FE"/>
<stop offset="1" stop-color="#E9EFFD"/>
</linearGradient>
<linearGradient id="paint8_linear_1006_2" x1="58.184" y1="291.263" x2="92.7418" y2="291.263" gradientUnits="userSpaceOnUse">
<stop stop-color="#DAE3FE"/>
<stop offset="1" stop-color="#E9EFFD"/>
</linearGradient>
<linearGradient id="paint9_linear_1006_2" x1="19.7112" y1="291.233" x2="54.1974" y2="291.233" gradientUnits="userSpaceOnUse">
<stop stop-color="#DAE3FE"/>
<stop offset="1" stop-color="#E9EFFD"/>
</linearGradient>
<linearGradient id="paint10_linear_1006_2" x1="96.2675" y1="317.124" x2="130.836" y2="317.124" gradientUnits="userSpaceOnUse">
<stop stop-color="#DAE3FE"/>
<stop offset="1" stop-color="#E9EFFD"/>
</linearGradient>
<linearGradient id="paint11_linear_1006_2" x1="57.8228" y1="317.081" x2="92.3203" y2="317.081" gradientUnits="userSpaceOnUse">
<stop stop-color="#DAE3FE"/>
<stop offset="1" stop-color="#E9EFFD"/>
</linearGradient>
<linearGradient id="paint12_linear_1006_2" x1="19.4168" y1="317.039" x2="53.8429" y2="317.039" gradientUnits="userSpaceOnUse">
<stop stop-color="#DAE3FE"/>
<stop offset="1" stop-color="#E9EFFD"/>
</linearGradient>
<linearGradient id="paint13_linear_1006_2" x1="95.8412" y1="342.865" x2="130.349" y2="342.865" gradientUnits="userSpaceOnUse">
<stop stop-color="#DAE3FE"/>
<stop offset="1" stop-color="#E9EFFD"/>
</linearGradient>
<linearGradient id="paint14_linear_1006_2" x1="57.4633" y1="342.81" x2="91.9006" y2="342.81" gradientUnits="userSpaceOnUse">
<stop stop-color="#DAE3FE"/>
<stop offset="1" stop-color="#E9EFFD"/>
</linearGradient>
<linearGradient id="paint15_linear_1006_2" x1="19.1235" y1="342.755" x2="53.4896" y2="342.755" gradientUnits="userSpaceOnUse">
<stop stop-color="#DAE3FE"/>
<stop offset="1" stop-color="#E9EFFD"/>
</linearGradient>
<linearGradient id="paint16_linear_1006_2" x1="95.4164" y1="368.518" x2="129.865" y2="368.518" gradientUnits="userSpaceOnUse">
<stop stop-color="#DAE3FE"/>
<stop offset="1" stop-color="#E9EFFD"/>
</linearGradient>
<linearGradient id="paint17_linear_1006_2" x1="57.1049" y1="368.45" x2="91.4824" y2="368.45" gradientUnits="userSpaceOnUse">
<stop stop-color="#DAE3FE"/>
<stop offset="1" stop-color="#E9EFFD"/>
</linearGradient>
<linearGradient id="paint18_linear_1006_2" x1="18.8312" y1="368.382" x2="53.1376" y2="368.382" gradientUnits="userSpaceOnUse">
<stop stop-color="#DAE3FE"/>
<stop offset="1" stop-color="#E9EFFD"/>
</linearGradient>
<linearGradient id="paint19_linear_1006_2" x1="94.9925" y1="394.082" x2="129.381" y2="394.082" gradientUnits="userSpaceOnUse">
<stop stop-color="#DAE3FE"/>
<stop offset="1" stop-color="#E9EFFD"/>
</linearGradient>
<linearGradient id="paint20_linear_1006_2" x1="56.7472" y1="394.002" x2="91.0647" y2="394.002" gradientUnits="userSpaceOnUse">
<stop stop-color="#DAE3FE"/>
<stop offset="1" stop-color="#E9EFFD"/>
</linearGradient>
<linearGradient id="paint21_linear_1006_2" x1="18.5398" y1="393.921" x2="52.7868" y2="393.921" gradientUnits="userSpaceOnUse">
<stop stop-color="#DAE3FE"/>
<stop offset="1" stop-color="#E9EFFD"/>
</linearGradient>
<linearGradient id="paint22_linear_1006_2" x1="94.5709" y1="419.559" x2="128.899" y2="419.559" gradientUnits="userSpaceOnUse">
<stop stop-color="#DAE3FE"/>
<stop offset="1" stop-color="#E9EFFD"/>
</linearGradient>
<linearGradient id="paint23_linear_1006_2" x1="56.3913" y1="419.466" x2="90.6494" y2="419.466" gradientUnits="userSpaceOnUse">
<stop stop-color="#DAE3FE"/>
<stop offset="1" stop-color="#E9EFFD"/>
</linearGradient>
<linearGradient id="paint24_linear_1006_2" x1="18.2496" y1="419.372" x2="52.4372" y2="419.372" gradientUnits="userSpaceOnUse">
<stop stop-color="#DAE3FE"/>
<stop offset="1" stop-color="#E9EFFD"/>
</linearGradient>
<linearGradient id="paint25_linear_1006_2" x1="94.1501" y1="444.948" x2="128.419" y2="444.948" gradientUnits="userSpaceOnUse">
<stop stop-color="#DAE3FE"/>
<stop offset="1" stop-color="#E9EFFD"/>
</linearGradient>
<linearGradient id="paint26_linear_1006_2" x1="56.0361" y1="444.842" x2="90.235" y2="444.842" gradientUnits="userSpaceOnUse">
<stop stop-color="#DAE3FE"/>
<stop offset="1" stop-color="#E9EFFD"/>
</linearGradient>
<linearGradient id="paint27_linear_1006_2" x1="17.9603" y1="444.736" x2="52.0889" y2="444.736" gradientUnits="userSpaceOnUse">
<stop stop-color="#DAE3FE"/>
<stop offset="1" stop-color="#E9EFFD"/>
</linearGradient>
<linearGradient id="paint28_linear_1006_2" x1="375.334" y1="-212.925" x2="268.869" y2="387.599" gradientUnits="userSpaceOnUse">
<stop stop-color="#4042E2"/>
<stop offset="1" stop-color="#4F52FF"/>
</linearGradient>
<linearGradient id="paint29_linear_1006_2" x1="205.389" y1="284.313" x2="381.762" y2="284.313" gradientUnits="userSpaceOnUse">
<stop stop-color="#4042E2"/>
<stop offset="1" stop-color="#4F52FF"/>
</linearGradient>
<linearGradient id="paint30_linear_1006_2" x1="307.31" y1="83.2278" x2="364.075" y2="-43.4399" gradientUnits="userSpaceOnUse">
<stop stop-color="#09005D"/>
<stop offset="1" stop-color="#1A0F91"/>
</linearGradient>
<linearGradient id="paint31_linear_1006_2" x1="312.189" y1="166.187" x2="183.219" y2="1030.55" gradientUnits="userSpaceOnUse">
<stop stop-color="#FEBBBA"/>
<stop offset="1" stop-color="#FF928E"/>
</linearGradient>
<linearGradient id="paint32_linear_1006_2" x1="309.021" y1="165.715" x2="180.052" y2="1030.07" gradientUnits="userSpaceOnUse">
<stop stop-color="#FEBBBA"/>
<stop offset="1" stop-color="#FF928E"/>
</linearGradient>
<linearGradient id="paint33_linear_1006_2" x1="315.916" y1="264.629" x2="502.628" y2="-94.3331" gradientUnits="userSpaceOnUse">
<stop stop-color="#FE7062"/>
<stop offset="1" stop-color="#FF928E"/>
</linearGradient>
<linearGradient id="paint34_linear_1006_2" x1="77.5265" y1="464.191" x2="97.1086" y2="464.191" gradientUnits="userSpaceOnUse">
<stop stop-color="#09005D"/>
<stop offset="1" stop-color="#1A0F91"/>
</linearGradient>
<linearGradient id="paint35_linear_1006_2" x1="82.972" y1="441.136" x2="78.9751" y2="474.866" gradientUnits="userSpaceOnUse">
<stop stop-color="#FEBBBA"/>
<stop offset="1" stop-color="#FF928E"/>
</linearGradient>
<linearGradient id="paint36_linear_1006_2" x1="107.345" y1="464.706" x2="135.533" y2="464.706" gradientUnits="userSpaceOnUse">
<stop stop-color="#09005D"/>
<stop offset="1" stop-color="#1A0F91"/>
</linearGradient>
<linearGradient id="paint37_linear_1006_2" x1="112.931" y1="444.702" x2="111.135" y2="478.632" gradientUnits="userSpaceOnUse">
<stop stop-color="#FEBBBA"/>
<stop offset="1" stop-color="#FF928E"/>
</linearGradient>
<linearGradient id="paint38_linear_1006_2" x1="107.765" y1="472.985" x2="66.4782" y2="282.619" gradientUnits="userSpaceOnUse">
<stop stop-color="#09005D"/>
<stop offset="1" stop-color="#1A0F91"/>
</linearGradient>
<linearGradient id="paint39_linear_1006_2" x1="147.307" y1="212.114" x2="58.5941" y2="306.751" gradientUnits="userSpaceOnUse">
<stop stop-color="#4042E2"/>
<stop offset="1" stop-color="#4F52FF"/>
</linearGradient>
<linearGradient id="paint40_linear_1006_2" x1="130.676" y1="217.534" x2="-0.605963" y2="450.532" gradientUnits="userSpaceOnUse">
<stop stop-color="#4042E2"/>
<stop offset="1" stop-color="#4F52FF"/>
</linearGradient>
<linearGradient id="paint41_linear_1006_2" x1="97.8941" y1="244.368" x2="107.11" y2="220.034" gradientUnits="userSpaceOnUse">
<stop stop-color="#FEBBBA"/>
<stop offset="1" stop-color="#FF928E"/>
</linearGradient>
<linearGradient id="paint42_linear_1006_2" x1="105.412" y1="165.289" x2="101.101" y2="197.126" gradientUnits="userSpaceOnUse">
<stop stop-color="#4042E2"/>
<stop offset="1" stop-color="#4F52FF"/>
</linearGradient>
<linearGradient id="paint43_linear_1006_2" x1="112.472" y1="166.245" x2="108.16" y2="198.082" gradientUnits="userSpaceOnUse">
<stop stop-color="#4042E2"/>
<stop offset="1" stop-color="#4F52FF"/>
</linearGradient>
<linearGradient id="paint44_linear_1006_2" x1="119.247" y1="207.566" x2="66.1464" y2="248.461" gradientUnits="userSpaceOnUse">
<stop stop-color="#FEBBBA"/>
<stop offset="1" stop-color="#FF928E"/>
</linearGradient>
<linearGradient id="paint45_linear_1006_2" x1="99.2644" y1="193.541" x2="123.991" y2="224.325" gradientUnits="userSpaceOnUse">
<stop stop-color="#09005D"/>
<stop offset="1" stop-color="#1A0F91"/>
</linearGradient>
<linearGradient id="paint46_linear_1006_2" x1="114.037" y1="205.23" x2="87.9374" y2="224.54" gradientUnits="userSpaceOnUse">
<stop stop-color="#FEBBBA"/>
<stop offset="1" stop-color="#FF928E"/>
</linearGradient>
<linearGradient id="paint47_linear_1006_2" x1="174.327" y1="218.548" x2="118.852" y2="264.884" gradientUnits="userSpaceOnUse">
<stop stop-color="#FEBBBA"/>
<stop offset="1" stop-color="#FF928E"/>
</linearGradient>
<linearGradient id="paint48_linear_1006_2" x1="175.451" y1="223.039" x2="121.452" y2="268.144" gradientUnits="userSpaceOnUse">
<stop stop-color="#FEBBBA"/>
<stop offset="1" stop-color="#FF928E"/>
</linearGradient>
<linearGradient id="paint49_linear_1006_2" x1="176.323" y1="220.938" x2="120.849" y2="267.274" gradientUnits="userSpaceOnUse">
<stop stop-color="#FEBBBA"/>
<stop offset="1" stop-color="#FF928E"/>
</linearGradient>
<linearGradient id="paint50_linear_1006_2" x1="108.244" y1="122.423" x2="250.514" y2="304.015" gradientUnits="userSpaceOnUse">
<stop stop-color="#E1473D"/>
<stop offset="1" stop-color="#E9605A"/>
</linearGradient>
<linearGradient id="paint51_linear_1006_2" x1="254.127" y1="155.375" x2="227.101" y2="283.543" gradientUnits="userSpaceOnUse">
<stop stop-color="#FE7062"/>
<stop offset="1" stop-color="#FF928E"/>
</linearGradient>
<linearGradient id="paint52_linear_1006_2" x1="123.095" y1="216.18" x2="337.058" y2="231.648" gradientUnits="userSpaceOnUse">
<stop stop-color="#FF9085"/>
<stop offset="1" stop-color="#FB6FBB"/>
</linearGradient>
<linearGradient id="paint53_linear_1006_2" x1="220.364" y1="207.783" x2="275.185" y2="73.0036" gradientUnits="userSpaceOnUse">
<stop stop-color="#FE7062"/>
<stop offset="1" stop-color="#FF928E"/>
</linearGradient>
<linearGradient id="paint54_linear_1006_2" x1="248.862" y1="63.0537" x2="239.579" y2="80.4441" gradientUnits="userSpaceOnUse">
<stop stop-color="#FE7062"/>
<stop offset="1" stop-color="#FF928E"/>
</linearGradient>
<linearGradient id="paint55_linear_1006_2" x1="142.154" y1="260.468" x2="114.795" y2="392.437" gradientUnits="userSpaceOnUse">
<stop stop-color="#FEBBBA"/>
<stop offset="1" stop-color="#FF928E"/>
</linearGradient>
<clipPath id="clip0_1006_2">
<rect width="458" height="474" fill="white"/>
</clipPath>
</defs>
</svg>
